<?xml version="1.0" standalone="no"?>
<!DOCTYPE svg PUBLIC "-//W3C//DTD SVG 1.0//EN" "http://www.w3.org/TR/2001/REC-SVG-20010904/DTD/svg10.dtd">
<svg xmlns="http://www.w3.org/2000/svg" xmlns:xlink="http://www.w3.org/1999/xlink" id="body_1" width="717" height="538">

<g transform="matrix(3.5829883 0 0 3.5829883 42.00572 -0)">
	<g>
		<g>
            <path d="M55.867 16.578C 55.579002 17.297998 53.959 18.342 51.151 19.421999C 48.199 20.466 42.979 20.862 38.839 23.237999C 34.591 25.542 30.343 31.085999 26.527 33.642C 22.639 36.053997 18.319 35.586 16.087002 38.357998C 13.783002 41.165997 15.619001 46.458 13.243002 50.201996C 10.7230015 53.765995 3.703002 56.573997 1.9030018 60.173996C -0.004998207 63.701996 -1.3729982 67.481995 2.3710017 71.51399C 6.1150017 75.437996 13.243002 79.54099 24.151003 83.826996C 28.147003 100.962 31.279003 113.994995 34.087 123.605995C 36.751003 133.038 38.803 138.72699 40.243004 140.67C 40.207005 143.51399 44.851006 145.674 54.463005 147.293C 64.11101 148.914 85.09901 150.318 97.55501 150.137C 109.90301 149.70499 119.73101 148.301 127.86801 145.385C 132.548 139.805 136.75902 132.35399 140.64702 122.201C 144.53601 112.086 147.95602 99.918 151.05103 85.265C 156.16202 84.617 160.08603 83.142 163.36403 80.982C 166.42303 78.712006 167.75504 74.465004 169.98703 71.981C 172.25504 69.425 176.14304 68.165 176.64703 65.825005C 176.86403 63.233006 174.27003 59.885006 172.36403 57.329002C 170.41902 54.773003 167.75504 52.937004 165.73903 50.705C 163.72302 48.293003 162.03203 46.241 160.51804 43.577003C 158.86403 40.841003 160.33804 36.593002 156.73903 34.577003C 153.13902 32.489002 144.28403 34.073 139.20802 31.265003C 134.02202 28.349003 130.67502 20.537003 125.96002 17.549004C 121.09902 14.525003 114.98003 15.317003 110.80402 13.265003C 106.663025 11.033003 104.75502 6.893003 101.33502 4.7330036C 97.843025 2.4290037 94.42302 0.16100359 89.96002 0.017003536C 85.21202 -0.08899646 78.552025 2.7910035 73.872025 3.7980034C 69.15602 4.6980033 64.98003 3.0060034 62.028023 5.2380037C 58.932022 7.4350038 57.02402 11.035004 55.872025 16.579002L55.872025 16.579002L55.867 16.578z" stroke="#000000" stroke-width="0.036" fill="#000000" fill-rule="nonzero" />
            <path d="M69.691 6.174C 67.135 6.462 65.407005 5.5979996 63.679 6.894C 61.843002 8.118 60.115 11.1779995 59.071 13.59C 57.919 15.894 59.647 18.954 57.307 20.682C 54.822998 22.265999 48.055 22.518 44.923 23.526C 41.647 24.39 41.611 24.425999 38.551 26.693998C 35.454998 28.925999 30.450998 34.649998 26.850998 37.061996C 23.214998 39.401997 18.390999 37.889996 16.950998 40.589996C 15.402998 43.145996 19.326998 49.301994 18.030998 52.541996C 16.662998 55.637997 8.058998 57.581997 9.174998 59.633995C 10.290998 61.685993 16.770998 62.333996 24.726997 64.925995C 32.610996 67.518 45.714996 72.45 56.262997 74.86199C 66.667 77.16599 87.295 77.814995 87.043 78.74999C 86.539 79.61299 64.507 81.05299 54.139 80.15399C 43.663002 79.07399 33.331 75.257996 25.087 72.73699C 16.663 70.10899 8.275 65.14099 4.927 64.924995C 1.5790005 64.709 1.1110001 68.704994 5.611 71.657C 10.183001 74.573 20.263 79.215996 31.819 82.277C 43.339 85.265 58.999 88.326004 73.938995 89.369C 88.770996 90.269005 105.078995 89.693 119.948 87.93C 134.67099 86.094 156.704 79.866 161.743 78.391C 166.567 76.805 155.731 78.173996 149.358 78.75C 142.879 79.182 123.295 82.063 123.51 81.559C 123.834 80.946 142.41 77.922 150.76201 75.546C 159.04301 73.133995 169.55501 69.605995 172.723 67.049995C 175.78401 64.35 171.03201 62.477997 169.15901 59.633995C 167.143 56.609997 163.003 53.477997 161.02202 49.697994C 158.93402 45.917995 160.73502 39.653996 157.13503 37.313995C 153.31903 34.937996 144.49803 38.105995 139.42203 35.549995C 134.41803 32.885994 131.75403 24.677996 127.399025 21.761995C 122.86403 18.773994 117.75102 20.213995 112.89102 17.873995C 107.92202 15.389995 102.48702 9.665995 98.38302 7.2179947C 94.24202 4.6979947 91.291016 3.2939947 88.12302 3.0059948C 84.81102 2.5739949 81.96702 4.6259947 78.90701 5.129995C 75.77602 5.633995 72.24802 5.8499947 69.69202 6.173995L69.69202 6.173995L69.691 6.174z" stroke="#000000" stroke-width="0.036" fill="#FFFFFF" fill-rule="nonzero" />
            <path d="M44.203 136.1C 41.322998 127.100006 30.991 92.073006 30.414999 87.93201C 29.874998 83.90101 39.451 111.04301 40.675 112.01601C 41.683 112.772 36.246998 92.864006 37.147 93.26001C 38.119 93.61901 44.347 114.21101 45.967 114.50001C 47.226997 114.57201 44.850998 95.27501 45.642998 94.66401C 46.470997 94.19501 49.206997 111.22301 50.934998 111.29501C 52.554996 111.11501 54.318996 93.83601 55.543 94.30301C 56.659 94.84401 56.695 113.99601 58.027 114.13901C 59.215 114.032005 61.627 89.229004 63.319 94.30301C 64.939 99.56101 68.647 140.02402 67.927 144.59601C 67.099 148.807 60.187004 120.44001 58.711002 120.15301C 57.235 119.97101 59.503002 142.436 58.711002 142.83301C 57.667004 142.90501 53.887 121.772 53.059002 121.23301C 52.267002 120.76401 54.319 139.30301 53.779003 139.628C 53.023003 139.66501 49.675003 122.31401 49.171005 122.27601C 48.667004 122.31301 51.943005 139.807 50.935005 139.628C 49.783005 139.12401 43.375004 120.44 42.799004 120.51301C 42.223003 120.80001 47.047005 137.90201 47.407005 140.70801C 47.623005 143.28801 46.975006 144.798 44.203007 136.08801L44.203007 136.08801L44.203 136.1z" stroke="#000000" stroke-width="0.036" fill="#FFFFFF" fill-rule="nonzero" />
            <path d="M136.62 104.6C 135.21599 111.259995 127.510994 134.229 125.99899 137.14499C 124.37999 139.77199 128.411 121.23299 127.40299 121.23299C 126.17799 121.302986 120.67099 137.14499 119.62799 137.50398C 118.58299 137.68398 122.36199 122.526985 121.39199 122.99598C 120.34699 123.53498 113.399994 145.02698 113.57899 140.67198C 113.57899 135.99199 120.84999 100.13498 122.07499 96.42798C 123.26299 92.90098 120.13199 119.323975 121.02999 119.46698C 121.92999 119.39698 126.32299 96.53498 127.40299 96.42798C 128.23099 96.35598 125.673996 118.82098 126.68199 119.10798C 127.79899 119.072975 131.97499 100.02798 133.77399 97.50798C 135.47398 95.06698 137.81398 97.945984 136.63399 104.60798L136.63399 104.60798L136.62 104.6z" stroke="#000000" stroke-width="0.036" fill="#FFFFFF" fill-rule="nonzero" />
            <path d="M114.66 101.4C 112.969 95.82 111.312004 93.587 109.691 94.306C 107.964005 95.064 106.453 98.915 104.759 106.007C 102.816 97.114006 101.087006 92.65201 99.431 92.18301C 97.74 91.714005 96.263 95.49601 94.859 103.52301C 91.873 96.97001 89.64 93.94701 87.768 94.30601C 85.895996 94.70201 84.636 98.339005 83.843994 105.64801C 81.647995 97.87101 79.59599 93.87501 77.83199 93.26301C 75.995995 92.68701 72.86399 94.16301 72.899994 102.11801C 72.86399 110.07501 75.743996 134.80602 77.507996 140.35C 79.128 145.641 80.892 143.518 82.799995 133.979C 84.743996 141.17801 86.507996 144.85 88.091995 145.282C 89.63999 145.606 90.899994 142.54599 92.01499 136.10199C 93.70799 142.51 95.29199 145.71298 96.62399 146.00198C 97.95599 146.18198 99.17899 143.44498 100.15099 137.50598C 101.841995 142.72498 103.354 145.13698 105.08299 144.59798C 106.703995 143.94998 108.357994 141.50198 110.051994 134.33798C 111.672 126.94798 113.11199 116.29798 114.661995 101.39798L114.661995 101.39798L114.66 101.4z" stroke="#000000" stroke-width="0.036" fill="#FFFFFF" fill-rule="nonzero" />
		</g>
	</g>
</g>
</svg>