<?xml version="1.0" encoding="UTF-8" standalone="no"?>
<svg id="svg2" xmlns:rdf="http://www.w3.org/1999/02/22-rdf-syntax-ns#" xmlns="http://www.w3.org/2000/svg" height="212.75mm" width="210.58mm" version="1.1" xmlns:cc="http://creativecommons.org/ns#" xmlns:dc="http://purl.org/dc/elements/1.1/" viewBox="0 0 746.16464 753.83804">
<g id="layer1" transform="translate(1641.7 395.99)">
<path id="path6507" d="m-1070.3-395.98c-2.4185 0.041-4.8453 0.2617-7.2676 0.6777-42.162 6.8625-57.725 54.113-60.15 91.275-11.175-4.4125-30.688-1.2238-33.062-16.924-6.9125-39.5-52.063-53.976-86.65-58.264-11.65-4.5125-33.724-0.7238-25.199 16.576 6.4625 16.138-6.4246 30.737-20.912 35.324-57.512 18.075-118.65 29.112-171.48 59.787-47.625 32.738-95.423 73.751-109.77 132.76-2.3625 15.412-22.463 15.45-29.088 28.412-41.938 33.25-34.087 104.69 7.8379 134.64 25.762 14.062 55.512 23 84.312 13.312 25.5 102.19 50.586 204.54 76.586 306.66 0.75 3.2 1.9254 9.5266 6.5879 9.1641 115.11-0.1 230.24-0.039 345.36-0.039 6.45 2.2625 10.224-4.1863 11.699-9.1738 25.6-101.45 50.714-202.98 76.201-304.46 9.65-8.0375 26.712 1.9746 37.725-6.4629 21.3-4.6375 40.2-17.962 53.713-34.887 24.65-30.125 24.911-78.451-2.0391-106.89-4.025-11.075-20.512-12.425-21.699-25.787-9.85-37.138-30.362-70.75-57.475-97.588 3.6875-7.225 8.1992-16.412 3.1992-25.225-19.062-32.338-4.7867-72.775-24.074-105.04-8.4621-21.705-30.979-38.246-54.357-37.854zm0.3554 6.8984c39.357-0.6012 59.688 46.92 58.551 81.455-3.7 25.138 14.037 46.599 13.25 70.949-19.525-7-28.936 9.0508-39.049 20.926-10.738-0.05-17.612-13.475-29.162-13.088-10.575 1.3875-19.177 12.237-30.414 9.4121-3.2-5.5125-5.3375-11.625-8.6875-17-12.075-2.7125-24.412-0.6875-36.137 2.5 8.325-31.088 15.312-62.661 14.975-94.986 5.05-25.2 20.501-55.164 48.551-59.389 2.7922-0.4859 5.4992-0.7392 8.123-0.7793zm-195.49 25.606c26.538 2.3875 53.913 10.325 72.863 29.537 6.425 11.45 5.8625 26.638 17.312 35.113 10.15 8.625 25.838 4.7613 36.5 12.799 5.9 19.4-11.713 36.962-9.9258 56.412 8.75 8.325 21.812-0.175 31.037-3.8125 9.525 2.3625 11.839 12.413 16.977 19.238 12.788 5.875 24.236-5.6625 36.736-7.1875 9.6 1.3125 15.538 9.925 24.113 13.375 11.15 0.6125 14.062-11.987 20.662-17.975 34.787 26 58.587 66.812 67.762 109.38 13.5 14.7 33.675 25.461 36.525 47.236 18.888 54.175-43.899 106.74-95.387 92.014-11.762-2.3-24.4-12.201-36.4-5.6758-24.988 27.912-69.325 23.9-100.59 9.8496-5.6375-4.825-10.05 2.5016-14.463 5.2891-27.438 14.875-60.786 9.0988-86.299-6.8887-22.75 9.8875-48.45 25.212-74.525 15.75-16.338-3.9375-30.887-12.188-44.225-22.125-9.825-6.75-17.476 4.8625-23.051 11.438-33.988 17.712-76.875 10.576-105.96-13.674-9.1875-5.975-17.812 5.4109-26.824 7.1484-38.362 15.375-91.613-5.6617-100.09-48.824-14.238-37.225 14.887-76.35 49.35-88.287 10.338-64.788 61.727-112.3 115.35-144.64 48.838-26.488 104.69-36.398 157.17-52.836 22.112-6.9125 41.4-27.313 35.375-52.65zm206.74 29.336c-0.9201 0.036-1.9132 0.2875-2.9726 0.8008-8.5625 2.7625-7.2766 18.038 2.8359 15.676 11.09 2.8887 9.0311-16.829 0.1367-16.477zm-31.633 0.5645c-0.4756 0.031-0.9578 0.1238-1.4414 0.2871-9.75 3.0875-6.2992 21.637 5.1133 14.512 9.2461-1.6758 3.4626-15.26-3.6719-14.799zm27.727 26.207c-6.1006 0.3904-10.355 14.048-17.992 6.918-2.3375-2.775-4.8371-7.5504-9.0371-6.7754-5.6 3.4125 2.7 10.186 5.125 13.986 9.9625 9.825 22.524-1.9738 26.486-11.861-1.6687-1.7414-3.1742-2.3577-4.582-2.2676zm-210.88 23.367c-30.188 3.125-29.839 37.475-40.264 58.662 2.0375 8.3 12.514-1.8363 15.264 4.5762 4.45 11.538 23.061-0.3891 26.174 12.898 7.825-2.825 12.975-10.799 22.775-7.4238-4.0625-21.575 8.6383-64.025-23.949-68.713zm-1.4297 4.8242c28.581 0.6116 20.207 43.761 19.904 61.15-6.3-1.6125-12.663 0.1504-16.463 5.5879-3.1125-8.6375-12.2-5.8004-19.475-5.5254-5.3875-4.4625-8.9996-14.662-17.725-8.3867 9.7-17.562 7.0125-47.388 30.875-52.75 1.0004-0.071 1.9608-0.096 2.8828-0.076zm-8.8145 17.67c-0.6649-0.028-1.3703 0.1149-2.0937 0.4805-5.225 2.075-3.2004 10.487 2.6621 7.8496 6.7703 0.4485 4.0859-8.1361-0.5684-8.3301zm10.738 2.7715c-0.3316 0.015-0.6824 0.047-1.0566 0.098 1.6226 15.258 11.338-0.5602 1.0566-0.098zm-13.244 8.7461c-2.7375 9.9375 16.462 10.526 13.688 0.076-4.75 2.5625-8.9125 1.2363-13.688-0.076zm-127.04 40.326c-6.35 12.388-24.149 2.125-28.012 17.688-16.212-4.3-14.412 13.449-21.137 21.762 18.25 12.625 30.075 42.562 57.037 35.162 20.625-8.375 17.6-37.349 3.7871-51.137-7.15-5.6625-3.6758-20.762-11.676-23.475zm-0.9648 7.4863c5.5771-0.3873 4.4043 11.719 7.8027 15.738 10.075 11.55 19.025 33.649 4.4375 44.574-12.475 11.638-28.962-1.1617-37.6-11.387-2.9-9.2375-13.012-11.863-19.387-18.051 4.325-3.8375 8.0492-8.1734 8.6367-14.273 8.5 0.5375 14.538-5.1383 17.676-12.363 6.2375-1.425 14.075 3.9617 17.225-3.9883 0.4351-0.1429 0.8372-0.2242 1.209-0.25zm297.52 12.238c-2.9759-0.04-6.1797 0.624-9.5547 2.1621-18.538 5.0875-27.849 25.45-43.924 35.213 15.612 2.225 9.3246 22.726 27.037 22.863 0.375 15.888 17.299 9.0484 26.512 14.336 5.475-11.075 9.4637-23.087 16.514-33.475 11.312-14.309 1.6024-40.857-16.584-41.1zm-0.8555 3.8516c22.076-0.9009 20.214 29.442 10.551 42.81-7.175 6.1875-7.4746 16.35-11.725 24.275-5.2875-5.1-14.386-4.45-19.049-3.75 3.05-16.725-22.726-6.6883-16.551-23.926 0.7125-5.65-12.762-3.6609-6.75-9.2734 16.575-6.8875 20.95-30.814 41.312-29.951 0.7625-0.096 1.4988-0.1565 2.2109-0.1855zm-299.46 10.932c-0.9833-0.015-2.1277 0.127-3.4355 0.4785-7.9875 3.4625-3.0617 17.001 0.8008 5.2012 8.4875 2.2312 9.5184-5.577 2.6347-5.6797zm289.19 2.4902c-0.5605 0.016-1.1297 0.1477-1.6875 0.4258-6.6125 2.3875-0.3746 11.313 4.5254 7.4258 4.5391-2.2969 1.0856-7.9616-2.8379-7.8516zm-282.96 3.9981c-0.8483-0.026-1.8262 0.01-2.9473 0.1152-0.75 14.297 15.672 0.2725 2.9473-0.1152zm293.7 4.5703c-0.8567-0.01-1.8617 0.061-3.0313 0.2324-4.5234 18.633 15.882-0.077 3.0313-0.2324zm-17.285 0.4785c-0.1844-0.0002-0.375 0.01-0.5703 0.029-5.1125 10.65 9.2617 17.475 14.949 8.4375-7.9922 1.0899-8.6625-8.4598-14.379-8.4668zm-284.96 1.8047c-1.1626-0.062-2.6551 0.064-4.5371 0.4375-3.7949 18.34 15.776 0.1639 4.5371-0.4375zm140.02 1.1367c-0.4475 0.01-0.9028 0.025-1.3653 0.051-15.688 5.1375-27.061 23.788-20.799 40.213 3.1875 10.062 0.5246 20.8 1.2246 31.188 9.15-1.125 16.35-8.1996 22.588 2.5879 7.2125-7.975 17.138-5.3004 25.75-6.0879 0.2-12.263 18.674-6.3 13.486-18.75-13.954-16.513-12.694-49.729-40.885-49.201zm2.0117 4.6387c24.594-0.2816 22.447 33.369 35.912 48.463-9.1 3.1375-14.789 14.25-25.539 9.3125-7.15 7.975-13.062 6.4742-20.574-0.4258-12 12-6.3633-8.6496-8.1133-17.037-5.2625-13.2-2.3996-34.75 13.025-39.787 1.8899-0.336 3.6495-0.5066 5.2891-0.5254zm3.873 18.713c-9.7 11.725 16.288 3.525 0 0zm-11.701 2.2597c-0.3049 0-0.6289 0.036-0.9726 0.1016-5.15 1.3-2.3129 8.6762 2.0996 8.6387 3.668-2.2617 3.4469-8.7973-1.127-8.7403zm13.402 8.2266c-4.375 6.425-15.251-5.0254-11.764 7.7246 6.9875 7.5 17.376-6.0996 11.764-7.7246zm-258.02 34.756c-2.7405-0.027-5.7455 0.381-9.0664 1.3066-30.212 13.762-6.3367 51.112-5.2617 74.412 6.525-5.1 14.611-10.524 21.486-2.6738 6.325-6.8875 12.812-13.438 23.6-10.426 1.5375-8.7 15.714-10.961 11.227-20.174-14.896-13.159-19.669-42.224-41.984-42.445zm525.31 4.0039c-1.0867-0.01-2.195 0.061-3.3262 0.2148-29.35 6.8625-24.138 43.362-28.988 65.875 6.3375-0.1625 17.812-6.0625 18.162 4.25 5.35 4.625 15.1-5.55 21.475 0.75 10.412 7.6875 13.188-13.699 25.088-7.4492 1.875-10.438-8.4254-18.688-6.4629-29.812 1.3945-16.043-9.6476-33.711-25.947-33.828zm-526.75 0.031c13.85 0 24.883 12.568 28.082 25.834 2.3 6.9 16.874 13.438 8.8867 20.301-8.025 0.675-2.725 14.312-12.25 9.4746-8.9-5.6-14.874 15.625-21.512 5-5.9125-7.2-15.451 13.4-14.801-2.5996-1.325-18.712-19.825-51.288 8.7871-57.838 0.9469-0.1156 1.8833-0.1716 2.8067-0.1719zm159.48 2.709c-28.275 3.4375-22.412 39.15-32.688 57.625-5.8 13.962 13.573-2.2367 15.836 6.9258 3.7375 10.55 16.588 1.5488 24.113 6.1113 9.075 5.325 13.963-8.0109 23.676-4.6484-2.575-23.538 2.9-66.614-30.938-66.014zm368.99 0.7305c19.005 0.2561 21.023 27.93 22.348 43.07 0.875 4.25 9.175 18.124-2.1875 15.174-6.675-2.1375-5.6363 11.551-12.611 6.3262-7-7.3625-19.588 4.175-24.15-6.125-1.9-7.45-15.775 5.1238-12.713-4.3262 6.8625-16.662-0.1363-46.023 21.514-52.898 2.8765-0.8696 5.4667-1.2522 7.8008-1.2207zm-163.89 2.0449c-6.475 3.775-13.151-0.4379-20.113 0.3496-3.5875 21.488-25.887 41.75-13.137 64.15 10.8 13.775 29.95 9.9879 41.775-0.037 6.4375-11.188 15.599-20.888 25.262-28.9 2.875-11.05-16.962-5.0742-12.287-19.262-11.625 0.2625-14.388-10.288-21.5-16.301zm-203.31 0.623c26.764-0.7009 22.29 40.545 25.947 58.115-11.3 10.75-23.775 2.6125-38.912 4.25-2.5125-7.15-9.7867-11.139-17.012-7.1016 9.075-17.875 3.5371-47.238 27.287-55.062 0.9297-0.1121 1.8261-0.1785 2.6894-0.2012zm186.36 2.1016c4.4125 3.6875 11.076 5.0629 17.676 2.9004 2.0375 8 7.6242 12.2 16.387 11.162-6.225 14.025 18.639 11.763 8.8887 21.4-6.15 4.6375-12.462 9.6629-15.537 16.963-7.35 13.062-29.102 20.838-39.539 7.8125-13.8-21.175 10.9-39.676 12.125-60.238zm-343.02 10.275c-12.1 7.7875 18.862 3.1875 0 0zm-9.002 2.75c-1.1626-0.062-2.6551 0.064-4.5371 0.4375-3.7949 18.34 15.776 0.1639 4.5371-0.4375zm522.8 0.418c-0.2656-0.019-0.548-0.01-0.8496 0.031-4.375 3.3625-4.2242 14.051 4.2383 9.9258 0.6445-2.8945 0.5955-9.6676-3.3887-9.957zm11.412 0.3203c-4.275 2.7125-2.175 10.675 3.1875 9.2871 5.65-2.3375 0.1375-7.7621-3.1875-9.2871zm-376.33 2.3613c-0.2571-0.013-0.5328 0-0.8281 0.051-5.8125 3.1375-1.5617 11.55 4.4258 9.5996-0.023-2.6719 0.26-9.4518-3.5977-9.6504zm11.203 2.2988c-0.9415 0.019-2.0254 0.111-3.2676 0.2891-0.6328 15.434 17.389-0.5759 3.2676-0.2891zm-159.22 0.4512c0.7125 7.2125-13.787 2.8-8.1621 9.5625 7.6125 6.85 19.4-10.05 8.1621-9.5625zm512.01 7.0371c-1.625 8.5625 15.349 9.3004 13.674 0.1504-4.6375 2.7-8.9863 1.5371-13.674-0.1504zm-365.05 2.6758c-1.4625 8.55 14.763 8.3379 13.525 0.025-4.5125 0.425-9.0379 0.4371-13.525-0.025zm207.54 2.4082c-1.2706-0.1175-2.6894 0.3535-4.2207 1.6797-9.15 5.7 5.4512 3.2492 6.6387 9.3867 7.0137 7.3406 4.4432-10.432-2.418-11.066zm-10.697 6.3242c-0.4395-0.01-0.9125 0.076-1.4219 0.2793-7.7125 4.5375 1.2109 11.589 6.8359 7.1641-0.8969-2.5813-2.3375-7.3743-5.414-7.4434zm9.625 7.3711c-0.3748-0.011-0.7782 0-1.211 0.022-2.7125 17.45 12.829 0.3163 1.211-0.022zm136.49 67.887c5.2575-0.104 10.414 1.7719 15.303 3.6094-26.425 100.71-50.012 202.42-76.762 302.87-21.5 4.7875-47.125 0.1887-70.125 2.2637 19.288-92.912 37.188-186.14 55.625-279.18 0.3125-12.562 16.674-5.3629 24.574-8.1504 18.838-0.6875 33.875-11.975 49.125-21.25 0.7547-0.1016 1.5087-0.157 2.2598-0.1719zm-467.4 0.3321c6.1944 0.2042 9.9562 7.1254 15.978 8.9394 26.038 15.225 58.013 18.189 86.9 10.889 17.288 96.175 36.85 192.05 53.812 288.32-27.712-0.25-55.412 0.1262-83.1-0.1738-26.825-101.92-51.625-205.51-77.312-307.33 1.3437-0.498 2.5736-0.6901 3.7207-0.6523zm130.15 3.6406c14.738 4.325 27.249 16.862 43.611 18.574 23.25 10.288 48.05 3.225 69.875-6.5625 0.4 97.587-2.825 194.83-3.25 292.33-22.312-0.175-44.725 0.7875-66.975-0.3125-16.625-97.875-37.388-195.31-54.213-293.14 0.6625-5.3625 8.1762-6.2492 10.951-10.887zm224.07 7.5098c7.7237 0.3459 15.387 6.748 23.555 7.0644-20.575 95.725-36.35 192.41-58.062 287.83-18.675 4.8875-42.326 0.7234-62.801 1.8984 0.7-97.362 4.0008-194.55 2.2383-292.15 30.3 7.0875 66.763 16.012 93.525-4.625 0.5156-0.034 1.03-0.039 1.5449-0.016z"/>
</g>
</svg>
