<?xml version="1.0" encoding="UTF-8" standalone="no"?>
<svg id="svg2" xmlns:rdf="http://www.w3.org/1999/02/22-rdf-syntax-ns#" xmlns="http://www.w3.org/2000/svg" height="209.51mm" width="210.91mm" version="1.1" xmlns:cc="http://creativecommons.org/ns#" xmlns:dc="http://purl.org/dc/elements/1.1/" viewBox="0 0 747.3042 742.37446">
<g id="layer1" transform="translate(339.37 -212.6)">
<path id="path6451" d="m191.27 212.61c-2.3025-0.0522-4.6863 0.14805-7.1484 0.63086-33.612 0.475-44 41.6-35.4 68.188 4.0375 11.912-12.749 4.1996-15.611-1.3379-2.725-38.188-43.439-54.637-75.451-61.637-12.15-0.9375-39.762-10.562-38.512 9.6504 5.575 13.312 1.6367 29.425-10.551 37.287-73.137 26.362-158.25 34.962-216.39 91-36.812 27.538-65.738 66.851-76.312 112.24-16.8 12.362-36.375 24.787-45.1 45.012-18.612 28.825-9.1516 66.287 8.2109 93.475 22.675 29.05 65.301 40.938 99.951 30.275 24.675 100.4 49.762 200.69 74.938 301.03 2.6375 6.0875 1.2746 19.136 11.912 16.111 116.25-0.025 232.5-0.0117 348.75-0.0117 5.9625-10.75 7.3129-23.25 11.025-34.812 23.062-93.388 46.899-186.6 69.637-280.07 1.6875-3.6 5.6-3.0766 9.25-2.6641 47.662 4.25 97.637-32.625 102.29-81.287 5.2625-25.862-7.8988-51.338-23.674-70.15-9.5875-3.575-16.15-12.962-18.725-22.562-14.05-52.662-50.712-96.55-96.375-125.06 3.85-6.425 15.699-7.7375 19.199-16.562 20.6-13.662 27.55-48.112 8.2129-65.637-15.7-18.425-49.062-13.1-63.475 1.7246-3.761-20.232-18.395-44.314-40.652-44.818zm-153.67 19.79c25.55 2.2375 51.475 10.576 70.875 27.738 9.3 11.512 7.15 29.837 20.312 38.537 10 6.525 28.213 1.0637 31.4 16.139 6.25 17.662 18.887 31.75 27.574 48 22.675 1.7 42.714-12.714 64.539-15.414 44.613 25.975 80.774 66.864 95.699 117.1-0.1375 27 36.325 32.5 39.213 59.25 20.938 52.912-36.937 106.66-88.725 96.586-14.388 2.1125-28.138-16.275-41.688-7-26.05 27.112-69.451 26.314-100.99 9.3887-8.075-5.6625-12.499 6.9129-19.512 8.9629-25.088 9.4125-55.063 7.3117-77.15-8.5508-6.3125-5.575-11.912 2.9242-17.912 4.7617-24.375 14.312-55.438 15.112-80.738 2.75-9.7375-6.5875-20.025-12.274-30.375-17.824-7.3375 2.825-13.037 8.8125-18.225 14.562-36.7 20.175-79.925 6.0375-110.28-17.375-35.725 24.962-96.375 18.4-115.54-23.775-23.988-38.688 1.8238-91.162 43.674-102.26 11.662-73.775 74.439-126.22 138.08-157.04 45.575-19.038 94.375-28.026 141-43.863 19.875-7.8375 33.712-28.626 28.762-50.676zm32.057 82.449c-0.4027-0.009-0.8128-0.008-1.2304 0.002-11.988 0.1-15.863 10.936-19.613 19.486-16.462-6.6125-36.762 5.7391-29.188 25.102 11.2 15.212 30.899 21.423 49.074 22.648 9.1 2.1875 10.089-8.0863 13.014-13.736 9.4008-16.378 13.315-52.959-12.057-53.502zm-159.01 73.184c-5.9516-0.003-11.887 0.2625-17.756 1.2188-12.262 2.225-25.038 10.861-27.125 23.674 1.975 14.062 15.288 21.312 28.801 18.287-2.2125 17.6 18.549 28.651 32.574 18.889 14.662-17.575 5.5633-41.663 1.3633-61.676-5.9375-0.11875-11.906-0.38945-17.857-0.39258zm300.52 14.156c-1.4883 0.002-2.9945 0.22031-4.4961 0.6875-18.512 5.4125-30.425 22.049-41.1 36.637 11.138 18.425 29.25 42.912 54.188 36.012 15.375-5.5875 14.163-29.188-0.5996-34.688 5.0625-5.2 10.487-10.573 12.35-17.836-0.4156-10.216-9.924-20.824-20.342-20.812zm-185.3 44.13c-1.6891 0.0414-3.516 0.5293-5.5176 1.623-9.7375 2.0625-16.437 12.888-13.35 22.562 2.25 18.2 15.125 31.936 27.412 43.836 17.238-7.0875 35.825-16.375 44.5-34.037 7.55-14.562-11.837-32.974-25.574-24.199-10.598 11.495-15.647-10.075-27.471-9.7852zm-259.29 60.736c-1.6116-0.0343-3.2774 0.17266-4.9805 0.66016-19.45 8.65-17.625 34.063-9.9121 50.551 3.175 6.4125 4.2492 19.15 14.637 16.162 16.638-4.3375 41.938-2.025 48.588-21.938 7.7-16.712-13.637-31.236-28.287-22.174-0.1422-10.927-8.7641-23.022-20.045-23.262zm517.58 9.875c-1.0746-0.0209-2.1957 0.12696-3.3691 0.48633-12.975 0.0125-19.325 16.162-15.375 26.787 4.425 17.588 20.789 28.412 35.139 37.375 19.4-9.3625 43.186-29.451 35.736-53.738-6.325-14.7-26.525-12.661-34.062-0.17383-5.2828-2.1656-10.546-10.59-18.068-10.736zm-354.32 4.5977c-16.412 12.938-40.463 27.277-35.301 51.852 4.475 16.062 26.662 14.812 36.037 3.8242 9.725 9.4 31.463 13.849 36.275-2.8008 5.225-24.3-18.374-43.812-37.012-52.875zm224.01 6.5781c-1.5017 0.012-3.0637 0.32969-4.6856 1.0352-7.6375 0.15-12.612 14.775-19.699 7.5625-9.475-9.3875-30.362-5.0496-31.662 9.4004-0.475 23.162 21.624 37.925 40.111 47 19.075-10 36.762-31.775 32-54.662-4.1844-4.7023-9.5571-10.388-16.064-10.336zm-302.87 141.83c18.263-0.41639 26.639 29.552 6.373 35.578-24.025 10.1-36.725-28.087-12.338-34.412 2.0801-0.75351 4.0756-1.1229 5.9649-1.166zm388.75 0c18.263-0.41639 26.639 29.552 6.373 35.578-24.038 10.1-36.725-28.087-12.338-34.412 2.0801-0.75351 4.0756-1.1229 5.9649-1.166zm-155.38 0.29101c12.906 0.18731 23.335 17.124 14.814 27.963-7.05 13.212-29.636 10.236-34.236-3.6387-3.6125-9.95 3.6121-21.775 13.787-23.312 1.8969-0.72344 3.791-1.0385 5.6348-1.0117zm-77.26 0.0312c10.276 0.30823 18.997 10.045 19.387 20.244-2.9375 15.212-24.125 21.999-34.375 9.7363-10.487-9.375-2.4879-25.55 9.1621-29.125 1.9668-0.64649 3.9232-0.91255 5.8262-0.85547zm153.35 0.082c12.79 0.22747 24.979 15.618 16.678 27.037-7.25 11.738-26.688 12.861-33.5-0.0137-7.275-9.3 1.2363-23.912 11.361-26.137 1.7938-0.64219 3.6338-0.91921 5.4609-0.88672zm-233.28 0.13086c10.93-0.31496 21.484 9.6938 19.242 21.156-1.475 13.162-19.726 19.325-30.014 11.975-12.775-7.9375-8.4984-29.938 6.1016-32.338 1.5406-0.49219 3.1085-0.74797 4.6699-0.79297zm195.12 71.523c14.406-0.0185 28.626 21.084 13.978 30.883-11.05 14.375-35.199 1.3992-33.199-15.301 3.275-6.175 8.4879-11.701 14.775-14.863 1.4625-0.48984 2.955-0.71684 4.4453-0.71875zm-76.053 0.0645c14.649-0.23925 27.356 21.857 13.094 31.43-9.1125 10-26 6.0637-30.85-6.1113-5.425-10.025 3.3758-21.801 13.176-24.488 1.5293-0.54141 3.0646-0.80533 4.5801-0.83008zm-156.05 0.0195c8.4329 0.0579 15.742 7.791 19.465 14.91 4.25 16.888-23.225 31.038-33.438 15.426-11.788-9.1875-2.4375-25.825 9.1875-29.525 1.623-0.56836 3.2235-0.82126 4.7851-0.81055zm309.55 0.0137c13.85-0.39167 25.86 19.262 14.566 30.035-8.3 11.012-26.1 8.4734-31.688-3.8516-6.1375-10.162 2.5871-22.637 12.787-25.387 1.4484-0.50156 2.9012-0.75636 4.334-0.79688zm-232.46 0.0117c13.999-0.29527 26.061 20.34 13.793 30.547-11.075 14.825-36.312 2.0383-34.262-15.074 3.4875-6.375 8.8484-12.638 16.086-14.676 1.4649-0.51328 2.9346-0.76633 4.3828-0.79688zm36.064 72.402c13.84-0.11848 28.573 18.944 15.24 29.445-7.8125 11.838-24.75 8.8-31.287-2.75-8.7875-10.462 2.6875-21.474 11.812-26.012 1.3805-0.45351 2.8027-0.67134 4.2344-0.68359zm-75.43 0.0547c7.1247 0.20399 13.714 6.0789 17.695 11.441 8.5625 18.675-21.724 36.049-32.486 18.262-10.488-9.55-2.3887-25.913 9.7988-28.863 1.6758-0.63281 3.348-0.88692 4.9922-0.83984zm155.99 0.0742c17.867-0.33831 26.043 28.302 6.8223 35.504-23.638 11.175-38.25-30.137-11.562-34.762 1.6426-0.47558 3.2261-0.71352 4.7402-0.74219zm75.955 0.14844c10.431 0.0733 20.941 10.106 20.504 20.693-4.0125 12.525-22.962 23.45-32.75 10.588-12.712-9.1-5.4375-26.951 7.8125-30.676 1.4547-0.42344 2.9435-0.61594 4.4336-0.60547zm-37.611 69.754c14.066-0.32117 27.802 18.332 15.104 29.389-8.65 13.362-28.15 7.525-32.938-6.1875-4.875-10.238 5.1738-18.675 13.486-22.463 1.4332-0.46875 2.8926-0.70506 4.3477-0.73828zm-154.56 0.0781c14.935-0.15383 25.346 21.159 12.104 31.762-11.812 13.488-34.1-0.375-32.787-16.312 1.9625-7.5375 8.8863-12.351 15.924-14.676 1.6207-0.51094 3.2147-0.75752 4.7598-0.77344zm75.803 0.18946c10.153-0.0701 20.642 8.9488 20.5 19.471-2.9625 14.962-25.287 25-34.637 9.9629-9.625-9.825-2.8746-26.099 9.8379-28.824 1.4047-0.40312 2.8484-0.59936 4.2988-0.60937z"/>
</g>
</svg>
