<?xml version="1.0" encoding="UTF-8" standalone="no"?>
<svg id="svg2" xmlns:rdf="http://www.w3.org/1999/02/22-rdf-syntax-ns#" xmlns="http://www.w3.org/2000/svg" height="211.98mm" width="210.76mm" version="1.1" xmlns:cc="http://creativecommons.org/ns#" xmlns:dc="http://purl.org/dc/elements/1.1/" viewBox="0 0 746.79003 751.10324">
<g id="layer1" transform="translate(1630.5 343.19)">
<path id="path6509" d="m-1089.3-343.19c-1.0519-0.018-2.1868 0.062-3.4063 0.2539-10.7-1.075-10.013 12.262-15.588 15.449-7.0625-10.712-26.762-3.1363-24.137 9.8262-2.2125 16.588 19.638 12.575 24.562 24.463 5.375 14.575 13.588 28.362 16.176 43.787-6.3375 4.6375-14.426 3.1504-20.826-0.5371-13.312-8.05-31.887-3.3508-43.85-13.801-7.65-13.025-7.2742-32.15-22.574-39.775-23.85-20.375-56.813-26-87.176-26.25-14.725 7.525 2.7758 25.864-6.0742 37.264-12.088 16.125-33.425 20.948-52.312 24.086-46.288 14.212-94.513 24.951-136.61 49.676-51.862 33.35-101.79 79.212-115.12 142.26-15.812 9.0375-30.9 20.963-41.25 36.363-21.012 31.737-15.088 74.713 7.125 104.24 25.562 28.6 68.813 37.225 104.74 27.412 23.5 100.64 50.662 200.32 74.324 300.94 1.8 6.125 1.8746 17.95 11.85 14.975 116.12-0.1125 232.26 0.2254 348.39-0.1621 6.225-3.975 6.6367-11.838 7.4492-18.4 25.688-98.725 49.312-198.5 74.949-296.82 60.762 4.8625 123.21-57.676 99.988-119.58-6.8125-19.3-20.2-34.211-36.4-46.424-13.475-64.688-62.161-116.4-119.11-146.74-4.45-5.1125-12.138-16.399 0.5742-16.824 15.362-4.025 28.512-17.039 44.875-15.639 7.1375 6.2875 17.663 5.6371 25.676 1.1621 7.5375-8.675 0.9746-23.748-10.275-24.961 4.1625-11.188 2.9367-28.689-12.738-26.852-19.663-2.6125-10.588 26.777-28.275 26.852-13.375 5.025-26.149 11.161-39.299 16.711-4.45-17.2-15.876-32.25-19.613-49.438 7.125-10.535 9.7468-33.242-6.0312-33.516zm-164.66 29.779c26.55 2.025 52.988 10.713 72.438 28.838 4.7625 13.612 8.1879 29.336 20.338 38.424 11.45 3.525 23.499 4.9129 34.512 9.9629-11.462 13.712-25.225-7.1633-39.475 0.9492-11.15 8.4375-2.5504 25.664 9.4746 26.977 1.775 5.2125-6.3246 8.2496-4.0996 13.975 2.4375 9.8 17.813 17.699 24.926 8.2988 6.925-4.825 3.0238-17.837 13.674-18.85 15.2-4.35 28.951-18.8 45.676-13.838 5.6875 15.188 14.287 29.525 17.574 45.562-5.825 8.0875-9.8371 22.376 0.7129 28.363 6.8125 1.9875 20.062 2.5504 21.938-6.8496 1.5375-15.025 16.013 7.4504 21.963-4.0371 12.138-10.412 2.2992-27.539-11.801-29.389-4.3125 1.325-12.638-8.6488-6.625-9.9238 31.525 21.55 62.025 48.799 77.375 85.299 12.838 16.038 6.5 40.789 24.75 52.764 18.738 11.738 29.326 34.225 30.863 55.787-0.525 55.788-68.5 93.975-117.22 67.9-14.9-8.3625-23.939 7.1863-34.951 13.611-28.65 12.788-61.5 7.2133-88.938-5.1367-26.838 22.088-67.586 18.975-95.711-0.025-9.2 3.0125-17.688 9.4383-27.65 11.488-30.712 16.025-66.55 1.1988-91.912-18.264-14.625-7.9375-18.8 16.9-33.062 15.875-33.925 14.338-71.226 1.6762-99.102-19.486-10.575-0.2125-18.812 10.323-29.762 10.586-22.275 9.7625-45.812-0.1984-66.188-9.8984-35.225-23.875-41.649-82.564-7.5742-109.98 8.675-15.612 37.224-11.849 33.824-34.736 11.175-48.988 49.325-85.164 87.787-113.7 45.4-33.838 102.37-44.7 155.41-60.912 29.55-4.0375 68.7-22.837 60.838-59.637zm-3.1055 64.275c-0.9185 0.059-1.9789 0.3629-3.207 0.9746-6.5625 2.5875-1.6625 10.411 1.125 14.361-3.525 6.05-3.725 13.888-7.375 19.588-5.55-0.275-10.749-4.0125-16.262-5.375-7.475-0.95-6.1008-15.787-15.926-9.3867-6.15 3.8625 7.7133 11.374-0.6992 11.049-6.3875-2.9625-2.9008 10.312-1.8008 11.25 10.75-3.775 20.976 1.3125 31.014 4.6875-0.1125 9.55-3.5629 21.314-12.963 25.414-4.975 9.8 6.475 11.275 10.688 4.9746-0.1875 5.4875 2.6117 12.113 9.6992 7.5879 1.65-8.25-2.6992-18.164 2.7383-26.227 1.15-14.788 17.825-0.7875 24.312 3.5 3.7 10.462 18.212 1.6379 8.0996-5.7246 5.5125 0.075 12.663-3.1117 7.8633-10.137-10.175-3.1375-28.163 3.1875-33.863-8.625 6.1125-7.6625 1.8742-20.838 12.887-23.775 3.7-8.5375-5.1488-9.5004-10.236-6.4004-0.7922-3.6664-2.1132-7.9927-6.0938-7.7363zm-133.13 74.623c-1.1057 0-2.6379 0.3926-4.8223 1.3145-2.125 8.275-4.0113 22.587-11.111 31.412-8.675-4.8875-20.1-9.0496-22.4-19.537-1.8375-6.4625-11.425-1.6508-7.6504 4.0117 3.95 7.2875-14.875 5.9508-7.0625 14.426 10.862 1.65 21.912 4.7617 30.824 11.824-4.3625 8.125-5.1992 20.887-16.824 21.6-8.775 6 1.1 15.538 8.25 9.6758-4.15 8.025 7.9004 9.1496 10.775 6.0371-5.45-11.325 5.5246-36.213 19.725-24.625 9.525 1.625 8.9629 22.888 19.525 14.676-5.5875-9.75 14.611-12.738 3.9863-20.926-11.725 2.0375-19.088-5.9508-28.875-10.426 5.35-7.9 6.6516-19.537 17.227-22.449 8.2875-4.325-0.2504-13.637-7.0254-10.449-1.7438-3.0844-1.224-6.5703-4.541-6.5645zm250.71 17.65c-4.175 0.8125-6.2988 4.2129-4.2988 8.1504-5.0375-6.3125-16.975-3.7996-11.812 6.0879 10.412 3.975 10.437 16.825 12.949 26.037-8.4 2.0875-16.674 7.725-25.486 3.6875-11.588-5.7-11.889 13.588-1.4512 11.838-11.138 3.7375 1.8137 18.013 7.4512 7.75 8.3125-18.313 36.162-8.2246 27.637 11.275-9.6125 8.9 9.4246 16.562 8.5996 4.4375 5.275 6.3625 16.201 2.1746 12.613-6.3379-10.062-4.225-11.612-15.437-15.188-24.637 7.75-5.025 17.288-9.8 26.688-6.375 6.6625 5.4375 11.925-8.0633 5.7246-10.051-8.45-1.1625 5.4496-9.2133-3.5254-12.801-9.4375-0.35-13.088 14.7-23.963 14.338-11.475 4.85-9.4367-11.512-13.762-17.887 3.225-5.2375 7.4117-15.826-2.1758-15.514zm-110.97 45.428c-0.7377 0.027-1.5918 0.2054-2.5879 0.5722-3.95 9.8-5.9367 22.613-16.949 27.025-7.0125-2.075-11.75-9.325-15.812-15.125 4.4875-5.15-1.2125-13.15-7.25-12-4.0125 1.75-2.4617 6.1508-2.5117 9.5508-7.425-2.6375-13.4 5.1996-6.9629 10.287 9.4125 1.875 19.9 8.6633 22.412 18.238-6.425 7.575-13.338 16.261-23.9 17.549-3.8875 8 3.9137 9.0625 9.1387 8.9375-7.05 6.3125 6.5488 15.076 8.9238 5.3262 0.725-9.3375 7.8871-20.138 17.037-23.926 3.1625 5.3375 6.2387 11.251 12.076 14.676-0.9875 5.125 6.45 20.086 11.125 10.586-1.775-9.45 17.262-5.4746 9.1621-16.225-10.638-0.9625-16.163-9.9867-24.15-16.074-0.35-15.625 30.764-15.764 23.701-28.326-9.9914 2.6848-6.3195-11.332-13.451-11.072zm244.66 47.898c-0.8577 0.031-1.9317 0.4687-3.2969 1.5117-7.625 3.65 0.5496 10.437 3.6621 14.225 3.9125 15.8-6.4242 31.851-23.387 20.863-4.3625-12.975-22.088 0.5129-8.5 6.7129-8.375 1.45-5.4625 18.599 2.4375 11.637 12.8-14.037 40.612-3.4746 25.037 17.15-12.3 9.475 6.5992 18.974 8.6992 4.8867-1.675 11.388 11.751 8.8008 12.613 0.4258-9.7625-6.5625-7.8387-20.512-4.6387-30.074 8.75-0.2125 19.864-2.9504 25.264 5.7871 7.925 7.125 14.125-10.2 3.7871-8.3125 7.05-2.1625 8.1492-17.638-1.0508-14.525-12.75 15.425-42.549 3.7375-26.611-18.25 12.512-3.725-0.5258-18.288-7.0508-7.7129-3.9973 7.2457-2.3335-4.4894-6.9648-4.3242zm-492.29 7.8808c-0.9244 0-2.0399 0.3282-3.4024 1.0938-0.8875 9.5-5.1378 22.462-12.15 31.562-10.15-5.7625-21.612-10.7-23.975-23.162-8.075 0.4375-8.0992 8.3367-3.5117 13.324-5.7625-3.325-15.962 4.3496-8.8125 9.2871 10.25 1.375 22.375 3.85 29.812 11.438 0.7 14.35-14.638 17.888-19.213 28.176 3.2625 9.35 9.7489 0.4754 12.924 1.2754-5.375 7.425 1.4632 12.649 8.6757 7.5117-4.525-10.462 2.1379-20.349 8.4629-28.387 11.788 0.7125 20.35 9.8125 24.963 19.438 12.538 4.825 0.675-18.962 11-11.537 4.75-0.25 4.2117-11.464-1.9883-10.514-10.612 2.1-17.838-5.4992-26.676-9.3867 0.9625-7.2375 5.1875-14.038 9.25-19.963 9.9 0.575 13.276-12.976 4.539-15.551-6.3547 10.959-3.4277-4.6379-9.8984-4.6055zm119.5 18.84c-0.8837-0.037-1.921 0.1973-3.1523 0.791-6.55 7.475 6.2617 13.775 2.0117 22.287 6.4375 20.012-21.186 13.752-27.924 3.4141-11.075-6.5125-12.839 8.7117-4.0762 12.824-11.762-3.3875-7.3617 15.938 3.1133 9.4258 5.925-7.8625 16.963 0.1359 24.926-0.9766 3.25 9.9375 0.4992 22.001-7.3008 28.326-2.35 17.838 17.05-4.9508 14.037 10.137 13.062 3.7125 9.1375-10.224 4.875-16.236 1.0125-6.6125 1.9004-13.525 1.7754-20.312 8.6875 3.7 21.974-0.8754 25.324 10.037 9.0125 4.9125 13.175-6.9262 6.375-11.701 9.1875-0.875 4.35-16.574-3.8125-11.424-8.25 9.1375-32.762 4.1746-25.188-13.15-3.95-8.8125 11.989-11.412 4.9512-19.887-3.3625-4.7625-7.4133-0.1379-11.051 1.6621-0.9656-2.5594-2.2334-5.1061-4.8848-5.2168zm204.81 7.3789c-0.2366-0.01-0.482 0-0.7344 0.012-5.0625-0.025-4.3 11.089-8.75 6.4141-4.675-6.9125-12.525 6.0867-5.6504 9.0117 10.438 4.125 8.7504 17.112 11.463 26.137-10.188 4.525-21.149 4.1258-31.949 3.1133-7.65 1.875-0.8258 13.438 5.6992 11.863-5.0875 2.2625-8.3504 7.1246-1.9629 10.287 11.338-1.525 18.214-17.05 32.477-13.438 1.475 8.1375 9.2496 17.512 2.3496 25.037-5.6375 8.55 12.65 10.162 11.162 0.7246 4.5375 7.975 16.474 0.4621 10.637-6.7129-9.2875-3.9875-10.986-14.637-14.236-23.137 7.1625-15.013 39.125 4.9125 34.438-16.938-12.588 4.575 4.7242-11.024-7.3008-13.887-8.7875 6.075-15.875 17.875-28.938 14.975-2.8875-5.85-7.4617-12.975-6.6992-19.537 5.1101-4.1778 5.3288-13.741-2.0039-13.926zm-31.934 146.37c10.276 0.3083 18.996 10.045 19.387 20.244-2.9375 15.212-24.125 21.999-34.375 9.7363-10.488-9.375-2.4879-25.55 9.1621-29.125 1.9668-0.6465 3.9232-0.9125 5.8262-0.8555zm-154.96 0.012c17.945 0.2118 25 30.742 4.2246 35.568-23.812 8.8375-35.6-30.462-10.125-34.6 2.0707-0.6891 4.044-0.9907 5.9004-0.9687zm231.94 0c12.246-0.092 22.417 14.162 16.664 25.668-5.6875 15.175-30.849 13.661-35.799-1.3887-3.6125-9.95 3.6113-21.788 13.799-23.312 1.7938-0.6484 3.5865-0.9537 5.3359-0.9668zm-153.86 0.014c11.97-0.1485 22.033 13.306 17.166 24.779-4.675 15.35-30.801 15.6-35.139-0.125-4.275-9.1625 2.5262-22.5 12.764-23.713 1.75-0.6219 3.4989-0.9202 5.209-0.9414zm-156.01 0.055c12.79 0.2252 24.979 15.607 16.678 27.037-7.25 11.738-26.688 12.861-33.5-0.014-7.275-9.3125 1.2363-23.912 11.361-26.137 1.7938-0.6422 3.6338-0.9189 5.4609-0.8867zm389.07 0.1191c10.237 0.3145 19.203 9.6543 19.467 20.043-2.85 16.075-27.875 22.825-36.162 7.6875-7.5125-9.175-0.2117-25.251 10.926-26.926 1.9355-0.6113 3.8738-0.8629 5.7695-0.8047zm-40.826 69.008c14.752 0 28.088 22.018 13.418 31.76-11.088 12.162-33.012 1.8879-32.824-13.975 2.0375-7.45 8.025-13.614 14.812-17.039 1.5269-0.5097 3.0677-0.7457 4.5937-0.7461zm-152.55 0.1c10.207-0.1803 18.447 11.355 19.07 20.947-2.85 13.825-21.312 21.974-32.037 11.262-14.025-8.375-5.1242-28.338 8.4883-31.375 1.5219-0.5437 3.0204-0.8082 4.4785-0.834zm-79.113 0.012c16.918 0.3449 27.486 27.629 8.0586 34.822-24.488 13.612-38.961-27.399-13.486-34.012 1.8598-0.593 3.6776-0.8462 5.4277-0.8105zm-76.188 0.031c12.449 0.5607 22.662 16.961 15.334 28.041-5.6 8.8125-19.4 12.612-27.713 5.125-14.675-7.0875-7.5238-29.75 6.9512-32.375 1.825-0.6281 3.6493-0.8711 5.4277-0.791zm231.41 0.041c13.795-0.406 26.004 18.507 15.74 29.914-8.4 8.6625-23.562 10.174-30.875-0.6387-8.5875-9.7125-0.6363-25.575 10.826-28.5 1.4379-0.4851 2.8815-0.7334 4.3086-0.7754zm-39.949 72.365c14.407 0.016 28.575 20.853 13.814 30.697-10.812 15.1-34.638 1.025-33.025-15.125 3.25-6.2 8.4762-11.712 14.764-14.875 1.4637-0.4793 2.9569-0.6989 4.4473-0.6972zm77.82 0.092c17.78-0.4781 26.445 28.755 6.832 35.52-23.662 11.138-37.862-29.727-11.537-34.727 1.626-0.499 3.1983-0.7524 4.7051-0.7929zm-156.38 0.014c14.597-0.2615 27.179 21.288 13.008 31.279-11.938 14.125-34.101 0.6129-32.389-15.787 3.4875-5.9875 7.3125-13.299 14.812-14.674 1.5258-0.5309 3.0583-0.7913 4.5684-0.8184zm-76.566 0.025c13.734-0.1629 26.573 20.505 13.41 30.043-10.288 16.1-35.549 1.8359-33.762-14.602 3.4625-6.4 8.8504-12.65 16.088-14.688 1.4121-0.498 2.8429-0.737 4.2637-0.7539zm195.74 69.914c7.1247 0.204 13.714 6.0789 17.695 11.441 8.5625 18.675-21.711 36.049-32.486 18.262-10.488-9.55-2.3887-25.913 9.7988-28.863 1.6758-0.6328 3.348-0.8869 4.9922-0.8398zm-79.059 0.053c14.796-0.083 26.017 21.634 12.129 31.738-11.412 13.275-33.412 0.063-33-15.287 1.85-7.6875 9.075-13.112 16.188-15.688 1.5832-0.5121 3.153-0.7551 4.6836-0.7637zm-77.916 0.1563c10.203-0.06 20.418 9.3574 20.658 19.693-2.8625 14.3-24.438 24.738-33.926 10.25-11.812-9.2375-3.1242-25.75 8.9258-29.312 1.4281-0.4203 2.8842-0.6223 4.3418-0.6308z"/>
</g>
</svg>
