<?xml version="1.0" encoding="UTF-8" standalone="no"?>
<svg id="svg2" xmlns:rdf="http://www.w3.org/1999/02/22-rdf-syntax-ns#" xmlns="http://www.w3.org/2000/svg" height="214.33mm" width="210.77mm" version="1.1" xmlns:cc="http://creativecommons.org/ns#" xmlns:dc="http://purl.org/dc/elements/1.1/" viewBox="0 0 746.84015 759.43501">
<g id="layer1" transform="translate(110.56 -155.5)">
<g id="g4234">
<g>
<path id="path4175" d="m265.76 190.14c-1.6236 9.0456 1.0937 19.5-4.6898 27.701-12.185 19.47-35.625 27.932-57.064 32.576-44.794 11.97-90.63 23.029-131.65 45.328-27.135 15.502-51.798 35.473-72.949 58.449-20.94 24.08-37.844 53.184-41.756 85.313-23.099 9.0731-43.945 27.662-51.279 51.884-5.4982 21.842 0.08009 45.866 12.548 64.372 11.053 16.375 30.651 24.08 49.215 28.199 21.461 4.1354 42.13-5.1478 61.732-12.345 10.634 5.4454 20.483 12.757 31.896 16.811 21.589 9.0102 46.283 10.839 68.557 3.1591 11.247-1.779 16.684-14.231 26.702-17.993 12.375 2.7428 21.371 12.978 33.27 17.199 15.537 7.0728 33.167 11.577 50.082 6.877 14.708-2.8557 28.293-9.429 41.716-15.83 20.884 11.713 45.509 18.2 69.329 13 9.1357-0.89414 17.156-5.2818 24.127-11.013 5.2504-4.6866 11.518 1.513 16.842 2.9587 18.034 8.2427 38.522 6.269 57.744 5.2748 15.925-1.5745 27.985-13.242 40.527-21.938 21.524 6.6549 44.746 14.939 67.329 8.3807 19.382-5.0021 36.837-16.507 48.634-32.734 17.582-21.55 20.358-54.573 3.8211-77.491-8.0737-12.588-20.524-21.771-30.236-32.587-9.3624-42.266-32.945-82.189-67.718-108.18-4.4885 2.3448-7.3979 9.0674-13.546 9.4484-24.974 3.4967-48.446-8.7323-70.838-18.204-17.569-8.534-38.022-18.367-45.126-38.069 0.42683-4.5208 2.3448-9.7351-0.72118-14.026-8.9474-8.3298-25.079-6.3251-31.05-18.604-6.8896-12.316-8.4339-28.38-21.309-36.557-18.321-13.605-41.388-19.342-63.618-21.509l-0.51675 0.14625z" fill="#ffff7a"/>
<path id="path4166" d="m496.66 585.66c-7.5665 0.77688-13.065 6.9572-19.793 9.9316-13.024 7.3831-27.644 12.975-42.551 13.35-5.0772 0.59287-10.164-1.0593-15.174-0.55078-2.6397 2.9447-2.1127 7.6367-3.3672 11.277-11.38 56.865-21.29 114-32.551 170.88-2.6247 17.618-5.8997 35.025-9.8125 52.41-3.8255 18.237-7.9605 36.695-8.3867 55.334 1.8066 2.9988 6.5771 0.86167 9.5938 1.5879 17.414-0.00076 34.98 1.1042 52.287-1.2363 4.7219-0.1844 4.6825-5.6724 5.8476-9.0117 23.651-91.398 45.753-183.18 69.209-274.63 1.5624-8.2003 5.296-17.052 2.2656-25.322-1.3218-2.9026-4.5688-4.0554-7.5684-4.0137zm-470.1 2.5117c-0.4434-0.004-0.88703 0.00008-1.3301 0.0137-3.2513-0.16827-7.87 0.98273-7.4121 5.1738 0.71392 5.2167 3.0177 10.203 4.0234 15.396 24.897 96.4 47.724 193.37 73.408 289.58 2.3121 2.9433 7.037 0.79022 10.35 1.502 24.625 0.0772 49.318 0.79278 73.893-1.0645 2.9304 0.22569 3.9753-2.8119 2.9902-5.1894-12.508-81.426-29.942-161.99-44.676-243.02-2.8226-13.698-4.4638-27.636-7.7871-41.227-1.4415-3.8219-6.2728-1.1199-9.1641-1.1953-21.449 2.836-44.114 2.1497-64.242-6.9297-9.0496-3.5027-16.557-10.485-26.078-12.746-1.316-0.1961-2.6444-0.28907-3.9746-0.30078zm133.59 1.1094c-5.4792 1.2773-9.6597 5.7304-13.723 9.3887-3.0232 2.7399-3.8918 6.9657-2.4531 10.76 17.667 96.389 35.682 192.72 54.889 288.82 2.1901 3.1214 7.0763 0.82743 10.393 1.5312 19.55-0.15525 39.222 0.30957 58.695-0.23242 2.7776-2.184 0.7344-6.9548 1.4141-10.178 0.6714-94.339 2.944-188.66 3.3477-283 1.3359-4.5009-3.273-5.3116-5.998-2.625-26.662 13.634-59.396 10.713-85.688-3.002-6.3727-2.9753-12.34-6.4546-17.852-10.785-0.92901-0.47698-1.977-0.74901-3.0254-0.67383zm220.62 8.2539-0.59961 0.10937-0.14257 0.0254c-11.358 8.0095-25.296 12.105-39.01 12.287-18.157 0.61822-36.221-3.8081-53.715-7.9277-3.417 1.2788-1.5839 5.9738-2.1973 8.7715-0.0549 42.879 0.12597 85.759-0.63672 128.63-0.65703 52.808-1.6101 105.61-2.0781 158.42 1.2976 3.6148 6.2854 1.2347 9.209 1.918 19.553-0.15526 39.229 0.30954 58.705-0.23242 2.5561-1.9146 1.4945-6.2316 2.502-9.1602 14.749-92.85 34.551-184.79 50.848-277.38 1.4151-3.8139-0.41599-7.7749-3.7266-9.8652-5.6736-3.6236-12.65-4.747-19.158-5.6055z" fill="#ccc"/>
<path id="path4177" d="m502.33 162.42c-0.13531-0.002-0.27219 0.009-0.41016 0.0312-17.862 6.4163-34.883 16.614-47.879 30.592-2.0535 4.6746 5.4571 5.9225 8.0488 8.377 15.171 8.2904 30.279 19.313 48.076 20.35 5.9396-2.0986 3.6834-10.241 4-15.104-1.7258-14.474-3.4991-29.471-9.498-42.863-0.52672-0.77998-1.3907-1.369-2.3379-1.3828zm-92.891 79.461c-0.18511-0.007-0.37101-0.002-0.55664 0.0195-7.2638 4.4882-11.621 12.797-16.754 19.506-5.1394 6.8493-5.9873 16.082-4.4004 24.141 28.881 29.401 69.59 43.426 109.61 48.936 5.7283-3.5976 7.8959-11.158 10.812-17.01 3.1235-9.5474 6.1683-20.952 1.5176-30.33-33.187-14.186-64.789-32.166-98.59-44.971-0.53593-0.13648-1.0853-0.26967-1.6406-0.29101zm-164.25 39.848c-4.409 0.34569-8.1966 3.1282-12.697 3.248-7.7963 1.8348-16.705 4.4256-21.262 11.568-2.8385 5.3025-0.85169 12.147 2.8789 16.482 5.2325 4.7158 12.624 1.4081 18.26-0.65625 5.9738-2.3477 12.007-5.084 18.549-5.0371 6.3646-0.73471 9.6566-8.0968 7.6524-13.777-1.3904-6.2268-6.5187-12.196-13.381-11.828zm7.8066 50.719c-0.23043-0.008-0.4627-0.002-0.69336 0.0195-5.4919 0.9847-11.406 1.6878-16.199 4.7305-2.6301 1.399-2.4753 4.8069-0.24023 6.4805 4.5538 4.4338 8.5337 9.7538 13.957 13.129 3.3316 0.48706 3.9609-3.9767 5.3066-6.127 1.8662-4.9104 5.205-11.071 2.0586-16.131-1.0069-1.2712-2.5764-2.0433-4.1894-2.1016zm-139.04 11.086c-0.13782-0.008-0.27772-0.007-0.41602 0.006-4.0209 1.5591-6.0885 5.9949-8.8027 9.1191-2.0075 3.2629-5.0957 6.3248-5.5879 10.25 1.0471 3.1725 5.4461 2.5757 8.0391 3.6465 5.3024 1.1876 11.062 1.3557 16.314-0.0859 3.703-1.4701 0.44283-5.7118 0.0156-8.4375-1.9596-5.0572-3.7016-10.965-8.3672-14.182-0.37507-0.17532-0.78186-0.29119-1.1953-0.31641zm301.93 11.82c-0.17682-0.0106-0.35608-0.0114-0.53711 0.002-4.4635 0.9415-9.6161 1.3824-13.152 4.5273-2.0191 3.2133-0.66177 7.4215-1.1973 11.01-0.012 8.8751-0.44819 17.814-0.0293 26.648 1.7602 4.045 4.395 8.8835 9.4297 9.0293 4.634 0.30127 10.051 0.17066 13.809-2.8555 4.3926-7.6525 4.8814-16.971 4.6016-25.615-0.6954-7.7734-2.9939-16.475-9.5117-21.4-1.038-0.6492-2.1743-1.2714-3.4121-1.3457zm-44.016 14.838c-5.0293 0.60043-8.5636 4.8891-13.027 6.9219-3.2628 1.8753-7.5461 5.7713-5.5527 9.9102 1.7896 1.6916 4.6858 1.3011 6.6973 2.8438 4.9721 2.2215 10.287 6.2085 15.963 4.1582 1.4735-5.2285 1.1805-10.96 1.5293-16.42 0.6222-3.6817-1.5588-7.537-5.6094-7.4141zm-283.75 19.17c-3.4747 0.66272-4.1336 5.0528-5.3047 7.8477-2.4289 7.2223 1.9962 14.961 8.5938 18.1 9.9003 5.2011 21.793 5.5119 32.492 2.9629 3.7062-1.4682 9.3272-2.592 9.6875-7.4434 1.4179-6.2829-1.2616-13.426-7.2656-16.262-10.173-5.0692-21.993-3.7322-32.936-4.8027-1.761-0.0669-3.5145-0.29037-5.2676-0.40235zm170.42 31.627c-4.9857 0.99411-7.3739 6.4734-9.0156 10.768-1.2628 4.016-2.1616 10.203 2.5527 12.332 4.3015 1.5352 8.7877-0.33393 13.205-0.38672 4.2494-0.0978 6.4542-4.7341 5.3496-8.4766-1.0404-5.9841-5.3432-13.795-12.092-14.236zm152.7 41.471c-5.2074 1.0199-8.9848 5.386-13.332 8.1387-1.7848 1.9119-6.5486 3.3828-4.8887 6.6562 5.6762 5.8173 13.128 11.941 21.789 11.016 3.3733-1.3955 1.4892-6.0364 2.1133-8.7676-0.3809-5.3201 1.7164-12.202-2.8867-16.24-0.802-0.5849-1.806-0.86582-2.7949-0.80273zm-141.07 3.7363c-8.826 0.30942-17.767 0.55002-26.447 2.2227-6.0526 2.484-6.3479 10.198-5.3809 15.713 0.1194 3.1521 1.3543 6.928 5.0098 7.2969 9.8598 2.2915 20.191 2.1496 30.184 0.93945 6.5732-1.2213 13.806-5.9386 13.645-13.371-0.2815-4.185-1.1988-9.5155-5.2617-11.654-3.7441-1.2878-7.8496-1.057-11.748-1.1465zm-159.07 0.69336c-6.4209 0.35876-9.9264 6.9696-12.109 12.24-2.663 7.6027-1.8912 15.898-2.1152 23.824 0 5.4672 0.5631 12.547 6.4082 14.961 6.4272 3.172 16.407 0.67807 18.369-6.8203 0.9005-12.202 7.1264-24.267 3.9297-36.586-1.7775-6.1692-8.9126-7.6164-14.482-7.6191zm400.17 0.0762c-6.3479-0.42542-10.594 6.1505-10.361 11.947 0.021 3.7126-0.76868 7.8709 1.1953 11.197 13.783 3.6624 27.756 6.9435 41.816 9.4336 3.8081-0.61424 5.2256-5.0617 6.7344-8.1094 2.9296-6.5423-1.2643-13.753-7.0703-16.994-9.6329-5.7752-21.246-7.4806-32.314-7.4746zm-500.31 2.9102c-0.1533-0.007-0.30741-0.006-0.46094 0.004-5.3517 1.061-9.8257 4.7113-14.279 7.6797-3.217 1.9885-4.9245 7.3561-1.125 9.6738 5.4385 3.1258 11.365 6.8154 17.889 6.4023 3.2922 0.0138 4.6181-3.501 3.9473-6.3164-0.7911-5.3245 0.09005-11.501-3.123-16.133-0.72791-0.80143-1.7745-1.2605-2.8477-1.3105zm142.05 15.836c-4.0638 0.16363-3.6665 5.4416-4.4961 8.2754-0.5766 4.9955-1.8223 10.061-1.5781 15.08 1.6374 3.159 5.4905 0.17771 8.0156 0.13477 6.6114-1.3388 14.612-3.5426 17.16-10.562-1.1933-3.2053-4.6201-5.4585-7.2324-7.7461-3.4792-2.5131-7.436-5.0998-11.869-5.1816zm217.28 9.1152c-0.10699 0.003-0.21528 0.0129-0.32617 0.0332-3.1663 2.7155-4.707 7.0329-6.8398 10.617-2.458 4.2202-3.7457 10.718 0.99609 13.895 8.2974 5.3673 16.496 11.445 26.074 14.305 4.9861 1.2939 11.242 1.4797 15.283-2.1524 3.6126-5.8647 3.4108-14.405-2.1035-19.094-8.9561-7.9249-20.945-10.812-31.012-16.91-0.66421-0.32894-1.3234-0.71137-2.0723-0.69336zm-396.08 11.098c-0.46455 0.0542-0.92997 0.10788-1.3945 0.16211-5.2828 5.0744-9.6617 13.014-7.334 20.473 2.1353 4.995 8.03 6.5175 12.152 9.4375 6.019 3.251 12.536 6.147 19.375 6.9141 5.8645 0.45877 13.5 0.40192 16.656-5.5918 1.9776-4.1528 2.8101-9.6825 0.375-13.678-12.724-6.996-25.624-14.212-39.83-17.717zm534.31 12.152c-1.3763 0.004-2.7392 0.0955-4.0742 0.29297-1.4176 3.3238-0.0649 7.2934-0.0469 10.879 0.4015 5.2938 2.7811 10.933 7.707 13.4 8.1661-2.8432 12.446-11.315 15.668-18.768-0.065-3.3517-4.6677-2.8839-6.9121-4.0586-3.9643-0.99529-8.2129-1.7593-12.342-1.7461z" fill="#ff8080"/>
<path id="path4181" d="m443.78 202.18-1.0547 0.11914-0.53321 0.0606c-8.6522 9.9351-19.826 18.694-25.127 31.014 0.77555 4.871 8.005 4.4578 11.178 7.2812 26.201 12.515 52.597 25.243 78.904 37.424 6.9153-0.42097 8.3689-9.5853 8.3691-15.131-1.4077-8.8686 4.1524-18.021 0.2793-26.498-5.001-8.2634-16.397-6.2424-23.719-11.143-16.449-6.8373-31.164-17.763-48.297-23.127zm-189.11 106.79-0.33204 0.0293c-10.77 4.1063-22.544 4.7993-32.973 9.9141-2.7984 2.634-0.17295 6.9252 1.5644 9.4648 3.747 5.1683 10.578 6.3073 16.52 5.3203 8.2403-0.92033 17.044-5.7776 19.857-13.969 1.2824-4.0065-0.63852-9.4376-4.6367-10.76zm136.22 53.5c-5.9735-0.14433-11.687 5.0463-10.836 11.236-0.06 7.1333 1.2342 14.332-1.125 21.188 0.7142 3.7124 5.097 5.1947 8.1211 6.7363 4.3369 2.4497 9.3707-0.61715 11.158-4.7734 2.9587-6.1033 2.1879-13.228 1.7383-19.785-0.8623-4.912-1.9875-10.58-6.0273-13.885-0.9046-0.54917-1.9807-0.75489-3.0293-0.71679zm-292.58 4.72c-3.8217 1.0564-5.2714 5.6019-6.7656 8.877-0.8535 2.9084-2.0978 6.7402-0.30664 9.3477 11.091 5.6772 23.894 4.2034 35.881 3.6543 4.2707-0.43041 4.0994-6.0288 3.4648-9.1875-0.7087-6.0078-6.6509-9.2116-12.125-9.8301-6.7634-0.96008-13.464-1.5514-20.148-2.8613zm160.67 76.852c-4.5473 0.29538-9.3652 0.17563-13.666 1.6582-2.8624 3.3922-4.5961 8.3632-3.6035 12.787 2.1287 6.3751 9.8987 7.2443 15.648 6.9219 7.6232-0.17188 15.278-0.14129 22.812-0.49414 2.5376-1.4086 1.1577-5.2068 1.1367-7.6875-1.0352-7.8328-8.9029-12.278-16.172-12.863-2.0406-0.2577-4.1006-0.345-6.1562-0.32227zm-126.41 29.191-1.4043 0.006c-2.4139 2.4828-1.3858 6.6014-2.3887 9.7793-1.4165 10.273-3.9213 20.595-3.8516 31.023 1.4268 3.2818 5.7922 1.4848 8.4668 1.1309 7.7614-1.5237 11.691-9.4302 13.082-16.516 1.0482-5.3662 2.3681-10.893 2.3379-16.305-4.0796-4.7629-10.566-6.7455-16.242-9.1191zm254.09 7.8379c-0.76867-0.005-1.5385 0.034-2.3047 0.12305-2.4284 3.2094-6.8734 5.4423-7.7285 9.5938 0.6985 3.7197 5.0573 5.115 7.5547 7.5078 7.428 5.1097 15.303 10.222 24.182 12.285 3.9276-0.60009 5.4294-5.5259 5.748-8.9707 0.1131-7.2269-6.387-12.298-11.992-15.732-4.6879-2.556-10.078-4.7701-15.459-4.8066zm-398.99 7.791-0.52734 0.0605-0.33984 0.0391c-3.3473 3.6751-8.6587 6.9094-9.2598 12.283 0.4241 5.0191 6.62 5.7673 10.379 7.1875 8.6786 2.8631 16.73 7.7542 25.674 9.6602 2.9177-1.0453 3.6563-4.9506 4.4863-7.6445 1.3934-5.6514-1.7225-11.634-7.041-13.926-7.2754-3.8552-15.443-5.8718-23.371-7.6602zm517.89 5.4082c-0.94534-0.005-1.892 0.035-2.8398 0.1289l-0.49219 0.19532-0.31836 0.125c-1.5049 5.7109-1.49 12.18 0.38086 17.895 0.5841 2.5263 3.4231 4.1452 5.707 2.5801 7.9874-2.1136 15.036 3.946 22.658 5.0625 4.1224-1.1481 6.0559-5.7099 8.1875-9.0566 1.0653-2.696 3.9596-6.3835 1.4609-8.9863-4.9147-1.5111-10.194-2.3824-15.189-4.0449-6.3885-1.6039-12.937-3.862-19.555-3.8984z" fill="#ffff3e"/>
</g>
<path id="path78" d="m499.61 155.51c-1.3844 0.0401-2.8262 0.38281-4.3066 1.0957-41.925 20.75-73.875 57.938-103.04 92.801-28.875 5.7625-33.625-21.414-42.475-40.701-24.75-24.588-62.263-34.888-97.051-34.062-13.062 9.25 3.6746 29.988-7.4004 41.238-14.288 12.9-33.775 18.388-52.438 21.188-53.9 16.662-112.07 28.588-156.69 64.625-42.788 31.162-82.062 72.5-92 126.47-11.112 6.325-22.437 13.174-30.824 23.199-34.088 31.825-29.987 90.213 0.90039 122.8 24.112 21.55 58.938 29.85 90.275 24.4 25.425 104.55 52.673 209.04 77.898 313.44 1.9125 2.7 4.6625 3.5367 8.25 2.5117 116.14-0.2 232.29 0.21211 348.41-0.21289 7.8375-5.6125 6.7738-16.461 10.049-24.586 23.325-98.4 50.651-199.79 72.951-295.98 60.988 13.988 126.94-45.387 112.01-108.14-6.5125-22.35-20.838-40.925-38.9-55.025-10.112-39.725-30.812-77.211-61.262-104.86-6.075-4.325-12.888-8.5887-16.051-15.639 3.9375-45.888 7.7496-93.999-3.7129-139.39-1.3184-6.7922-7.1299-15.4-14.605-15.184zm1.5508 7.8984c3.1001-0.37188 4.1938 5.8973 4.9922 7.8223 3.675 16.138 8.9383 32.375 6.2383 49.162-21.35-0.3-39.488-15.474-57.988-24.986 10.8-14.1 28.801-23.463 45.301-31.4 0.52969-0.35625 1.0142-0.54453 1.457-0.59765zm-235.12 27.848c21.525 2.65 44.138 7.1379 61.713 20.713 14.112 6.9875 14.838 24.474 21.938 36.762 6.7875 18.225 41.937 7.5996 31.1 31.662 8.0625 22.3 32.85 33.489 53.1 43.014 17.025 6.1375 33.376 15.375 52.051 15.475 9.35 2.1875 21.974-0.54961 25.486-10.6 34.9 26.488 58.875 66.711 67.688 109.42 16.5 15.025 34.125 29.062 39.625 52.35 8.5125 38.212-21.537 76.989-58.137 85.914-23.35 9.7375-47.55-1.0254-69.875-7.4629-10.225 5.825-18.526 14.949-29.389 19.736-26.55 6.125-56.262 6.1504-80.262-8.4746-9.45 0.5625-13.3 12.95-23.688 11.838-25.6 8.7875-52.5 1.9117-74.838-11.676-25.062 12.85-55.1 25.939-82.975 12.539-16.312-2.0625-26.6-16.389-41.85-21.039-12.012 2.85-15.475 18.938-29.35 18.75-34.437 13.012-69.939-1.0242-98.352-20.949-23.963 11.3-52.975 21.7-78.625 7.7754-34.138-8.125-48.725-47.287-45.287-78.912 4.975-27.475 27.838-48.076 52.812-57.514 5.9125-50.85 41.876-91.775 81.201-121.19 44.8-37.988 104.31-51.075 159.66-66.662 30.512-5.475 74.662-21.587 66.25-61.475zm177.55 12.287c20.538 6.3375 39.464 22.813 61.764 28.113 12.325-0.075 12.037 14.637 8.0371 22.787 2.2375 6.6875 0.92539 29.487-10.475 19.824-28.662-12.25-56.888-27.775-85-40.125 5.1-11.312 16.886-21.412 25.674-30.6zm-35.1 38.988c33.975 12.425 66.688 31.974 100.71 46.049 4.3625 14.65-2.1254 32.239-11.213 44.264-39.125-4.575-79.687-18.689-108.01-47.039-7.575-16.238 9.5617-31.248 18.512-43.273zm-160.05 37.725c-13.988 5.1625-38.05 2.2617-43.062 20.449 10.862 22.838 26.174 45.264 46.137 60.076 13.462-15.762 9.5008-41.2 9.8008-60.713 0.35-7.6-5.0875-19.325-12.875-19.812zm-2.416 3.0195c11.745 0.40252 17.473 23.375 1.8535 22.605-11.512-0.2375-31.301 17.762-35.639 0.25-4.9625-14.4 16.238-19.188 26.738-20.463 2.4902-1.7676 4.8719-2.4671 7.0469-2.3926zm8.916 27.154c15.312 15.162-29.551 35.127-33.326 10.352 9.5875-5.675 22.789-5.5891 33.326-10.352zm-2.6699 23.674c9.2769-0.53426 2.1172 16.615-2.0312 21.877-4.9-5.2375-10.275-10.049-14.963-15.449 2.325-4.5875 10.039-4.5637 14.914-6.0762 0.77032-0.20156 1.4616-0.31594 2.0801-0.35156zm-138.79 6.002c-6.1375 4.85-10.512 11.4-15.25 17.525-5.8125 18.4-22.838 34.361-16.812 55.299 14.888 9.375 43.024 17.527 53.674-0.27344-3.6875-22.912-2.9613-57.901-21.611-72.551zm-0.0879 4.8633c5.6625 1.95 8.5512 13.55 10.326 19.625-6.2 2.9-15.925 0.69922-23.338-1.4883 2.825-6.8625 8.1492-12.662 13.012-18.137zm300.94 9.7344c-1.0318 0.0245-2.115 0.13828-3.25 0.35156-18.538 3.5375-35.613 12.264-52.4 20.352-5.1125 2.0125-12.612 9.1121-5.4375 13.537 22.238 11.35 48.275 22.675 73.412 15.838 8.6258-13.558 8.6567-50.577-12.324-50.078zm1.3867 1.8027c14.238 6.675 13.864 33.688 7.2012 46.625-29.562 10.788-18.563-21.388-20.275-38.463-0.7375-7.2625 8.5492-5.5496 13.074-8.1621zm-23.449 7.4375c9.7875 5.5125 11.126 52.662-11.949 31.35 6.4-11.938-7.0758-30.337 11.949-31.35zm-294.26 4.6113c13.037 4.95 34.3-2.4738 30.787 18.639-10.45 0.9125-25.825 2.6375-36.912-3.375-0.4375-5.4625 2.45-11.201 6.125-15.264zm273.83 3.3203c8.2458-0.0863 1.4992 15.061 3.3457 20.906-7.7625 2.075-12.862-6.2641-20.662-6.3516-1.25-7.525 10.2-8.8617 14.25-14.012 1.2-0.36211 2.2134-0.53404 3.0664-0.54297zm-284.3 19.14c15.287 2.2875 50.326-3.4512 43.988 21.674-13.688 11.725-61.376 5.0512-43.988-21.674zm171.64 26.28c-0.59543-0.0415-1.223 0.034-1.8887 0.24804-16.125 18.725-20.989 46.625-21.826 70.75 14.412 12.825 37.588 8.0125 53.438 0.4375-0.3875-22.175-9.8988-43.026-20.861-61.988-2.1547-3.2047-4.6933-9.1567-8.8613-9.4473zm-0.90429 5.2363c8.0713-0.36187 18.771 22.888 2.6777 19.461-16.688 5.9875-11.512-13.125-3.4492-19.35 0.25391-0.0625 0.51112-0.0996 0.77149-0.11133zm2.4082 23.186c10.903 0.20155 20.598 3.8602 19.258 17.688-15.188-1.375-46.789 7.4383-33.951-16.449 4.5312-0.70703 9.7376-1.3299 14.693-1.2383zm154.66 15.002c-2.2887 0.004-5.066 0.72032-6.4551 0.82422-19.525 12.3-39.725 26.725-49.875 48.287 3.65 18.125 27.812 28.562 44.824 27.85 14.5-19.838 13.476-47.2 13.926-70.625 2.6578-5.168 0.52266-6.3407-2.4199-6.3359zm-4.5293 3.1738c7.925 0.05 3.4125 16.713 4.3125 22.65-8.4625 1.2625-15.826-4.9875-21.201-10.812 5.575-4 10.814-8.5879 16.889-11.838zm102.59 1.0469c-3.203 0.007-6.4227 0.29961-9.6406 0.93945-10.538 23.412-4.0504 51.812 2.0996 75.562 13.6 8.9625 20.189-13.862 29.826-20.449 3.6-15.888 23.862-26.8 16.912-44.912-11.751-5.8297-25.317-11.172-39.197-11.141zm-501.93 0.92578c-0.82094 0.0209-1.748 0.25391-2.7988 0.75195-11.662 5.9375-19.037 16.776-28.637 25.238-5.0875 11.9-19.913 20.675-16.713 35.1 8.725 14.612 27.013 16.25 42.088 19.25 5.0125 0.2625 9.5996-4.3004 9.8496-9.3379 4.2875-20.05 4.8367-40.826 2.9492-61.176-0.97031-3.8707-2.3052-9.9388-6.7383-9.8262zm96.326 0.0879c-1.2635 0.0154-2.5344 0.0809-3.8125 0.20117-9.675 9.375-7.725 25.864-9.0625 38.014 0.4125 7.225 1.8637 18.161 11.951 17.023 22.412-3.7875 45.861-7.5492 66.736-17.262 5.6-9.2125-7.2242-13.962-13.137-18.449-16.395-8.6484-33.723-19.759-52.676-19.527zm162.89 1.6309c4.358-0.009 8.5059 0.45312 12.045 1.8828 13.45 26.138-25.162 24.113-41.412 19.738-2.4875-6.8-4.1129-21.2 7.6621-19.938 6.5938-0.34375 14.442-1.6688 21.705-1.6836zm241.63 0.93555c17.402 0.0771 50.426 7.8809 32.461 29.561-13.975-2.675-28.064-5.7121-41.826-9.4121-1.275-7.35-1.9367-16.625 6.1133-20.062 1.0016-0.0617 2.0918-0.0911 3.252-0.0859zm-401.38 0.0684c23.222-0.73689 11.265 24.437 9.2793 39.416 0.75 12.475-20.475 12.976-21.375 1.1133-0.6375-13.125-2.7512-31.55 9.7363-40.375 0.82383-0.0789 1.6103-0.13052 2.3594-0.15429zm-100.86 2.66c6.6523 0.26097 3.5 14.215 5.7969 19.5-5.7625 4.35-14.7-2.6387-20.688-5.0762-3.4625-7.675 9.2883-9.7121 13.426-14.287 0.53516-0.11094 1.0214-0.15411 1.4648-0.13672zm121.57 3.5879c4.8375 1.5625 11.488 4.1984 15.625 7.8984-1.825 14.725-2.7621 33.001-20.912 31.301 0.3875-13.162 3.8371-26.099 5.2871-39.199zm253.64 7.7363c12.2 0.05 36.238 12.6 23.625 26.775-11.438-3.6375-22.325-10.462-31.312-18.412 2.4625-2.875 4.9-5.8008 7.6875-8.3633zm-233.53 4.5762c7.65 0.025 13.625 6.175 18.625 11.062-3.1875 8.875-14.338 8.2613-21.938 10.799 0.5-7.3875 1.275-14.749 3.3125-21.861zm-164.05 3.1738c11.763 4.1375 37.899 6.1129 26.174 26.15-10.738-2.2375-20.536-9.4379-31.674-11.4-7.9375-4.425 2.175-10.788 5.5-14.75zm382.67 5.5879c12.425 10.338 44.688 12.975 33.738 34.963-12.6 6.9125-25.825-5.3621-36.812-10.975-10.988-7-0.26328-15.776 3.0742-23.988zm135.04 0.0625c11.763-0.10959 22.684 6.3008 34.438 7.4258-1 5.6375-4.4766 11.487-8.7891 15.387-7.75-1.475-17.85-9.2629-25.875-4.2754-3.65-5.325-2.7867-12.361-2.1367-18.424 0.79219-0.0687 1.5791-0.10597 2.3633-0.11328zm-532 11.551c13.925 3.175 27.774 10.911 39.949 17.711 4.55 26.65-28.663 15.138-40.676 5.5625-11.438-3.8125-5.0984-17.248 0.72656-23.273zm536.2 12.039c5.7369 0.12608 11.306 2.0992 16.801 3.7344-3.0125 6.6-6.9512 14.35-13.701 17.438-7.3125-2.3875-7.1746-14.475-7.0996-20.938 1.343-0.19453 2.6761-0.26347 4-0.23437zm-13.02 67.691c11.394-0.23181 6.4738 15.046 4.582 24.369-24.75 94.688-47.075 190.23-71.85 284.71-18.975 4.55-42.189 0.7875-62.701 1.6875 1.1125-35.375 14.038-69.35 17.488-104.59 13.05-61.1 22.363-122.82 35.488-183.88 27.175 4.95 51.55-6.8379 72.912-21.713 1.5492-0.37969 2.9014-0.56977 4.0801-0.59375zm-469.11 2.43c9.1461 0.0983 16.486 8.0289 24.801 11.473 23.462 11.788 51.113 12.099 76.363 7.4492 16.238 96.375 37.962 191.85 52.762 288.3-25.85 2.9625-56.675 0.68789-84.437 1.2129-27.038-99.962-50.238-201.09-76.5-301.35-2.9125-3.975-0.67422-7.3766 4.1133-6.8516 0.98789-0.17109 1.9523-0.24454 2.8984-0.23437zm132.35 1.1758c4.9646-0.14134 7.5391 6.6418 12.898 7.3965 29.075 17.762 68.1 22.775 98.062 5.1504 0.4875 98.388-3.0133 196.4-3.1758 294.72-22.325-0.025-44.7 0.53789-67-0.0996-19.6-96.238-37.325-193.43-55.35-290.18-2.325-8.5625 7.8129-11.187 12.275-16.475 0.82188-0.34062 1.5798-0.50129 2.2891-0.52148zm221.1 8.0586c7.1 2.0125 24.288 2.7 21.188 13.812-16.912 95.175-37.438 189.86-52.238 285.33-21.938 0.25-43.911 0.39922-65.836 0.0117 0.5375-98.2 3.9367-196.16 2.4492-294.61 30.125 7.7125 67.162 15.873 94.438-4.5391z"/>
</g>
</g>
</svg>
