<?xml version="1.0" encoding="UTF-8" standalone="no"?>
<svg id="svg2" xmlns:rdf="http://www.w3.org/1999/02/22-rdf-syntax-ns#" xmlns="http://www.w3.org/2000/svg" height="211.98mm" width="210.76mm" version="1.1" xmlns:cc="http://creativecommons.org/ns#" xmlns:dc="http://purl.org/dc/elements/1.1/" viewBox="0 0 746.78998 751.1033">
<g id="layer1" transform="translate(153.39 -85.382)">
<g id="g4364">
<path id="path4169" d="m-9.9202 528.01 476.17 2.8344-90.699 277.77h-291.94z" fill-rule="evenodd" fill="#e6b948"/>
<path id="path4281" d="m389.27 85.48c0.1959 0.02252 0.3769 0.06364 0.5664 0.09375-0.1894-0.03009-0.3706-0.07124-0.5664-0.09375zm1.3574 0.23242c0.1914 0.04292 0.3703 0.09941 0.5547 0.15039-0.1846-0.05106-0.363-0.10742-0.5547-0.15039zm1.2617 0.35938c0.1698 0.05918 0.3289 0.129 0.4922 0.19531-0.1633-0.06632-0.3224-0.13613-0.4922-0.19531zm1.1407 0.47461c0.1629 0.07961 0.3166 0.16882 0.4726 0.25586-0.156-0.08705-0.3097-0.17624-0.4726-0.25586zm1.0449 0.59375c0.1482 0.09649 0.2882 0.20117 0.4297 0.30469-0.1414-0.10346-0.2815-0.20824-0.4297-0.30469zm0.9257 0.68555c0.1403 0.11731 0.2753 0.24069 0.4083 0.36523-0.1331-0.12469-0.2678-0.2478-0.4083-0.36523zm0.8516 0.80469c0.12 0.12747 0.2362 0.2589 0.3496 0.39258-0.1135-0.13385-0.2295-0.26496-0.3496-0.39258zm0.7403 0.88086c0.1093 0.14558 0.2157 0.29362 0.3183 0.44531-0.1025-0.15171-0.209-0.29972-0.3183-0.44531zm0.6425 0.95703c0.099 0.16513 0.1988 0.33071 0.291 0.50195-0.092-0.17131-0.1915-0.33676-0.291-0.50195zm0.5723 1.0664c0.077 0.16245 0.1569 0.32314 0.2285 0.49024-0.072-0.16717-0.1511-0.32772-0.2285-0.49024zm0.4766 1.1211c0.068 0.18045 0.1359 0.35991 0.1972 0.54492-0.061-0.18501-0.1298-0.36447-0.1972-0.54492zm0.3828 1.1699c0.053 0.18493 0.1106 0.36787 0.1582 0.55664-0.048-0.1891-0.1049-0.3714-0.1582-0.55664zm0.3457 1.4082c0.026 0.13008 0.058 0.2571 0.082 0.38867-0.024-0.13156-0.056-0.2586-0.082-0.38867zm0.2246 1.332c0.017 0.12912 0.041 0.25448 0.057 0.38477-0.015-0.13007-0.039-0.25586-0.057-0.38477zm-188.25 2.2344c-14.725 7.525 2.7738 25.864-6.0762 37.264-12.088 16.125-33.425 20.948-52.312 24.086-46.288 14.212-94.511 24.951-136.61 49.676-51.862 33.35-101.79 79.212-115.12 142.26-15.812 9.0375-30.9 20.963-41.25 36.363-21.012 31.738-15.088 74.713 7.125 104.24 25.562 28.6 68.811 37.225 104.74 27.412 23.5 100.64 50.664 200.32 74.326 300.94 1.8 6.125 1.8746 17.95 11.85 14.975 116.12-0.1125 232.26 0.22539 348.39-0.16211 6.225-3.975 6.6387-11.838 7.4512-18.4 25.688-98.725 49.312-198.5 74.949-296.82 60.762 4.8625 123.21-57.676 99.988-119.58-6.8125-19.3-20.2-34.211-36.4-46.424-13.475-64.688-62.163-116.4-119.11-146.74 6.056 12.083 4.4489 9.1103 11.463 25.738 31.525 21.55 62.025 48.799 77.375 85.299 12.838 16.038 6.5 40.789 24.75 52.764 18.738 11.738 29.326 34.225 30.863 55.787-0.525 55.788-68.5 93.975-117.22 67.9-14.9-8.3625-23.939 7.1863-34.951 13.611-28.65 12.788-61.5 7.2133-88.938-5.1367-26.838 22.088-67.588 18.975-95.713-0.0254-9.2 3.0125-17.686 9.4383-27.648 11.488-30.712 16.025-66.552 1.1988-91.914-18.264-14.625-7.9375-18.8 16.9-33.062 15.875-33.925 14.338-71.225 1.6762-99.1-19.486-10.575-0.2125-18.812 10.323-29.762 10.586-22.275 9.7625-45.812-0.19844-66.188-9.8984-35.225-23.875-41.651-82.564-7.5762-109.98 8.675-15.612 37.226-11.849 33.826-34.736 11.175-48.988 49.325-85.164 87.787-113.7 45.4-33.838 102.37-44.7 155.41-60.912 29.55-4.0375 68.7-22.837 60.838-59.637 26.55 2.025 52.988 10.713 72.438 28.838 4.7625 13.612 8.1879 29.336 20.338 38.424 11.45 3.525 23.499 4.9129 34.512 9.9629 14.431-6.4206 19.383-8.7903 24.244-10.406-3.5001-0.30827-6.9948-1.5699-10.094-3.3555-13.312-8.05-31.887-3.3508-43.85-13.801-7.65-13.025-7.2762-32.15-22.576-39.775-23.85-20.375-56.811-26-87.174-26.25zm188.47 0.89062c0.0008 0.09243 0 0.18654 0 0.2793 0.0002-0.0928 0-0.18682 0-0.2793zm-0.023 1.4043c-0.01 0.15616-0.019 0.31393-0.027 0.47071 0.01-0.15685 0.021-0.31448 0.027-0.47071zm-0.09 1.416c-0.016 0.18849-0.037 0.37741-0.057 0.5664 0.019-0.18887 0.041-0.37803 0.057-0.5664zm-53.553 0.80469c-0.3418 0.62426-0.6251 1.2796-0.8437 1.9648 0.2186-0.68527 0.5019-1.3406 0.8437-1.9648zm53.402 0.61328c-0.03 0.23686-0.067 0.47387-0.1016 0.71093 0.035-0.23727 0.072-0.47385 0.1016-0.71093zm-0.2051 1.3926c-0.041 0.24639-0.087 0.49228-0.1328 0.73828 0.046-0.24621 0.092-0.49168 0.1328-0.73828zm-54.318 1.0078c-0.2259 1.0701-0.2943 2.2023-0.1758 3.3848-0.1185-1.1825-0.05-2.3147 0.1758-3.3848zm54.039 0.47851c-0.044 0.21281-0.093 0.42469-0.1406 0.63672 0.048-0.21206 0.096-0.42389 0.1406-0.63672zm-0.3242 1.4141c-0.057 0.22851-0.1152 0.45653-0.1758 0.68359 0.061-0.22728 0.1191-0.45486 0.1758-0.68359zm-0.3575 1.3418c-0.075 0.26362-0.1519 0.52623-0.2324 0.78711 0.081-0.2611 0.157-0.52327 0.2324-0.78711zm-0.4297 1.4024c-0.075 0.23047-0.1512 0.45979-0.2304 0.6875 0.079-0.22766 0.1551-0.45708 0.2304-0.6875zm-0.4882 1.4023c-0.076 0.20446-0.1516 0.40966-0.2305 0.61133 0.079-0.20204 0.1545-0.40649 0.2305-0.61133zm-0.5489 1.3887c-0.069 0.16417-0.1344 0.3303-0.205 0.49219 0.071-0.16196 0.1364-0.32795 0.205-0.49219zm-0.539 1.2227c-0.088 0.18922-0.1732 0.38093-0.2637 0.56641 0.09-0.18557 0.1757-0.3771 0.2637-0.56641zm-51.367 0.0859c0.1212 0.81536 0.3207 1.5638 0.5898 2.2539-0.2691-0.69007-0.4686-1.4385-0.5898-2.2539zm50.83 1.0137c-0.1136 0.22176-0.2247 0.44662-0.3418 0.66211 0.1172-0.21566 0.2282-0.44017 0.3418-0.66211zm-0.6563 1.2129c-0.1064 0.18568-0.2094 0.37646-0.3183 0.55664 0.1089-0.18019 0.2119-0.37095 0.3183-0.55664zm-49.129 1.0195c0.4225 0.79824 0.9553 1.5027 1.5606 2.1484-0.6049-0.64546-1.1383-1.3506-1.5606-2.1484zm21.344 13.678c0.2774 0.30056 0.54 0.61579 0.7871 0.94532-0.2472-0.3295-0.5096-0.64479-0.7871-0.94532zm3.5488 6.8887c0.9793 2.452 2.0141 4.8885 3.0762 7.3184-1.0619-2.4295-2.097-4.8666-3.0762-7.3184zm86.473 12.004c-0.8223 0.31452-1.7281 0.5369-2.7324 0.65235 1.0043-0.11546 1.9101-0.33782 2.7324-0.65235zm36.699 0.74414c0.6223 0.0671 1.2282 0.18354 1.8203 0.33203-0.5927-0.14874-1.1973-0.26488-1.8203-0.33203zm-46.004 1.9336c-4.9643 1.9784-9.8629 4.0828-14.744 6.2246 4.8818-2.1419 9.7792-4.246 14.744-6.2246zm51.775 0.0762c0.4476 0.27838 0.8754 0.58805 1.2911 0.91211-0.4161-0.32441-0.8431-0.63346-1.2911-0.91211zm7.0879 9.5879c0.2811 0.97461 0.4745 1.9714 0.5723 2.9727-0.098-1.0013-0.2912-1.998-0.5723-2.9727zm0.6368 3.9746c0.022 0.66847 0.0008 1.337-0.066 2 0.067-0.66304 0.089-1.3315 0.066-2zm-0.2012 2.9902c-0.1137 0.65592-0.2745 1.3058-0.4844 1.9414 0.2101-0.63627 0.3707-1.2848 0.4844-1.9414zm-0.4844 1.9414c-0.2101 0.63624-0.4702 1.2592-0.7812 1.8652 0.311-0.60605 0.5711-1.229 0.7812-1.8652zm-0.7812 1.8652c-0.3111 0.60604-0.6733 1.1938-1.0899 1.7598 0.4162-0.56555 0.7791-1.1542 1.0899-1.7598zm-27.43 1.4297c0.8922 0.78594 1.8377 1.4638 2.8242 2.0391-0.9865-0.57521-1.932-1.2531-2.8242-2.0391zm25.674 1.1621c-1.5023 0.83906-3.0924 1.5441-4.7324 2.0938 1.6401-0.5496 3.2301-1.2547 4.7324-2.0938zm-4.7324 2.0938c-1.0928 0.36621-2.2089 0.66419-3.334 0.88672 1.1258-0.22255 2.2406-0.52032 3.334-0.88672zm-16.607-0.42969c1.0245 0.47406 2.0856 0.84907 3.1699 1.1309-1.0848-0.28192-2.1449-0.65645-3.1699-1.1309zm13.271 1.3164c-1.688 0.33373-3.3995 0.49844-5.0957 0.47461 1.6963 0.024 3.4076-0.14103 5.0957-0.47461zm-69.205 18.15c0.222 0.87794 0.5796 1.7931 1.0234 2.7109-0.4443-0.91848-0.8012-1.8324-1.0234-2.7109zm2.5742 5.4434c0.5739 0.89186 1.1895 1.754 1.8008 2.5527-0.6113-0.79875-1.2269-1.6608-1.8008-2.5527zm-36.363 5.7207c-1.491 0.0359-2.9615 0.2028-4.416 0.47461 1.9392-0.3624 3.9077-0.53616 5.914-0.46484-0.5015-0.0178-1.001-0.0217-1.498-0.01zm3.0098 0.10938c1.5193 0.14831 3.0609 0.44297 4.6289 0.9082-1.568-0.46523-3.1096-0.75989-4.6289-0.9082zm-10.314 1.043c-0.9561 0.26802-1.9068 0.57558-2.8515 0.91601 0.9447-0.34042 1.8954-0.648 2.8515-0.91601zm-2.8515 0.91601c-2.8344 1.0213-5.6216 2.3365-8.3926 3.75 2.7709-1.4135 5.5583-2.7288 8.3926-3.75zm18.892 1.7891c1.1287 2.8296 2.3429 5.6338 3.586 8.4316-1.2428-2.7973-2.4575-5.6026-3.586-8.4316zm-35.576 6.3027c-1.844 0.94445-3.6933 1.8467-5.5567 2.6484 1.8633-0.80174 3.7127-1.704 5.5567-2.6484zm-5.5567 2.6484c-1.3969 0.60106-2.8024 1.1472-4.2187 1.6113 1.4169-0.46429 2.8212-1.01 4.2187-1.6113zm-5.6406 2.0469c-0.6656 0.0633-1.2739 0.17407-1.832 0.32617 0.5581-0.1521 1.1664-0.26289 1.832-0.32617zm-1.832 0.32617c-0.5582 0.1521-1.0663 0.34511-1.5293 0.57617 0.463-0.23106 0.9711-0.42406 1.5293-0.57617zm-2.1914 0.95117c-0.4202 0.26685-0.799 0.56742-1.1426 0.89844 0.3436-0.33103 0.7224-0.63158 1.1426-0.89844zm-8.4727 16.576c-0.1772 0.18029-0.3626 0.35337-0.5586 0.51953 0.1956-0.16593 0.3817-0.33951 0.5586-0.51953zm105.91 1.6719c0.5957 0.41871 1.3229 0.56312 2.2226 0.37891-0.684 0.0937-1.4461-0.0588-2.2226-0.37891zm-124.06 0.9961c0.5906 0.35716 1.1971 0.68101 1.8164 0.9707-0.6188-0.28946-1.2263-0.61388-1.8164-0.9707zm12.238 1.8926c-0.5916 0.2159-1.2003 0.37537-1.8203 0.48243 0.62-0.10704 1.2287-0.26656 1.8203-0.48243zm-1.8203 0.48243c-0.6059 0.10464-1.2225 0.15824-1.8457 0.16601 0.6226-0.008 1.2404-0.0615 1.8457-0.16601zm-63.32 298.89c10.276 0.30823 18.996 10.045 19.387 20.244-2.9375 15.212-24.125 21.999-34.375 9.7363-10.488-9.375-2.4879-25.55 9.1621-29.125 1.9668-0.64648 3.9231-0.91255 5.8262-0.85547zm-154.96 0.01c17.945 0.21181 25 30.743 4.2246 35.568-23.812 8.8375-35.6-30.462-10.125-34.6 2.0707-0.68906 4.044-0.99066 5.9004-0.96875zm231.94 0.002c12.246-0.0918 22.417 14.162 16.664 25.668-5.6875 15.175-30.851 13.661-35.801-1.3887-3.6125-9.95 3.6133-21.788 13.801-23.312 1.7937-0.64844 3.5865-0.95369 5.3359-0.9668zm-153.87 0.0137c11.971-0.14851 22.033 13.306 17.166 24.779-4.675 15.35-30.799 15.6-35.137-0.125-4.275-9.1625 2.5242-22.5 12.762-23.713 1.75-0.62187 3.4989-0.92019 5.209-0.9414zm-156.01 0.0547c12.79 0.22525 24.977 15.607 16.676 27.037-7.25 11.738-26.688 12.861-33.5-0.0137-7.275-9.3125 1.2383-23.912 11.363-26.137 1.7937-0.64218 3.6338-0.91889 5.4609-0.88672zm389.07 0.11914c10.237 0.31454 19.203 9.6543 19.467 20.043-2.85 16.075-27.875 22.825-36.162 7.6875-7.5125-9.175-0.2137-25.251 10.924-26.926 1.9356-0.61133 3.8758-0.86293 5.7715-0.80469zm-40.826 69.008c14.752-0.004 28.088 22.018 13.418 31.76-11.088 12.162-33.012 1.8879-32.824-13.975 2.0375-7.45 8.025-13.614 14.812-17.039 1.5269-0.50977 3.0677-0.74569 4.5937-0.74609zm-152.55 0.0996c10.207-0.1803 18.449 11.355 19.072 20.947-2.85 13.825-21.312 21.974-32.037 11.262-14.025-8.375-5.1242-28.338 8.4883-31.375 1.5219-0.54375 3.0184-0.80823 4.4765-0.83398zm-79.111 0.0117c16.918 0.3449 27.486 27.629 8.0586 34.822-24.488 13.612-38.961-27.399-13.486-34.012 1.8597-0.59297 3.6776-0.84622 5.4277-0.81055zm-76.189 0.0313c12.449 0.56071 22.664 16.961 15.336 28.041-5.6 8.8125-19.4 12.612-27.713 5.125-14.675-7.0875-7.5238-29.75 6.9512-32.375 1.825-0.62812 3.6473-0.87112 5.4258-0.79101zm231.41 0.041c13.795-0.40599 26.004 18.507 15.74 29.914-8.4 8.6625-23.562 10.174-30.875-0.63867-8.5875-9.7125-0.6383-25.575 10.824-28.5 1.4379-0.48516 2.8835-0.73339 4.3106-0.77539zm-39.951 72.365c14.407 0.0156 28.577 20.853 13.816 30.697-10.812 15.1-34.638 1.025-33.025-15.125 3.25-6.2 8.4762-11.712 14.764-14.875 1.4636-0.4793 2.9549-0.69888 4.4453-0.69727zm77.82 0.0918c17.78-0.47809 26.447 28.755 6.834 35.52-23.662 11.138-37.862-29.727-11.537-34.727 1.626-0.49902 3.1964-0.75245 4.7031-0.79297zm-156.37 0.0137c14.597-0.26155 27.177 21.288 13.006 31.279-11.938 14.125-34.099 0.61289-32.387-15.787 3.4875-5.9875 7.3125-13.299 14.812-14.674 1.5258-0.53086 3.0583-0.7913 4.5684-0.81836zm-76.568 0.0254c13.734-0.16287 26.575 20.505 13.412 30.043-10.288 16.1-35.549 1.8359-33.762-14.602 3.4625-6.4 8.8504-12.65 16.088-14.688 1.4121-0.49805 2.8409-0.73706 4.2617-0.75391zm195.74 69.914c7.1247 0.20399 13.714 6.0789 17.695 11.441 8.5625 18.675-21.713 36.049-32.488 18.262-10.488-9.55-2.3867-25.913 9.8008-28.863 1.6758-0.63281 3.348-0.88692 4.9922-0.83984zm-79.061 0.0527c14.796-0.0828 26.019 21.634 12.131 31.738-11.412 13.275-33.412 0.0629-33-15.287 1.85-7.6875 9.075-13.112 16.188-15.688 1.5832-0.51211 3.1511-0.7551 4.6816-0.76367zm-77.914 0.15625c10.203-0.0598 20.418 9.3574 20.658 19.693-2.8625 14.3-24.438 24.738-33.926 10.25-11.812-9.2375-3.1242-25.75 8.9258-29.312 1.4281-0.42031 2.8842-0.62231 4.3418-0.63086z"/>
<g>
<path id="path4167" d="m224.02 113.84c-3.5908 4.4846-0.78661 11.505-2.2223 16.944-2.8074 19.222-21.431 30.321-37.843 36.918-25.582 7.7556-51.663 13.992-77.242 21.858-40.034 11.046-79.528 26.864-111.85 53.552-32.994 25.985-63.653 58.537-75.489 99.854-2.9095 6.7747 0.23173 15.255-6.2978 20.554-11.019 7.4088-24.186 12.035-32.516 22.986-19.771 19.546-23.982 50.933-13.551 76.175 6.215 17.132 19.36 31.605 36.67 37.872 17.26 7.2384 37.132 12.588 55.331 5.3426 10.35-1.9926 18.771-8.8822 29.005-11.187 21.131 15.624 46.839 26.97 73.62 24.985 11.553-0.30566 23.177-2.97 33.712-7.5289 7.3389-4.1139 12.132-12.346 19.976-15.316 15.28 7.2809 29.123 18.623 45.956 23.062 19.953 7.1051 41.604 2.2943 60.308-6.1579 6.5768-1.9109 12.948-7.0347 19.28-7.7412 16.279 9.4026 34.835 15.596 53.836 13.9 15.165 0.0804 29.937-5.0455 41.971-14.247 24.027 10.949 51.51 14.6 77.379 8.9644 13.622-2.4922 22.005-14.707 34.362-19.658 8.3608-1.557 15.643 5.198 23.684 6.6532 42.211 13.004 91.791-13.672 103.99-56.207 8.2078-26.493-4.7826-55.402-25.309-72.56-7.8944-5.8223-14.495-13.609-16.297-23.515-8.5054-34.216-27.857-65.679-54.329-88.954-10.759-9.7981-21.928-19.465-34.444-26.91-4.8306 1.0037-1.4518 8.2137 1.1729 10.38 6.9975 2.9061 15.394 5.4733 18.343 13.403 3.0906 6.1602-1.8205 13.937-7.3346 16.571-5.503 0.52999-11.414-7.4049-16.26-2.8465-2.848 4.4867-4.4863 11.983-11.297 11.532-6.3337 0.94783-15.639-0.42548-15.6-8.6652-1.478-8.8247 7.2844-16.072 3.7473-24.907-3.9893-13.793-10.676-26.611-16.107-39.86-9.955-3.1563-21.365-0.40155-30.521 4.7085-6.8144 3.8039-14.293 5.976-21.093 9.4142-8.0475 5.7368-6.7069 20.895-18.657 21.489-6.8741-0.41667-17.377-8.5982-12.22-16.158 3.6434-3.6852 3.1346-10.257-2.3732-11.724-8.3161-2.7932-13.581-15.947-4.8973-21.409 8.1404-4.7604 17.162 2.3586 25.513 3.226 4.7778 1.1664 12.54-0.50564 13.387-5.9788-4.6882-5.2718-13.204-5.2397-19.585-7.6364-8.7592-1.8082-18.762-3.9884-23.129-12.806-8.0097-10.754-7.159-26.791-18.908-34.78-18.937-14.442-42.421-21.538-65.865-23.59z" fill="#ff8080"/>
<path id="path74" d="m387.81 85.385c-1.0519-0.01826-2.1848 0.0625-3.4043 0.25391-10.7-1.075-10.013 12.262-15.588 15.449-7.0625-10.712-26.762-3.1363-24.137 9.8262-2.2125 16.588 19.638 12.575 24.562 24.463 5.375 14.575 13.586 28.362 16.174 43.787-13.064 3.0474-11.855 2.9381-34.975 13.225-11.462 13.712-25.225-7.1633-39.475 0.94922-11.15 8.4375-2.5504 25.664 9.4746 26.977 1.775 5.2125-6.3246 8.2496-4.0996 13.975 2.4375 9.8 17.813 17.699 24.926 8.2988 6.925-4.825 3.0238-17.837 13.674-18.85 15.2-4.35 28.951-18.8 45.676-13.838 5.6875 15.188 14.287 29.525 17.574 45.562-5.825 8.0875-9.8371 22.376 0.71289 28.363 6.8125 1.9875 20.062 2.5504 21.938-6.8496 1.5375-15.025 16.013 7.4504 21.963-4.0371 12.138-10.412 2.2992-27.539-11.801-29.389-4.3125 1.325-4.7829-4.6154-6.625-9.9238-7.014-16.628-5.4069-13.655-11.463-25.738-4.45-5.1125-12.136-16.399 0.57617-16.824 15.362-4.025 28.512-17.039 44.875-15.639 7.1375 6.2875 17.661 5.6371 25.674 1.1621 7.5375-8.675 0.97656-23.748-10.273-24.961 4.1625-11.188 2.9367-28.689-12.738-26.852-19.662-2.6125-10.588 26.777-28.275 26.852-13.375 5.025-26.149 11.161-39.299 16.711-4.45-17.2-15.876-32.25-19.613-49.438 7.125-10.535 9.7449-33.242-6.0332-33.516zm-167.76 94.055c-0.91859 0.0592-1.9789 0.36289-3.207 0.97461-6.5625 2.5875-1.6625 10.411 1.125 14.361-3.525 6.05-3.725 13.888-7.375 19.588-5.55-0.275-10.749-4.0125-16.262-5.375-7.475-0.95-6.1008-15.787-15.926-9.3867-6.15 3.8625 7.7133 11.374-0.69922 11.049-6.3875-2.9625-2.9008 10.312-1.8008 11.25 10.75-3.775 20.974 1.3125 31.012 4.6875-0.1125 9.55-3.5609 21.314-12.961 25.414-4.975 9.8 6.475 11.275 10.688 4.9746-0.1875 5.4875 2.6117 12.113 9.6992 7.5879 1.65-8.25-2.6992-18.164 2.7383-26.227 1.15-14.788 17.825-0.7875 24.312 3.5 3.7 10.462 18.212 1.6379 8.0996-5.7246 5.5125 0.075 12.661-3.1117 7.8613-10.137-10.175-3.1375-28.161 3.1875-33.861-8.625 6.1125-7.6625 1.8742-20.838 12.887-23.775 3.7-8.5375-5.1488-9.5004-10.236-6.4004-0.79219-3.6664-2.1132-7.9927-6.0938-7.7363zm-133.14 74.62c-1.1057 0.002-2.6379 0.39258-4.8223 1.3144-2.125 8.275-4.0133 22.587-11.113 31.412-8.675-4.8875-20.098-9.0496-22.398-19.537-1.8375-6.4625-11.425-1.6508-7.6504 4.0117 3.95 7.2875-14.875 5.9508-7.0625 14.426 10.862 1.65 21.912 4.7617 30.824 11.824-4.3625 8.125-5.1992 20.887-16.824 21.6-8.775 6 1.1 15.538 8.25 9.6758-4.15 8.025 7.9004 9.1496 10.775 6.0371-5.45-11.325 5.5246-36.212 19.725-24.625 9.525 1.625 8.9629 22.888 19.525 14.676-5.5875-9.75 14.611-12.738 3.9863-20.926-11.725 2.0375-19.088-5.9508-28.875-10.426 5.35-7.9 6.6496-19.537 17.225-22.449 8.2875-4.325-0.24844-13.637-7.0234-10.449-1.7438-3.0844-1.224-6.5703-4.541-6.5644zm250.71 17.65c-4.175 0.8125-6.2988 4.2129-4.2988 8.1504-5.0375-6.3125-16.975-3.7996-11.812 6.0879 10.412 3.975 10.437 16.825 12.949 26.037-8.4 2.0875-16.676 7.725-25.488 3.6875-11.588-5.7-11.887 13.588-1.4492 11.838-11.138 3.7375 1.8117 18.012 7.4492 7.75 8.3125-18.312 36.164-8.2246 27.639 11.275-9.6125 8.9 9.4246 16.562 8.5996 4.4375 5.275 6.3625 16.201 2.1746 12.613-6.3379-10.062-4.225-11.612-15.437-15.188-24.637 7.75-5.025 17.288-9.8 26.688-6.375 6.6625 5.4375 11.925-8.0633 5.7246-10.051-8.45-1.1625 5.4496-9.2133-3.5254-12.801-9.4375-0.35-13.088 14.7-23.963 14.338-11.475 4.85-9.4367-11.512-13.762-17.887 3.225-5.2375 7.4117-15.826-2.1758-15.514zm-110.97 45.43c-0.73776 0.0269-1.5918 0.20547-2.5879 0.57227-3.95 9.8-5.9367 22.613-16.949 27.025-7.0125-2.075-11.75-9.325-15.812-15.125 4.4875-5.15-1.2125-13.15-7.25-12-4.0125 1.75-2.4637 6.1508-2.5137 9.5508-7.425-2.6375-13.398 5.1996-6.9609 10.287 9.4125 1.875 19.9 8.6633 22.412 18.238-6.425 7.575-13.338 16.261-23.9 17.549-3.8875 8 3.9117 9.0625 9.1367 8.9375-7.05 6.3125 6.5508 15.076 8.9258 5.3262 0.725-9.3375 7.8871-20.138 17.037-23.926 3.1625 5.3375 6.2387 11.251 12.076 14.676-0.9875 5.125 6.45 20.086 11.125 10.586-1.775-9.45 17.262-5.4746 9.1621-16.225-10.638-0.9625-16.163-9.9867-24.15-16.074-0.35-15.625 30.762-15.764 23.699-28.326-9.9914 2.6848-6.3176-11.332-13.449-11.072zm244.66 47.898c-0.85765 0.0306-1.9297 0.46875-3.2949 1.5117-7.625 3.65 0.54961 10.437 3.6621 14.225 3.9125 15.8-6.4262 31.851-23.389 20.863-4.3625-12.975-22.088 0.51289-8.5 6.7129-8.375 1.45-5.4625 18.599 2.4375 11.637 12.8-14.038 40.614-3.4746 25.039 17.15-12.3 9.475 6.5992 18.974 8.6992 4.8867-1.675 11.388 11.751 8.8008 12.613 0.42578-9.7625-6.5625-7.8387-20.512-4.6387-30.074 8.75-0.2125 19.864-2.9504 25.264 5.7871 7.925 7.125 14.125-10.2 3.7871-8.3125 7.05-2.1625 8.1492-17.638-1.0508-14.525-12.75 15.425-42.549 3.7375-26.611-18.25 12.512-3.725-0.52578-18.288-7.0508-7.7129-3.9973 7.2457-2.3355-4.4894-6.9668-4.3242zm-492.29 7.8809c-0.92439 0.005-2.0398 0.32813-3.4023 1.0938-0.8875 9.5-5.1379 22.462-12.15 31.562-10.15-5.7625-21.612-10.7-23.975-23.162-8.075 0.4375-8.1012 8.3367-3.5137 13.324-5.7625-3.325-15.962 4.3496-8.8125 9.2871 10.25 1.375 22.375 3.85 29.812 11.438 0.7 14.35-14.636 17.888-19.211 28.176 3.2625 9.35 9.7488 0.47539 12.924 1.2754-5.375 7.425 1.4633 12.649 8.6758 7.5117-4.525-10.462 2.1379-20.349 8.4629-28.387 11.788 0.7125 20.348 9.8125 24.961 19.438 12.538 4.825 0.675-18.962 11-11.537 4.75-0.25 4.2137-11.464-1.9863-10.514-10.612 2.1-17.838-5.4992-26.676-9.3867 0.9625-7.2375 5.1875-14.038 9.25-19.963 9.9 0.575 13.275-12.976 4.5371-15.551-6.3547 10.959-3.4258-4.6379-9.8965-4.6055zm119.5 18.842c-0.88379-0.0369-1.9211 0.19531-3.1523 0.78906-6.55 7.475 6.2617 13.775 2.0117 22.287 6.4375 20.012-21.186 13.752-27.924 3.4141-11.075-6.5125-12.839 8.7117-4.0762 12.824-11.762-3.3875-7.3617 15.938 3.1133 9.4258 5.925-7.8625 16.961 0.13594 24.924-0.97656 3.25 9.9375 0.50117 22.001-7.2988 28.326-2.35 17.838 17.05-4.9508 14.037 10.137 13.062 3.7125 9.1375-10.224 4.875-16.236 1.0125-6.6125 1.9004-13.525 1.7754-20.312 8.6875 3.7 21.974-0.87539 25.324 10.037 9.0125 4.9125 13.175-6.9262 6.375-11.701 9.1875-0.875 4.35-16.574-3.8125-11.424-8.25 9.1375-32.762 4.1746-25.188-13.15-3.95-8.8125 11.989-11.412 4.9512-19.887-3.3625-4.7625-7.4133-0.13789-11.051 1.6621-0.96563-2.5594-2.2334-5.1041-4.8848-5.2148zm204.8 7.377c-0.23654-0.006-0.48008-0.002-0.73242 0.0117-5.0625-0.025-4.3 11.089-8.75 6.4141-4.675-6.9125-12.525 6.0867-5.6504 9.0117 10.438 4.125 8.7504 17.112 11.463 26.137-10.188 4.525-21.149 4.1258-31.949 3.1133-7.65 1.875-0.82578 13.438 5.6992 11.863-5.0875 2.2625-8.3504 7.1246-1.9629 10.287 11.338-1.525 18.212-17.05 32.475-13.438 1.475 8.1375 9.2516 17.512 2.3516 25.037-5.6375 8.55 12.65 10.162 11.162 0.72461 4.5375 7.975 16.474 0.46211 10.637-6.7129-9.2875-3.9875-10.986-14.637-14.236-23.137 7.1625-15.012 39.125 4.9125 34.438-16.938-12.588 4.575 4.7242-11.024-7.3008-13.887-8.7875 6.075-15.875 17.875-28.938 14.975-2.8875-5.85-7.4617-12.975-6.6992-19.537 5.1102-4.1777 5.3269-13.741-2.0059-13.926z" fill="#eeee94"/>
<path id="path4355" d="m451.7 512.93c-0.2204-0.00031-0.443 0.011-0.668 0.0352-6.1423 3.395-11.236 8.6242-17.578 11.816-25.589 12.238-55.693 11.775-82.525 4-4.7836-0.61768-9.1107-4.7337-14.064-3.1445-29.73 16.343-67.359 14.827-97.086-0.70313-17.61 7.1159-35.635 14.794-54.906 15.418-24.642 0.62968-47.65-10.546-68.162-23.131-7.8571 6.6987-17.041 11.835-26.859 15.027-33.639 10.388-70.953 2.7069-100.45-15.557-1.991-2.0918-5.1313-2.6342-7.7129-1.2461-3.2973 1.8087-6.7065 3.3665-10.195 4.6953 23.498 100.62 50.657 200.3 74.316 300.9 1.8 6.125 1.8746 17.95 11.85 14.975 116.12-0.1125 232.26 0.22539 348.39-0.16211 6.225-3.975 6.6387-11.838 7.4512-18.4 25.578-98.305 49.114-197.65 74.625-295.57-9.2022-0.75385-18.326-2.8564-27.025-5.8711-3.2809-0.48294-6.0874-3.0794-9.3925-3.084zm-180.31 32.578c10.276 0.30823 18.996 10.045 19.387 20.244-2.9375 15.212-24.125 21.999-34.375 9.7363-10.488-9.375-2.4879-25.55 9.1621-29.125 1.9668-0.64648 3.9231-0.91255 5.8262-0.85547zm-154.96 0.0117c17.945 0.21181 25 30.743 4.2246 35.568-23.812 8.8375-35.6-30.462-10.125-34.6 2.0707-0.68906 4.044-0.99066 5.9004-0.96875zm231.94 0.002c12.246-0.0918 22.417 14.162 16.664 25.668-5.6875 15.175-30.851 13.661-35.801-1.3887-3.6125-9.95 3.6133-21.788 13.801-23.312 1.7937-0.64844 3.5866-0.95369 5.336-0.9668zm-153.87 0.0137c11.971-0.14851 22.033 13.306 17.166 24.779-4.675 15.35-30.799 15.6-35.137-0.125-4.275-9.1625 2.5242-22.5 12.762-23.713 1.75-0.62187 3.4989-0.9202 5.209-0.94141zm-156.01 0.0547c12.79 0.22525 24.977 15.607 16.676 27.037-7.25 11.738-26.688 12.861-33.5-0.0137-7.275-9.3125 1.2383-23.912 11.363-26.137 1.7937-0.64218 3.6339-0.91889 5.461-0.88672zm389.07 0.11914c10.237 0.31454 19.203 9.6543 19.467 20.043-2.85 16.075-27.875 22.825-36.162 7.6875-7.5125-9.175-0.2137-25.251 10.924-26.926 1.9356-0.61133 3.8758-0.86293 5.7715-0.80469zm-40.826 69.008c14.752-0.004 28.088 22.018 13.418 31.76-11.088 12.162-33.012 1.8879-32.824-13.975 2.0375-7.45 8.025-13.614 14.812-17.039 1.5269-0.50977 3.0678-0.7457 4.5938-0.7461zm-152.55 0.0996c10.207-0.1803 18.449 11.355 19.072 20.947-2.85 13.825-21.312 21.974-32.037 11.262-14.025-8.375-5.1242-28.338 8.4883-31.375 1.5219-0.54375 3.0185-0.80824 4.4766-0.83399zm-79.111 0.0117c16.918 0.3449 27.486 27.629 8.0586 34.822-24.488 13.612-38.961-27.399-13.486-34.012 1.8597-0.59297 3.6776-0.84622 5.4277-0.81055zm-76.189 0.0312c12.449 0.56071 22.664 16.961 15.336 28.041-5.6 8.8125-19.4 12.612-27.713 5.125-14.675-7.0875-7.5238-29.75 6.9512-32.375 1.825-0.62812 3.6473-0.87113 5.4258-0.79102zm231.41 0.041c13.795-0.40599 26.004 18.507 15.74 29.914-8.4 8.6625-23.562 10.174-30.875-0.63867-8.5875-9.7125-0.6383-25.575 10.824-28.5 1.4379-0.48516 2.8835-0.73339 4.3106-0.77539zm-39.951 72.365c14.407 0.0156 28.577 20.853 13.816 30.697-10.812 15.1-34.638 1.025-33.025-15.125 3.25-6.2 8.4762-11.712 14.764-14.875 1.4636-0.4793 2.9549-0.69888 4.4453-0.69727zm77.82 0.0918c17.78-0.47809 26.447 28.755 6.834 35.52-23.662 11.138-37.862-29.727-11.537-34.727 1.626-0.49902 3.1964-0.75245 4.7031-0.79297zm-156.37 0.0137c14.597-0.26155 27.177 21.288 13.006 31.279-11.938 14.125-34.099 0.61289-32.387-15.787 3.4875-5.9875 7.3125-13.299 14.812-14.674 1.5258-0.53086 3.0583-0.7913 4.5684-0.81836zm-76.568 0.0254c13.734-0.16287 26.575 20.505 13.412 30.043-10.288 16.1-35.549 1.8359-33.762-14.602 3.4625-6.4 8.8504-12.65 16.088-14.688 1.4121-0.49805 2.8409-0.73706 4.2617-0.75391zm195.74 69.914c7.1247 0.20399 13.714 6.0789 17.695 11.441 8.5625 18.675-21.713 36.049-32.488 18.262-10.488-9.55-2.3867-25.913 9.8008-28.863 1.6758-0.63281 3.348-0.88693 4.9922-0.83985zm-79.06 0.0527c14.796-0.0828 26.019 21.634 12.131 31.738-11.412 13.275-33.412 0.0629-33-15.287 1.85-7.6875 9.075-13.112 16.188-15.688 1.5832-0.51211 3.1512-0.7551 4.6817-0.76367zm-77.914 0.15625c10.203-0.0598 20.418 9.3574 20.658 19.693-2.8625 14.3-24.438 24.738-33.926 10.25-11.812-9.2375-3.1242-25.75 8.9258-29.312 1.4281-0.42031 2.8842-0.62231 4.3418-0.63086z" fill="#ccc"/>
</g>
</g>
</g>
</svg>
