<?xml version="1.0" encoding="UTF-8" standalone="no"?>
<svg id="svg2" xmlns:rdf="http://www.w3.org/1999/02/22-rdf-syntax-ns#" xmlns="http://www.w3.org/2000/svg" height="214.33mm" width="210.77mm" version="1.1" xmlns:cc="http://creativecommons.org/ns#" xmlns:dc="http://purl.org/dc/elements/1.1/" viewBox="0 0 746.8401 759.43501">
<g id="layer1" transform="translate(1616.3 390.21)">
<path id="path6505" d="m-1006.1-390.21c-1.3844 0.04-2.8262 0.3828-4.3066 1.0957-41.925 20.75-73.875 57.938-103.04 92.801-28.875 5.7625-33.625-21.414-42.475-40.701-24.75-24.588-62.263-34.888-97.051-34.062-13.062 9.25 3.6746 29.988-7.4004 41.238-14.288 12.9-33.775 18.388-52.438 21.188-53.9 16.662-112.08 28.588-156.69 64.625-42.788 31.162-82.062 72.5-92 126.47-11.112 6.325-22.437 13.174-30.824 23.199-34.088 31.825-29.987 90.213 0.9003 122.8 24.112 21.55 58.936 29.85 90.274 24.4 25.425 104.55 52.675 209.04 77.9 313.44 1.9125 2.7 4.6625 3.5367 8.25 2.5117 116.14-0.2 232.29 0.2121 348.41-0.2129 7.8375-5.6125 6.7758-16.461 10.051-24.586 23.325-98.4 50.649-199.79 72.949-295.98 60.988 13.988 126.94-45.387 112.01-108.14-6.5125-22.35-20.838-40.925-38.9-55.025-10.112-39.725-30.812-77.211-61.262-104.86-6.075-4.325-12.888-8.5887-16.051-15.639 3.9375-45.888 7.7496-93.999-3.7129-139.39-1.3184-6.7922-7.1299-15.4-14.605-15.184zm1.5488 7.8984c3.1001-0.3718 4.1957 5.8973 4.9942 7.8223 3.675 16.138 8.9383 32.375 6.2383 49.162-21.35-0.3-39.488-15.474-57.988-24.986 10.8-14.1 28.801-23.463 45.301-31.4 0.5297-0.3563 1.0123-0.5445 1.4551-0.5977zm-235.12 27.848c21.525 2.65 44.136 7.1379 61.711 20.713 14.112 6.9875 14.838 24.474 21.938 36.762 6.7875 18.225 41.939 7.5996 31.102 31.662 8.0625 22.3 32.85 33.489 53.1 43.014 17.025 6.1375 33.374 15.375 52.049 15.475 9.35 2.1875 21.976-0.5496 25.488-10.6 34.9 26.488 58.875 66.711 67.688 109.42 16.5 15.025 34.125 29.062 39.625 52.35 8.5125 38.212-21.537 76.989-58.137 85.914-23.35 9.7375-47.55-1.0254-69.875-7.4629-10.225 5.825-18.526 14.949-29.389 19.736-26.55 6.125-56.262 6.1504-80.262-8.4746-9.45 0.5625-13.3 12.95-23.688 11.838-25.6 8.7875-52.5 1.9117-74.838-11.676-25.062 12.85-55.1 25.939-82.975 12.539-16.312-2.0625-26.6-16.389-41.85-21.039-12.012 2.85-15.476 18.938-29.352 18.75-34.438 13.012-69.937-1.0242-98.35-20.949-23.962 11.3-52.975 21.7-78.625 7.7754-34.138-8.125-48.725-47.287-45.287-78.912 4.975-27.475 27.838-48.076 52.812-57.514 5.9125-50.85 41.874-91.775 81.199-121.19 44.8-37.988 104.31-51.075 159.66-66.662 30.512-5.475 74.662-21.587 66.25-61.475zm177.55 12.287c20.538 6.3375 39.464 22.813 61.764 28.113 12.325-0.075 12.037 14.637 8.0372 22.787 2.2375 6.6875 0.92539 29.487-10.475 19.824-28.662-12.25-56.888-27.775-85-40.125 5.1-11.312 16.886-21.412 25.674-30.6zm-35.1 38.988c33.975 12.425 66.688 31.974 100.71 46.049 4.3625 14.65-2.1254 32.239-11.213 44.264-39.125-4.575-79.687-18.689-108.01-47.039-7.575-16.238 9.5618-31.248 18.512-43.273zm-160.05 37.725c-13.988 5.1625-38.05 2.2617-43.062 20.449 10.862 22.838 26.176 45.264 46.139 60.076 13.462-15.762 9.4989-41.2 9.7989-60.713 0.35-7.6-5.0875-19.325-12.875-19.812zm-2.416 3.0195c11.745 0.4025 17.473 23.375 1.8535 22.606-11.512-0.2375-31.299 17.762-35.637 0.25-4.9625-14.4 16.238-19.188 26.738-20.463 2.4903-1.7676 4.87-2.4671 7.045-2.3926zm8.916 27.154c15.312 15.162-29.549 35.127-33.324 10.352 9.5875-5.675 22.787-5.5891 33.324-10.352zm-2.668 23.674c9.2769-0.5342 2.1172 16.615-2.0312 21.877-4.9-5.2375-10.275-10.049-14.963-15.449 2.325-4.5875 10.037-4.5637 14.912-6.0762 0.7703-0.2016 1.4635-0.3159 2.082-0.3516zm-138.79 6.002c-6.1375 4.85-10.512 11.4-15.25 17.525-5.8125 18.4-22.838 34.361-16.812 55.299 14.888 9.375 43.024 17.527 53.674-0.2734-3.6875-22.912-2.9614-57.901-21.611-72.551zm-0.088 4.8633c5.6625 1.95 8.5493 13.55 10.324 19.625-6.2 2.9-15.925 0.6992-23.338-1.4883 2.825-6.8625 8.1511-12.662 13.014-18.137zm300.94 9.7344c-1.0318 0.024-2.115 0.1382-3.25 0.3515-18.538 3.5375-35.613 12.264-52.4 20.352-5.1125 2.0125-12.612 9.1121-5.4375 13.537 22.238 11.35 48.275 22.675 73.412 15.838 8.6257-13.558 8.6566-50.577-12.324-50.078zm1.3868 1.8027c14.238 6.675 13.864 33.688 7.2011 46.625-29.562 10.788-18.563-21.388-20.275-38.463-0.7375-7.2625 8.5493-5.5496 13.074-8.1621zm-23.449 7.4375c9.7875 5.5125 11.124 52.662-11.951 31.35 6.4-11.938-7.0739-30.337 11.951-31.35zm-294.26 4.6113c13.038 4.95 34.302-2.4738 30.789 18.639-10.45 0.9125-25.826 2.6375-36.914-3.375-0.4375-5.4625 2.45-11.201 6.125-15.264zm273.83 3.3203c8.2458-0.086 1.4993 15.061 3.3457 20.906-7.7625 2.075-12.862-6.2641-20.662-6.3516-1.25-7.525 10.2-8.8617 14.25-14.012 1.2-0.3621 2.2134-0.534 3.0664-0.543zm-284.29 19.131c15.288 2.2875 50.324-3.4512 43.986 21.674-13.688 11.725-61.374 5.0512-43.986-21.674zm171.64 26.277c-0.5954-0.042-1.223 0.034-1.8887 0.2481-16.125 18.725-20.989 46.625-21.826 70.75 14.412 12.825 37.588 8.0125 53.438 0.4375-0.3875-22.175-9.8989-43.026-20.861-61.988-2.1547-3.2047-4.6933-9.1567-8.8613-9.4473zm-0.9043 5.2364c8.0713-0.3619 18.771 22.888 2.6777 19.461-16.688 5.9875-11.514-13.125-3.4511-19.35 0.2539-0.062 0.513-0.1 0.7734-0.1113zm2.4063 23.186c10.903 0.2016 20.598 3.8602 19.258 17.687-15.188-1.375-46.787 7.4383-33.949-16.449 4.5313-0.707 9.7357-1.3299 14.692-1.2383zm154.66 15.002c-2.2887 0-5.066 0.7203-6.4551 0.8242-19.525 12.3-39.725 26.725-49.875 48.287 3.65 18.125 27.812 28.562 44.824 27.85 14.5-19.838 13.476-47.2 13.926-70.625 2.6578-5.168 0.5227-6.3407-2.4199-6.3359zm-4.5312 3.1738c7.925 0.05 3.4125 16.713 4.3125 22.65-8.4625 1.2625-15.824-4.9875-21.199-10.812 5.575-4 10.812-8.5879 16.887-11.838zm102.59 1.0469c-3.203 0.01-6.4227 0.2996-9.6407 0.9394-10.538 23.412-4.0504 51.812 2.0996 75.563 13.6 8.9625 20.187-13.862 29.824-20.449 3.6-15.888 23.864-26.8 16.914-44.912-11.751-5.8297-25.317-11.172-39.197-11.141zm-501.93 0.9257c-0.821 0.021-1.7481 0.254-2.7989 0.752-11.662 5.9375-19.037 16.776-28.637 25.238-5.0875 11.9-19.913 20.675-16.713 35.1 8.725 14.613 27.013 16.25 42.088 19.25 5.0125 0.2625 9.5996-4.3004 9.8496-9.3379 4.2875-20.05 4.8368-40.826 2.9493-61.176-0.9704-3.8707-2.3052-9.9388-6.7383-9.8262zm96.326 0.088c-1.2634 0.015-2.5343 0.081-3.8125 0.2012-9.675 9.375-7.725 25.864-9.0625 38.014 0.4125 7.225 1.8618 18.161 11.949 17.023 22.412-3.7875 45.863-7.5492 66.738-17.262 5.6-9.2125-7.2242-13.962-13.137-18.449-16.394-8.6485-33.724-19.759-52.676-19.527zm162.89 1.6309c4.358-0.01 8.5059 0.4531 12.045 1.8828 13.45 26.138-25.162 24.113-41.412 19.738-2.4875-6.8-4.1129-21.2 7.6621-19.938 6.5938-0.3438 14.442-1.6688 21.705-1.6836zm241.63 0.9355c17.402 0.077 50.426 7.8809 32.461 29.561-13.975-2.675-28.064-5.7121-41.826-9.4121-1.275-7.35-1.9368-16.625 6.1132-20.062 1.0016-0.062 2.0918-0.091 3.252-0.086zm-401.38 0.068c23.222-0.7369 11.265 24.437 9.2793 39.416 0.75 12.475-20.475 12.976-21.375 1.1133-0.6375-13.125-2.7511-31.55 9.7364-40.375 0.8238-0.079 1.6102-0.1305 2.3593-0.1543zm-100.86 2.6797c6.6522 0.261 3.5 14.215 5.7968 19.5-5.7625 4.35-14.7-2.6387-20.688-5.0762-3.4625-7.675 9.2864-9.7121 13.424-14.287 0.5351-0.1109 1.0233-0.1541 1.4668-0.1367zm121.57 3.5879c4.8375 1.5625 11.488 4.1984 15.625 7.8984-1.825 14.725-2.764 33.001-20.914 31.301 0.3875-13.162 3.839-26.099 5.289-39.199zm253.64 7.7363c12.2 0.05 36.238 12.6 23.625 26.775-11.438-3.6375-22.325-10.462-31.312-18.412 2.4625-2.875 4.9-5.8008 7.6875-8.3633zm-233.53 4.5762c7.65 0.025 13.625 6.175 18.625 11.062-3.1875 8.875-14.338 8.2613-21.938 10.799 0.5-7.3875 1.275-14.749 3.3125-21.861zm-164.05 3.1738c11.762 4.1375 37.899 6.1129 26.174 26.15-10.738-2.2375-20.536-9.4379-31.674-11.4-7.9375-4.425 2.175-10.788 5.5-14.75zm382.67 5.5879c12.425 10.338 44.688 12.975 33.738 34.963-12.6 6.9125-25.825-5.3621-36.812-10.975-10.988-7-0.2632-15.776 3.0743-23.988zm135.04 0.062c11.763-0.1096 22.682 6.3008 34.436 7.4258-1 5.6375-4.4746 11.487-8.7871 15.387-7.75-1.475-17.85-9.2629-25.875-4.2754-3.65-5.325-2.7868-12.361-2.1368-18.424 0.7922-0.069 1.5791-0.106 2.3633-0.1133zm-532 11.551c13.925 3.175 27.776 10.911 39.951 17.711 4.55 26.65-28.663 15.138-40.676 5.5625-11.438-3.8125-5.1004-17.248 0.7246-23.273zm536.2 12.039c5.7369 0.1261 11.304 2.0993 16.799 3.7344-3.0125 6.6-6.9492 14.35-13.699 17.438-7.3126-2.3875-7.1746-14.475-7.0996-20.938 1.343-0.1945 2.6761-0.2635 4-0.2344zm-13.02 67.691c11.394-0.2318 6.4738 15.046 4.582 24.369-24.75 94.688-47.075 190.23-71.85 284.71-18.975 4.55-42.189 0.7875-62.701 1.6875 1.1125-35.375 14.038-69.35 17.488-104.59 13.05-61.1 22.361-122.82 35.486-183.88 27.175 4.95 51.552-6.8379 72.914-21.713 1.5492-0.3797 2.9015-0.5698 4.0801-0.5938zm-469.12 2.4336c9.146 0.098 16.486 8.0289 24.801 11.473 23.462 11.788 51.113 12.099 76.363 7.4492 16.238 96.375 37.962 191.85 52.762 288.3-25.85 2.9625-56.675 0.6879-84.438 1.2129-27.038-99.962-50.238-201.09-76.5-301.35-2.9125-3.975-0.6742-7.3766 4.1133-6.8516 0.9879-0.1711 1.9523-0.2445 2.8985-0.2344zm132.35 1.1758c4.9646-0.1413 7.5391 6.6418 12.898 7.3965 29.075 17.762 68.1 22.775 98.062 5.1504 0.4875 98.388-3.0114 196.4-3.1739 294.72-22.325-0.025-44.7 0.5379-67-0.1-19.6-96.238-37.325-193.43-55.35-290.18-2.325-8.5625 7.811-11.187 12.274-16.475 0.8218-0.3406 1.5798-0.5013 2.289-0.5215zm221.1 8.0586c7.1 2.0125 24.288 2.7 21.188 13.812-16.912 95.175-37.438 189.86-52.238 285.33-21.938 0.25-43.913 0.3992-65.838 0.012 0.5375-98.2 3.9386-196.16 2.4511-294.61 30.125 7.7125 67.162 15.873 94.438-4.5391z"/>
</g>
</svg>
