<?xml version="1.0" standalone="no"?>
<!DOCTYPE svg PUBLIC "-//W3C//DTD SVG 1.0//EN" "http://www.w3.org/TR/2001/REC-SVG-20010904/DTD/svg10.dtd">
<svg xmlns="http://www.w3.org/2000/svg" xmlns:xlink="http://www.w3.org/1999/xlink" id="body_1" width="717" height="538">

<g transform="matrix(3.5829883 0 0 3.5829883 42.00572 -0)">
	<g>
		<g>
            <path d="M55.867 16.578C 55.579002 17.297998 53.959 18.342 51.151 19.421999C 48.199 20.466 42.979 20.862 38.839 23.237999C 34.591 25.542 30.343 31.085999 26.527 33.642C 22.639 36.053997 18.319 35.586 16.087002 38.357998C 13.783002 41.165997 15.619001 46.458 13.243002 50.201996C 10.7230015 53.801994 3.703002 56.465996 1.9030018 60.137997C -0.004998207 63.629997 -1.3729982 67.55399 2.3710017 71.514C 6.1150017 75.438 13.243002 79.541 24.151003 83.826996C 28.147003 100.962 31.279003 113.994995 34.087 123.605995C 36.751003 133.038 38.803 138.72699 40.243004 140.67C 40.207005 143.51399 44.851006 145.674 54.463005 147.293C 64.11101 148.914 85.09901 150.318 97.55501 150.137C 109.90301 149.70499 119.73101 148.301 127.86801 145.385C 132.548 139.805 136.75902 132.35399 140.64702 122.201C 144.53601 112.086 147.95602 99.918 151.05103 85.265C 156.16202 84.617 160.08603 83.142 163.36403 80.982C 166.42303 78.712006 167.75504 74.465004 169.98703 71.981C 172.25504 69.425 176.14304 68.165 176.64703 65.825005C 176.86403 63.269005 174.27003 59.777004 172.36403 57.293007C 170.41902 54.701008 167.75504 52.973007 165.73903 50.705006C 163.72302 48.401005 162.03203 46.205006 160.51804 43.577007C 158.86403 40.841007 160.33804 36.593006 156.73903 34.577007C 153.13902 32.489006 144.28403 34.073006 139.20802 31.265007C 134.02202 28.349007 130.67502 20.537006 125.96002 17.549007C 121.09902 14.525007 114.98003 15.317007 110.80402 13.265007C 106.663025 11.033007 104.75502 6.893007 101.33502 4.7330074C 97.843025 2.4290075 94.42302 0.1610074 89.96002 0.01700735C 85.21202 -0.08899265 78.552025 2.7910073 73.872025 3.7980072C 69.15602 4.698007 64.98003 3.0060072 62.028023 5.2380075C 58.932022 7.4350076 57.02402 11.035007 55.872025 16.579006L55.872025 16.579006L55.867 16.578z" stroke="#000000" stroke-width="0.036" fill="#000000" fill-rule="nonzero" />
            <path d="M69.691 6.174C 67.135 6.462 65.407005 5.5979996 63.679 6.894C 61.843002 8.118 60.115 11.1779995 59.071 13.59C 57.919 15.894 59.647 18.954 57.307 20.682C 54.822998 22.265999 48.055 22.518 44.923 23.526C 41.683 24.39 41.503 24.425999 38.551 26.693998C 35.383 28.925999 30.522999 34.649998 26.887 37.061996C 23.178999 39.401997 18.390999 37.889996 16.951 40.589996C 15.403 43.145996 19.327 49.301994 18.031 52.541996C 16.663 55.637997 8.059 57.581997 9.175 59.633995C 10.255 61.685997 16.843 62.333996 24.763 64.925995C 32.719 67.518 45.679 72.45 56.263 74.86199C 66.667 77.16599 87.295 77.814995 87.043 78.74999C 86.539 79.61299 64.507 81.05299 54.139 80.15399C 43.663002 79.07399 33.331 75.257996 25.087 72.73699C 16.663 70.10899 8.275 65.14099 4.927 64.924995C 1.651 64.70899 1.1110001 68.704994 5.6470003 71.657C 10.183001 74.573 20.335 79.215996 31.819 82.277C 43.231 85.265 59.071 88.326004 73.938995 89.369C 88.73499 90.269005 105.15099 89.693 119.982994 87.93C 134.743 86.094 156.66699 79.866 161.743 78.391C 166.567 76.805 155.731 78.173996 149.358 78.75C 142.879 79.182 123.295 82.063 123.51 81.559C 123.834 80.946 142.41 77.922 150.76201 75.546C 159.04301 73.133995 169.55501 69.605995 172.723 67.049995C 175.78401 64.35 171.03201 62.477997 169.15901 59.633995C 167.143 56.609997 163.003 53.477997 161.02202 49.697994C 158.93402 45.917995 160.73502 39.653996 157.13503 37.313995C 153.31903 34.937996 144.49803 38.105995 139.42203 35.549995C 134.41803 32.885994 131.75403 24.677996 127.399025 21.761995C 122.86403 18.809996 117.75102 20.141994 112.89102 17.837996C 107.92202 15.317995 102.48702 9.701996 98.38302 7.2179956C 94.24202 4.6979957 91.291016 3.3299956 88.12302 2.9699955C 84.81102 2.5379956 81.96702 4.5899954 78.90701 5.0939956C 75.77602 5.5979958 72.24802 5.7779956 69.69202 6.1739955L69.69202 6.1739955L69.691 6.174z" stroke="#000000" stroke-width="0.036" fill="#A97408" fill-rule="nonzero" />
            <path d="M44.203 136.1C 41.322998 127.100006 30.991 92.073006 30.414999 87.93201C 29.874998 83.90101 39.451 111.04301 40.675 112.01601C 41.683 112.772 36.246998 92.864006 37.147 93.26001C 38.083 93.61901 44.419 114.21101 46.003 114.50001C 47.335 114.57201 44.815 95.27501 45.642998 94.66401C 46.470997 94.19501 49.206997 111.22301 50.934998 111.29501C 52.554996 111.11501 54.318996 93.83601 55.543 94.30301C 56.659 94.84401 56.695 113.99601 58.027 114.13901C 59.215 114.032005 61.627 89.229004 63.319 94.30301C 64.939 99.56101 68.647 140.02402 67.927 144.59601C 67.063 148.807 60.259003 120.44001 58.747 120.15301C 57.199 119.97101 59.647003 142.47101 58.747 142.796C 57.739002 142.83301 53.851 121.80801 53.059002 121.233C 52.267002 120.764 54.319 139.30301 53.779003 139.628C 53.023003 139.66501 49.675003 122.31401 49.171005 122.27601C 48.667004 122.31301 51.943005 139.807 50.935005 139.628C 49.783005 139.12401 43.375004 120.44 42.799004 120.51301C 42.223003 120.69301 47.047005 137.97202 47.407005 140.673C 47.623005 143.223 46.975006 144.843 44.203007 136.093L44.203007 136.093L44.203 136.1z" stroke="#000000" stroke-width="0.036" fill="#A16121" fill-rule="nonzero" />
            <path d="M136.62 104.56C 135.21599 111.183 127.510994 134.259 125.99899 137.14C 124.37999 139.767 128.411 121.228 127.40299 121.228C 126.17799 121.298 120.67099 137.14 119.62799 137.499C 118.58299 137.67899 122.36199 122.521996 121.39199 122.99099C 120.274994 123.52999 113.47199 145.02199 113.61499 140.66699C 113.72399 135.987 120.815994 100.12999 122.11099 96.42299C 123.33599 92.89599 120.05999 119.35499 121.03099 119.42699C 121.93099 119.35499 126.32399 96.457985 127.40399 96.42299C 128.232 96.35099 125.674995 118.81599 126.68299 119.10299C 127.79999 119.067986 131.976 100.02299 133.775 97.50299C 135.47499 95.08699 137.81499 97.857994 136.635 104.55299L136.635 104.55299L136.62 104.56z" stroke="#000000" stroke-width="0.036" fill="#A16121" fill-rule="nonzero" />
            <path d="M114.66 101.4C 112.969 95.82 111.312004 93.587 109.691 94.306C 107.964005 95.064 106.453 98.915 104.759 106.007C 102.816 97.114006 101.087006 92.65201 99.431 92.18301C 97.74 91.714005 96.263 95.49601 94.859 103.52301C 91.873 96.97001 89.64 93.94701 87.768 94.30601C 85.895996 94.70201 84.6 98.339005 83.88 105.64801C 81.647995 97.87101 79.74 93.87501 77.868 93.26301C 75.923996 92.68701 72.972 94.16301 72.899994 102.11801C 72.86399 110.07501 75.743996 134.80602 77.507996 140.35C 79.128 145.641 80.892 143.518 82.799995 133.979C 84.743996 141.17801 86.507996 144.85 88.091995 145.282C 89.63999 145.606 90.899994 142.54599 92.01499 136.10199C 93.70799 142.51 95.29199 145.71298 96.62399 146.00198C 97.95599 146.18198 99.17899 143.44498 100.15099 137.50598C 101.841995 142.72498 103.354 145.13698 105.08299 144.59798C 106.703995 143.94998 108.357994 141.50198 110.051994 134.33798C 111.672 126.94798 113.11199 116.29798 114.661995 101.39798L114.661995 101.39798L114.66 101.4z" stroke="#000000" stroke-width="0.036" fill="#A16121" fill-rule="nonzero" />
		</g>
	</g>
</g>
</svg>