<?xml version="1.0" encoding="UTF-8" standalone="no"?>
<svg id="svg4375" xmlns:rdf="http://www.w3.org/1999/02/22-rdf-syntax-ns#" xmlns="http://www.w3.org/2000/svg" height="226.82mm" width="213.45mm" version="1.1" xmlns:cc="http://creativecommons.org/ns#" xmlns:dc="http://purl.org/dc/elements/1.1/" viewBox="0 0 756.325 803.69948">
<g id="layer1" transform="translate(-10.409 -130.51)">
<g id="g5023">
<ellipse id="path4322" rx="16.65" ry="16.425" cy="265.72" cx="577.6" fill="#ff0"/>
<path id="path4302" d="m392.09 209.29c-11.591 3.6398-3.4338 20.765-11.786 28.549-17.449 29.18-56.097 28.779-84.474 39.987-54.288 15.119-110.03 33.46-151.48 73.56-31.3 28.274-60.262 63.672-66.465 106.6-13.845 9.2892-30.187 16.974-39.708 31.886-30.745 39.546-5.3037 108.46 45.967 114.19 22.629 5.4199 45.985-0.0607 66.84-8.0737 28.117 11.611 57.702 30.073 89.465 20.582 15.349-2.2472 27.273-13.186 40.391-19.411 22.828 10.732 45.419 28.311 72.495 24.137 18.837-0.48997 36.135-12.946 52.997-15.54 28.411 16.131 65.299 19.178 93.483 0.6777 25.081 5.0298 53.29 15.976 79.654 5.9987 17.091-3.0914 29.607-26.228 48.319-15.475 53.039 24.133 126.21-24.753 115.56-84.46-6.342-31.273-40.347-46.373-46.835-77.707-12.51-35.535-35.683-69.449-65.796-90.933-10.253 2.395-22.983 24.032-26.928 4.9392-9.1642-19.05-33.522-8.6522-48.828-5.067-8.9005 1.2089-18.686 10.372-26.337 8.7175-2.4285-23.411-4.1216-50.848-21.41-68.559-10.066-5.8168-25-2.1464-31.253-14.546-9.9618-17.142-15.694-39.472-37.031-46.18-14.679-7.0276-30.54-12.634-46.846-13.869z" fill="#faa"/>
<path id="path4" d="m442.9 130.51c30.975 12.45 60.388 33.075 96.212 26.138-3.0625 39.288-6.7875 87.725 22.475 118.91-2.0875-6.25-4.2-12.562-8.15-17.938 4.9875-11.788 17.738-19.6 26.275-26.925-3.775 14.538 12.45 31.162 26.525 21.438 4.8 14.1-7.3125 43.488-28.138 31.7 37.55 18.5 91.6 23.85 126.82-5.8875 6.65-2.65 4.75 8.7875 7.25 11.875 7.4875 27.188 31.35 43.988 54.562 57.175-22.638 6.0875-56.975-10.838-77.45 11.775-10.35-10.575-26.062-28.812-41.438-17.362 31.088 22.012 51.562 57.9 64.25 93.75-0.025 24.188 29.275 29.475 34.725 51.2 21.375 32.738 9.25 79.112-18.975 103.62-20.8 19.6-50.425 29.938-79.175 26.6-24.375 91.862-46.35 186.14-70.462 278.79-3.325 12.725-3.225 28.3-12.462 38.388-118.48-0.6625-238.34 2.1875-355.96-1.4125-26.238-104.9-53.575-210.06-78.475-315.48-37.488 10.75-84.925-1.375-106.48-36-9.7-15.925-12.438-35.05-14.425-53.225 1.125-34.8 26.375-63.038 55.312-78.7 13.9-67.162 68.888-113.85 124.45-147.94 46.825-22.7 97.575-35.075 147.6-48.562 16.762-4.15 38.862-15.3 33.55-36.612-3.8875-7.5875-3.0875-22.425 8.525-20.85 29.925 1.6625 62.538 8.8 85.225 29.425 15.888 6.575 10.088 33.162 23.975 38.325 7.25-14.062 8.775-37.025-4.6875-48.925-8.15-5.3375-15.95-11.088-25.088-14.725 12.212-12.488 14.412-34.262 2.5625-47.775-3.5-9.375-15.788-12.262-18.938-20.8m-55.138 81.275c5.1875 22-9.125 41.512-27.962 50.262-65.425 22.638-139.01 30.938-194.39 75.55-41.225 30.138-78.863 72.038-85.113 124.81-35.05 10.412-64.175 50.575-49.738 87.8 9.125 54.075 81.325 67.838 121.25 39.162 34.05 29.138 92.3 40.525 125.11 3.5625 14.862 1.5 27.35 16.738 42.538 20.825 28.988 11.588 59.538 1.75 84.825-13.475 27.85 20.188 70.338 23.888 96.588 0.2625 26.188 12.8 58.75 19.675 86.475 6.4 12.8-5.0375 21.762-24.238 36.95-14.488 41.475 22.488 98.712-2.05 113.48-46.275 14.262-34.325-9.9125-67.612-36.75-86.6-9.0125-44.575-34.3-85.375-70.425-112.89-7.75 5.1125-16.188 9.4-22.675 16.188-6.75-2.6625-2.525-12.712-8.1625-16.738-10.65-12.875-28.925-2.4-42.3-0.2875-11.662 0.6375-19.275 13.888-31.538 10.25 0.1-15.075-0.8875-30.362-6.9875-44.375-4.0875-13.112-9-31.025-26.862-29.288-24.075-0.5375-24.625-28.3-34.662-44.088-19.775-15.7-44.512-24.675-69.65-26.575m179.65 42.45c-5.1375 25.312 24.4-6 0 0m16.3 8.7125c-4.3 1.925-9.7375 12.862-1.9125 12.188 9.35 4.45 7.6375-12.938 1.9125-12.188"/>
<g>
<path id="path4304" d="m149.25 639.88 469.75 0.54529-23.312 112.32l-86 154.79-252.26-5.73-77.4-166.26z" fill-rule="evenodd" fill="#e6b948"/>
<ellipse id="path4310" rx="5.8277" ry="4.9409" cy="529.82" cx="305.92" fill="#ff0"/>
<ellipse id="path4316" rx="6.5588" ry="5.6644" cy="318.43" cx="390.99" fill="#ff0"/>
</g>
<path id="path12" d="m411.2 283.84c9.2625-0.0125 18.538-0.1875 27.8-0.2-1.9625 5.3875-7.2 10.388-5.2125 18.125-11.162 1.7625-14.35 13.938-11.838 22.512-14.588 3-12.488 17.988-18.812 27.288-7.7-7.975-20.175-14.725-29.925-6.4-6.325-7.675-16.825-12.662-25.075-5-7.3875-5.4125-20.375-3.625-24.662-9.5625 10.388-1.15 17.038-9.075 22.012-16.688 10.275 9.875 25.612 12.312 39.775 12.912-1.5625-5.4875-5.25-10.25-5.15-16.25 5.6625 5.2375 12.038 2.3375 12.5-5.2125 2.8375 3.6625 4.5 8.8875 8.925 10.912 8.8375-8.65 4.925-21.975 9.6625-32.438m-19.188 30.312c-1.275 5.7875 5.7875-1.275 0 0m-3.75 2.5c-1.275 5.7875 5.7875-1.275 0 0z"/>
<ellipse id="path4318" rx="7.1551" ry="7.4532" cy="405.67" cx="508.01" fill="#ff0"/>
<path id="path16" d="m459.62 351.26c9.5375 2.9 16.475 12.512 27.788 11.262 0.575 13.275 0.9375 28.438 11.162 38.35 5.2375 5.8625 3.9875-9.1625 7.8125-8.8125 1.7625 5.4875 7.4125 9.4375 12.825 5.8125-0.1875 5.6875-5.2125 9.875-5.55 15.325 12.562 1.575 22.9-6.5125 34.05-9.9125 2.55 9.675 10.562 16.35 13.95 25.65-7.1625-3.7-13.325-0.375-19.6 3.0625-6.8375-6.2875-17.025-7.025-23.05 0.6625-9.3375-5.875-22-3.3125-33.175-2.5125 2.0375-9.0875 3.975-25.912-9.9125-25.788 1.15-8.8125 4.325-23.325-7.6375-26.075 0.95-10.288-4.8375-18.138-8.6625-27.025m44.888 49.138c-1.275 5.7875 5.775-1.275 0 0m6.25 2.5c-1.275 5.7875 5.775-1.275 0 0z"/>
<ellipse id="path4308" rx="6.2711" ry="5.1309" cy="387.35" cx="236.81" fill="#ff0"/>
<path id="path18" d="m220.78 357.01c9.325 2.5875 21.738 10.775 31.038 2.35 16.188 11.975 37.25-3.9625 52.05 7.875-10.038 1.8875-15.888 10.225-19.438 18.988-12.988-8.6875-29.8-8.9125-43.538-5.2 6.05 0.675 6.8875 7.725 8.8375 12.338-5.7625-2.0125-12.575-2.2-11.9 6.2375-5.8625 0.75-5.1375-10.45-10.75-10.275-4.125 10.962-5.6375 22.562-5.675 34.238-9.2125-0.7375-18.025 1.625-26.962 3.1375 6.975-6.7-2.125-18.725 8.05-21.925 7.3-4.025 6.025-13.825 3.5625-20.588 12.612-2.075 13.088-17.175 14.725-27.175m17.475 27.138c-1.275 5.7875 5.7875-1.275 0 0m-3.75 5c-1.275 5.7875 5.7875-1.275 0 0z"/>
<ellipse id="path4306" rx="5.891" ry="3.1672" cy="441.38" cx="378.19" fill="#ff0"/>
<path id="path30" d="m335.23 417.04c5.1375-2.5125 4.25 5.625 5.9625 8.5125 8.6 8.4375 18.225 16.838 30.25 19.925-0.8375-5.0625-3.6375-10.325-1.6625-15.375 3.2125 6.0625 13.675 8.1375 15.325 0.0125 2.075 4.05-3.4 15.588 3.725 15.062 8.7125-6.325 13.838-17.312 21.662-23.625 6.1375 6.6 37.125 7.6 18.75 13.5-7.8375 1.3625-1.8125 16.325-12.638 12.475-9.5375-3.2375-12.9 6.05-13.15 13.438-13.25-2.475-21.625 7.1875-30.375 14.312-3.45-8.7125-11.638-20.025-22.012-16.775-5.0625-7.025-10.55-21.538-21.45-16.425-5.825-5.95-9.975-14.2-18.812-16.225 6.1-3.15 18.55-0.4 24.425-8.8125m38.025 23.362c-1.275 5.7875 5.7875-1.275 0 0m7.5 0c-1.275 5.7875 5.7875-1.275 0 0z"/>
<ellipse id="path4312" rx="7.4747" ry="5.891" cy="512.26" cx="149.84" fill="#ff0"/>
<path id="path38" d="m170.13 477.55c5.175 0.8875 36.8-3.875 21.838 4.95 8.075 17.25-23.062 15.588-11.812 33.962-13.575 3.35-13.225 18.75-18.788 28.288-6.55-3.3375-15.312-16.338-24.788-9.8125-7.5375 7.8875-13.012-8.475-21.85-5.475-10.912 7.225-22.463-2.9-34.075-2.925 5.6125-7.3375 19.363-8.2 22.438-18.9 10.138 10.2 25.888 10.062 39.6 11.612-0.4-4.5625-9.5375-12.6-3.8625-14.962 5.8375 6.375 10.7-0.925 13.262-6.4125 2.825 3.625 2.2375 10.575 6.9625 12.075 7.8125-9.2375 6.55-21.825 11.075-32.4m-19.375 30.35c-1.275 5.7875 5.7875-1.275 0 0m-5 2.5c-1.275 5.7875 5.7875-1.275 0 0z"/>
<ellipse id="path4320" rx="5.9626" ry="5.4001" cy="507.15" cx="637.79" fill="#ff0"/>
<path id="path40" d="m597.72 478.25c5.275-2.85 4.925 5.85 6.95 9.0125 3.2125 10.862 14.788 14.438 22.112 21.85 9.8 5.2625-1.0875-10.562 2.9625-13.725 4.2875 4.5 13.462 8.1 15.212-0.4 2.3875 3.9375-2.7875 14.312 2.8625 15.125 11.412-2.9 16.088-16.075 26.15-20.862 3.1625 10.775 19.438 6.55 22.475 15.8-11.175-2.2125-10.512 13.675-20.35 10.662-8.775-2.9125-13.712 6.05-16.1 12.788-10.412-3.6625-22.038 4.225-29.538 11.8-5.2125-6.8875-8.5125-25.038-21.088-19.675-5-20.012-28.95-23.362-37.675-40.3 8.525-0.3125 19.05 4.6625 26.025-2.075m36.788 27.15c-1.275 5.7875 5.775-1.275 0 0m6.25 0c-1.275 5.7875 5.775-1.275 0 0z"/>
<path id="path52" d="m262.73 505.77c8.7375 6.625 16.938 24 32.038 26.562 9.8125 5.275-4.325-18.288 4.95-11.388 10.875 9.1625 16.05-11.925 13.638 11.238 12.538 1.15 15.45-17.975 25.612-21.625 7.6875 4.55 16.212 7.125 25.05 8.4125-3.0875 5.1125-12.988 5.6875-12.9 14.588-9.3 0.225-20.85 2.7125-20.325 14.9-13.325-3.0625-21.238 8.2375-29.012 15.462-5.4125-6.7875-11.388-21.775-23.15-16.638-5.0125-7.4125-8.6875-21.65-20.725-16.7-5.775-4.6125-10.425-15.05-19.612-15.862 6.025-3.325 18.825 0.1875 24.438-8.95m39.275 23.375c-1.275 5.7875 5.7875-1.275 0 0m6.25 0c-1.275 5.7875 5.7875-1.275 0 0z"/>
<ellipse id="path4314" rx="6.5878" ry="4.7508" cy="541.65" cx="483.54" fill="#ff0"/>
<path id="path54" d="m463.33 516.62c10.638 4.0875 21.65-0.9625 28.838-8.7375 6.4 4.8 6.5375 21.325 18.188 21.175 8.4 1.8875 3.5125 16.762 12.838 18.625 12.638 0.575 14.45 15.562 22.312 22.788-8.975-2.1-18.85-4.7875-26.4 2.0875-5.225-12.562-11.425-27.125-24.95-32.312-4.5125 2-1.7375 9.975-4.725 14.05-1.15-8-10.6-8.85-13.488-1.425-0.25-5.775-0.25-11.525-0.4125-17.3-12.025 0.825-17.888 13-27.475 18.412-7.2625-5.375-16.1-11.238-23.162-15.188 11.35 1.925 13.062-17.138 24.512-10.1 8.4 2.025 9.8625-7.4625 13.925-12.075m14.925 23.775c-1.275 5.7875 5.7875-1.275 0 0m7.5 0c-1.275 5.7875 5.775-1.275 0 0z"/>
<path id="path4997" d="m617.88 609.41c-12.505 3.7109-21.351 15.507-34.598 17.729-26.456 9.2332-54.692 1.6401-80.854-4.7539-28.599 15.966-64.57 14.815-93.879 1.3281-3.666-3.0772-7.7757-1.0394-11.705 0.40625-18.43 7.5123-37.993 14.969-58.297 12.426-21.068-1.5544-39.188-13.189-57.613-22.277-17.572 11.875-38.207 20.398-59.713 19.92-25.128-0.48068-48.236-11.91-70.606-21.982-6.1893 2.3403-12.575 4.2442-19.07 5.6855 24.836 105.07 52.081 209.9 78.234 314.46 117.62 3.6 237.49 0.74961 355.96 1.4121 9.2375-10.088 9.1379-25.662 12.463-38.387 24.012-92.262 45.903-186.14 70.156-277.63-0.9952-0.102-1.9893-0.21437-2.9824-0.34961-9.7549-0.43074-18.408-5.0524-27.5-7.9844zm-269.38 33.27c13.84-0.11849 28.573 18.946 15.24 29.447-7.8125 11.838-24.737 8.8-31.287-2.75-8.7875-10.462 2.6875-21.476 11.812-26.014 1.3805-0.45352 2.8027-0.67134 4.2344-0.68359zm-77.93 0.0566c7.1247 0.20399 13.714 6.077 17.695 11.439 8.5625 18.675-21.713 36.051-32.488 18.264-10.475-9.55-2.3867-25.913 9.8008-28.863 1.6758-0.63281 3.348-0.88692 4.9922-0.83984zm-77.061 0.0586c13.527-0.25515 26.674 19.537 14.055 29.381-7.35 12.45-24.911 8.4379-31.361-2.7871-8.825-10.562 2.9625-22.738 13.125-25.838 1.3793-0.48867 2.7823-0.72947 4.1816-0.75586zm388.75 0c13.527-0.25515 26.674 19.537 14.055 29.381-7.35 12.45-24.924 8.4379-31.361-2.7871-8.825-10.562 2.9625-22.738 13.125-25.838 1.3793-0.48867 2.7823-0.72947 4.1816-0.75586zm-155.71 0.0156c17.869-0.33831 26.055 28.302 6.8223 35.504-23.625 11.175-38.25-30.139-11.562-34.764 1.6426-0.47559 3.226-0.71156 4.7402-0.74023zm75.625 0.0352c13.467-0.30244 28.338 17.938 15.922 28.643-7.0625 10.275-23.8 11.925-30.162 0.0254-10.762-9.4125-0.8863-24.587 10.139-27.949 1.3312-0.45703 2.7085-0.68746 4.1015-0.71875zm-191.21 72.367c12.537 0.22302 23.474 16.688 14.582 27.363-5.7875 13.288-26.826 11.287-33.014-0.80078-7.8625-10.2 1.7887-23.95 13.014-25.6 1.8031-0.69531 3.627-0.99475 5.418-0.96289zm-77.524 0.0723c12.731 0.40144 25.404 16.007 15.768 27.229-6.3375 11.312-25.712 12.937-31.824 0.69922-9.0625-9.4875-0.7504-24.649 10.662-27.111 1.7562-0.62031 3.5758-0.87375 5.3945-0.81641zm231.54 0.0703c10.424-0.27686 20.429 8.898 20.385 19.584-2.7875 15.275-24.649 23.5-34.361 9.6621-10.475-9.3625-2.7008-25.575 9.5117-28.525 1.4781-0.44844 2.9757-0.68115 4.4648-0.7207zm78.207 0.0664c7.5876 0.0791 15.487 5.1199 17.041 12.768 4.825 12.6-8.4379 27.086-21.775 23.086-18.575-1.8875-19.849-33.273-0.3867-35.086 1.6359-0.53906 3.3701-0.78582 5.1211-0.76758zm-154.43 0.0274c10.542-0.26558 21.695 9.2957 19.037 20.627-1.525 13.075-17.812 19.188-28.875 13.463-13.5-7.6875-11.25-31.575 5.4004-33.35 1.439-0.4625 2.9315-0.70229 4.4375-0.74023zm-42.295 70.936c15.091 0.0654 28.158 22.982 12.582 32.316-11.325 11.838-33.438 0.27422-31.926-15.488 2.5125-6.95 8.0375-12.812 14.625-16.074 1.575-0.52266 3.1576-0.76067 4.7188-0.75391zm79.525 0.1211c13.403-0.50548 25.08 18.683 15.281 29.32-8.1375 12.188-27.351 8.8746-33.426-3.3379-4.4375-10.925 3.5137-22.262 13.951-25.162 1.4016-0.50508 2.8068-0.76802 4.1934-0.82031zm77.42 0.0293c16.744 0.44807 27.804 27.863 7.9121 34.604-23.862 14.025-39.089-27.437-13.264-33.824 1.8258-0.58359 3.6195-0.82565 5.3516-0.7793zm-233.52 0.041c13.795-0.40599 26.006 18.505 15.742 29.912-8.4 8.6625-23.562 10.176-30.875-0.63672-8.5875-9.7125-0.6383-25.575 10.824-28.5 1.4379-0.48516 2.8815-0.73339 4.3086-0.77539zm195.18 69.84c14.762 0.0548 28.658 21.979 13.172 31.461-11.162 13.725-34.538 0.2875-32.525-15.875 3.2875-6.175 8.4879-11.701 14.775-14.863 1.5141-0.50039 3.051-0.72832 4.5781-0.72266zm-78.24 0.01c7.0565 0.12191 13.226 6.1426 17.35 11.576 10 15-15.063 33.036-27.775 22.648-14.6-7.9125-9.7859-29.662 5.4141-33.287 1.7086-0.67969 3.3833-0.96563 5.0117-0.9375zm-76.906 0.10156c13.999-0.29527 26.061 20.342 13.793 30.549-11.062 14.825-36.312 2.0383-34.262-15.074 3.4875-6.375 8.8504-12.638 16.088-14.676 1.4648-0.51328 2.9327-0.76828 4.3808-0.79883z" fill="#ccc"/>
</g>
</g>
</svg>
