<?xml version="1.0" encoding="UTF-8" standalone="no"?>
<svg id="svg2" xmlns:rdf="http://www.w3.org/1999/02/22-rdf-syntax-ns#" xmlns="http://www.w3.org/2000/svg" height="220.03mm" width="210.91mm" version="1.1" xmlns:cc="http://creativecommons.org/ns#" xmlns:dc="http://purl.org/dc/elements/1.1/" viewBox="0 0 747.31075 779.63445">
<g id="layer1" transform="translate(1616.5 388.88)">
<path id="path6449" d="m-998.64-388.88c-8.175 1.9-15.85 5.4141-20.375 12.727-31.062 30.55-64.1 59.8-83.412 99.438-15.962-1.5375-44.062 2.1742-45.062-21.113-0.7125-15.125-13.688-23.538-23.938-32.275-24.725-13.675-52.9-22.775-81.375-19.4-9.025 3.8-3.6504 13.901-2.5879 21.113 2.7625 13.112-7.6133 23.488-17.863 29.312-52.975 16.662-107.89 27.775-158.54 51.287-58.15 34.062-115.3 82.05-129.84 151.41-42.45 19.425-69.262 72.351-46.688 116.99 11.038 35.538 49.376 52.688 84.051 54.676 11.062 0.525 21.75-6.5266 32.812-3.1016 24.725 103.27 51.975 206.19 76.787 309.54 0.3 4.675 3.6379 11.186 9.8379 8.3359 116.15-0.1375 232.32 0.225 348.47-0.1875 6.05-4.475 6.1625-12.837 7.5-19.574 25.738-99.125 49.6-198.86 75-297.95 31.512 0.625 63.763-14.338 84.9-38.5 18.738-25.363 27.912-62.402 10.412-90.602-4.75-17.088-20.712-25.998-31.75-38.461-7.1375-31.713-24.163-62.589-44.025-86.951 2.7625-4.3625 1.625-10.574-2.75-13.424-17.788-12.338-34.561-26.651-51.773-39.076-2.7-31.45 8.3742-61.662 12.199-92.438 8.0375-14 25.588-6.8129 32.301 4.0371-0.6875 6.2375 2.6492 19.064 11.199 13.139 11.562-31.862-9.175-75.889-45.5-78.951zm-2.2129 10.801c18.063 3.3375 38.451 18.525 38.076 39.1-9.5125-1.1875-17.251-14.175-27.576-7.4004-30.888 16.088-19.1 58.938-29.9 86.488-7.025-5.925-22.912-2.85-21.199-15.562 5.2875-11.938-16.075-19.488-20.438-8.6504-3.7875 9.35-15.725 1.6246-22.787 2.8496 1.375-13.3 14.375-21.588 19.725-33.312 21.588-20.8 42.687-42.399 64.1-63.512zm-238.15 44.838c32.975 1.125 77.575 15.437 80.9 54.324-7.55 2.8625-18 1.5754-22.963 8.9629-5.75 15.088 11.914 18.925 17.701 29.35 35.788 31.475 79.438 57.65 128.21 60.725 20.9-0.8125 42.65 6.2137 62.912 1.6387 21.425 25.8 40.525 55.888 45.213 89.838 11.962 13.4 30.149 22.362 35.387 41.012 26.838 56.425-39.7 116.54-94.912 99.949-11.162-1.2125-22.613-14.75-33.551-6.1875-25.075 26.488-67.524 26.65-98.486 10.625-6.7-3.975-14.451-0.9125-18.014 5.5625-22.862 10.875-51.261 12.214-73.236-1.6484-6.1625-3.35-13.562-8.65-20.312-3.375-28.488 19.488-69.501 21.373-96.988-0.78906-9.4625-0.7875-18.324-17.85-26.824-6.6875-33.262 34.362-88.363 20.377-121.28-7.0859-33.275 23.125-83.051 19.511-109.89-11.852-13.775-24-22.636-56.775-4.7734-80.812 9.2875-16.025 25.723-28.7 43.211-34.287 8.425-62.975 58.125-108.8 108.81-141.05 49.612-29.45 108.1-38.412 162.4-56.438 22.588-5.4375 41.362-27.3 36.475-51.775zm187.88 51.268c9.5033 0.0931-1.9719 19.864 2.0859 27.969 3.85 17.7-15.15 6.5875-24.588 5.375 5.4125-10.85 11.464-21.348 17.039-32.086 2.3203-0.88125 4.1053-1.2711 5.4629-1.2578zm-91.758 14.318c21.264 0.051 41.189 6.0488 60.67 15.752-4.5875 18.6 26.661 10.449 36.174 11.637 29.912 7.3625 51.325 33.812 76.662 49.387-65.238 11.525-139.15-10.6-186.84-59.412-5.05-2.325-18.002-14.662-8.4141-15.35 7.4188-1.3875 14.656-2.0307 21.744-2.0137zm-93.143 5.9394c-16.588 11.55-26.939 33.099-34.639 50.299-9.4375 2.3875-23.412-0.51289-29.662 9.0371 23.462 22.9 60.038 31.262 90.9 19.25-1.35-8.975-14.287-13.787-22.787-16.262-2.3875-12.862-1.7129-26.363 0.4121-39.213 4.9875-6.8 12.524 2.3133 14.549 7.4883 5.8125-13.538-5.3109-28.675-18.773-30.6zm1.291 4.7285c6.6829-0.0673 20.709 16.479 8.5332 12.096-20.738-5.425-1.7121 40.725-19.912 32.312-2.625-10.462-14.513 3.8629-16.551-4.7246 6.5625-14.4 15.214-28.438 26.701-39.438 0.3703-0.16328 0.783-0.24161 1.2285-0.24609zm-17.805 42.146c6.9 1.275 5.0379 17.173-2.2246 15.898-5.9-3.675 0.6996-10.886 2.2246-15.898zm-25.115 8.1387c10.9-0.3253 18.312 10.873 29.291 8.8477 12.088-3.6625 24.274 6.0504 31.887 12.775-22.95 8.5-50.875 2.225-71.25-12.5-8.825-1.6-3.6992-8.5996 3.6133-7.5996 2.3027-1.0078 4.4404-1.4632 6.459-1.5234zm-96.035 23.531c-8.7165 0.14912-18.067 2.1418-25.773 1.291-16.888 3-32.213 13.351-44.213 25.326-1.725 16.438 25.763-1.6246 31.9 12.15 3.8375 9.7625 11.998 18.824 10.961 29.736-2.875 7.425-10.362-1.0621-15.35-0.22461 2.9125 13.25 21.064 27.488 33.014 14.238 4.35-17.85 9.6492-37.15 4.1367-55.375 5.8-8.9625 22.412-10.238 23.438-21.938-4.9383-4.3203-11.334-5.321-18.113-5.2051zm-4.3984 4.0586c5.4654-0.003 10.713 0.41679 15.148 1.5215-3.3125 16.725-25.124 14.061-38.111 15.111-5.85 11.462-30.425 11.825-35.438 4.1621 11.25-7.3875 23.324-16.924 37.512-19.262 6.4758-0.82969 13.862-1.5296 20.889-1.5332zm-18.607 18.371c6.2325 0.10442 3.1578 9.4582 4.2187 14.15-7.125 1.8875-7.0875-9.4629-7.5-13.588 1.3094-0.40312 2.3909-0.57742 3.2813-0.5625zm330 2.6406c-7.5097 0.063-15.332 1.4551-22.244 1.7715-19.2 4.525-36.474 15.112-49.674 29.725-0.4375 15.038 20.438 6.1133 29.775 7.6133 8.525 16.525 21.162 29.563 34.938 41.688 16.475 6.5125 29.824-15.676 22.387-28.576-6.8-2.75-2.0617 8.9879-7.8867 9.7129-15.775 2.0875-9.0375-20.75-13.562-29.563-2.0875-15.212 17.286-18.6 22.648-28.975-4.889-2.6906-10.54-3.4455-16.381-3.3965zm-4.5899 5.3594c3.555-0.005 7.1121 0.10508 10.646 0.23633-0.8875 6.0875-10.801 7.3008-13.988 13.176-6.5125 8.625-17.011 1.5996-25.086 5.9121-6.85 8.7375-26.188 16.751-34.625 7.3633 13.95-10.625 26.85-23.463 45.412-25.275 5.7969-1.0781 11.716-1.4045 17.641-1.4121zm-315.44 3.0371c12.512 2.825 0.975 25.375 1.8125 36.225 4.1375 13.038-18.913 19.213-19.213 6.2754 19.888-7.875-2.4621-25.712-1.9121-38.887 7.2875-0.925 16.375 6.3742 19.312-3.6133zm146.74 10.801c-0.9373 0.0617-1.9383 0.43399-2.9883 1.2246-13.225 1.3-20.224 12.2-21.762 24.412 6.2625 1.825 12.762-11.6 17.287-4.0371 2.7375 10.888-1.5496 22.275-3.0371 33.125-1.175 13.25-25.775 6.8-25.625 19.75 27.638 17.688 63.886 11.812 90.486-4.9004-0.275-13.962-21.038-8.6367-27.812-16.387-2.775-17.713-12.323-32.613-20.211-48.301-1.2844-2.4656-3.526-5.0719-6.3379-4.8867zm-1.9629 5.6699c6.334-0.34721 8.3633 10.037 10.051 14.666 7.3 8.45 10.8 19.488 13.912 29.926-4.7875 6.1875-14.55-11.075-16.963 0.66211-12.612 5.3625-9.7258-9.65-7.8008-17.125 5.225-7.45-3.2863-22.825-12.486-17.725-0.8-6.7625 6.8129-8.8625 11.963-10.188 0.4617-0.12344 0.9019-0.19365 1.3242-0.2168zm148.51 0.58594c8.1188 0.01 9.4468 16.884 0.3906 15.594 10.638 9.1 5.725-12.013 16.25-7.1504 0.9125 13.212 2.6129 38.588 21.838 29.613-0.7375 8.35-10.576 20.225-18.488 11.662-8.8-11.412-22.487-18.762-27.85-32.662 0.175-4.0875 5.4625-2.0129 8.25-1.4629 0.925-5.55-5.0379-9.2254-4.2754-14.463 1.4266-0.78906 2.7249-1.1322 3.8848-1.1309zm-139.29 42.807c6.1125-0.2125 5.2758 8.7484 4.6758 13.336-9.9375 3.775-4.9258-8.5484-4.6758-13.336zm258.49 7.5293c-1.6375 0.0549-3.2632 0.33594-4.832 0.88281-6.5 0.7-16.698 4.3754-15.961 12.463 5.8875-2.875 18.162-2.1008 14.199 7.8867-6.5875 6.9625-13 14.1-19.125 21.475-10.025 9.875-25.2-7.5242-33.912 0.55078 12.162 30.875 48.375 48.686 80.65 46.424 1.875-11.288-11.402-18.237-15.539-27.187 7.6625-18.3 7.0391-38.612 8.3516-58-3.9-2.7938-8.9196-4.6588-13.832-4.4941zm-3.0097 2.7949c4.4047 0.10385 10.344 2.4281 13.016 4.3125-0.013 15.675-2.0996 31.675-5.7246 46.912-10.262 6.8625-6.5383-13.911-15.051-5.5488 8.475-0.875 2.0625 16.674-5.5625 14.137 1.9125 4.175 5.3512 5.6625 9.3262 3 10.925 1.8875 20.175 10.675 22.838 20.9-28.238 0.3875-54.826-17.2-69.264-39.162 9.3375 0.1 28.6 2.075 34.463 12.938-0.7125-5.85 6.1742-7.1 8.1992-11.812-14.262-2.0375-8.0984-11.388 1.0391-16 5.4875-6.325 12.924-20.651 1.4863-24.639-0.6891-3.8555 1.8085-5.1179 5.2344-5.0371zm-15.959 57.488c-0.05 1.8125 0.8242 2.5867 2.6367 2.3242 0.3625-2.2125-0.5117-2.9867-2.6367-2.3242zm-218.31-56.369c7.7101-0.0743 17.13 2.8508 20.949 6.7812-21.388 13.975-48.838 16.112-72.875 8.5742-11.012 1.75-2.9996-8.2129 2.1504-6.5879 9.025-5.3125 20.425-10.173 30.037-3.0234 5.85 4.4625 8.9262-5.0625 14.764-5.1875 1.507-0.36094 3.1954-0.53949 4.9746-0.55664zm-284.78 0.41211c-0.4108 0.009-0.8203 0.0273-1.2305 0.0566-13 15.775-14.302 38.811-18.727 58.049-5.9125 8.2-29.937 6.8754-20.85 21.4 25.3 8.775 55.238 8.2004 79.312-5.1621 5.8625-3.4875 14.663-14.651 0.1133-12.613-22.962 2.6125-27.289-22.711-29.514-39.486 1.5625-9.875 11.864-0.28711 17.014 0.46289-0.5328-13.429-13.384-22.976-26.119-22.707zm4.2363 4.5469c7.9377 0.2596 21.178 11.129 4.9453 10.223-8.425 8.875 1.0492 25.012 2.1992 36.574-6.3375 1.6875-15.375-9.6004-19.287-0.90039-0.8125 2.525-8.7383 5.2621-6.6133 0.84961 4.5875-15.3 4.05-35.036 16.5-46.461 0.6692-0.225 1.4347-0.31201 2.2559-0.28516zm132.27 10.084c-12.65 3.1125-20.988 16.163-19.088 29.051 7.55 2.7625 6.0637-13.075 15.451-9.0371 6.075 11.125 2.9754 24.912 2.0879 36.887-3.3 12.238-21.951 9.1496-25.139 19.912 28.875 16.25 67.514 4.7387 91.076-16.174-1.65-12.375-18.701-8.3633-27.176-10.613-11.338-16.575-18.475-42.263-37.213-50.025zm228.66 0.78711c-1.3386 0.0317-2.7332 0.24023-4.1817 0.65039-11.912 14.662-21.049 33.062-27.637 50.438-7.95 5.7625-25.051 1.0754-27.363 13.775 19.088 15.8 45.125 23.063 69.65 17.488 7.35-2.15 20.439-0.8625 21.764-10.813-8.125-5.1-19.026-6.2887-25.738-13.451-2.525-12.225-6.4004-26.911-0.8379-38.299 7.925-6.0875 9.1137 13.537 15.514 7.0117-0.5211-10.864-8.2301-27.107-21.17-26.801zm-228.67 3.3887c12.925 8.3375 21.338 26.438 29.275 40.562-5.375 8.1125-14.539-8.3129-17.264 3.5996-16.25 9.525 2.5387-39.15-22.736-31.525-2.125-4.5125 5.4246-11.087 10.725-12.637zm229.8 1.9102c6.6019-0.21223 14.381 5.0781 11.158 10.664-27.75-8.9-0.9883 48.188-22.363 31.238-1.0375 5.825 3.4875 17.912-7.75 14.162-1.5-5.3 0.3375-15.487 7.75-14.162-6.025-9.125-14.312 12.799-14.1-3.0137 3.825-12.512 11.761-23.349 18.174-34.699 1.3711-2.8594 4.13-4.093 7.1309-4.1894zm-368.66 29.844c7.327 0.002 8.4433 18.518-1.6348 14.521-0.2375-4.7625-0.2121-9.5262 0.088-14.264 0.5422-0.17656 1.0584-0.25796 1.5469-0.25781zm15.053 10.584c8.5125 2.65 21.712 2.7496 28.062 6.5996-22.7 14.475-54.988 19.149-79.525 7.6113 10.038-17.637 36.838-1.5359 51.463-14.211zm142.71 1.9219c1.2398 0.14121 2.4172 1.5328 3.1797 4.8516 3.525 5-1.4262 9.6016-6.5762 9.4141 5.6125 4.025 10.188 1.7609 12.25-3.9141 9.125-3.8125 24.814-6.2992 31.701 0.30078-17.462 14.475-42.65 22.288-65.75 19.4-2.7125 0.625-11.512-0.0383-10.25-4.8633 9.775-5.425 20.386-12.774 32.049-10.924-4.6125-3.8531-0.323-14.689 3.3965-14.266zm179.43 10.621c5.3047 0.15312 9.8328 1.8555 11.695 7.8555 14.775-8.9875 29.313 0.78828 43.15 6.8633-19.35 9.6875-48.05 9.8754-68.225-3.2871-6.7-1.2125-17.652-9.8508-2.9766-9.9883 4.9688-0.2 11.051-1.5965 16.356-1.4434zm151.58 66.229c6.8896 0.17124 13.514 3.8379 19.42 7.0644-25.825 101.47-50.638 203.23-76.613 304.7-23.1 0.2375-46.2 0.22461-69.287-0.0254 10.512-76.175 29.162-151.36 40.949-227.5 4.7125-20.325 7.0512-41.262 13.576-61.125 24.862 2.175 49.874-7.5879 68.986-22.963 0.9938-0.12969 1.9845-0.17681 2.9688-0.15234zm-466.43 1.9785c30.162 17.788 68.677 30.098 104.29 19.023 16.15 97.125 39.086 193.4 52.799 290.74-26.762 0.25-53.537 0.23672-80.287 0.0117-25.225-103.2-52.563-206.26-76.801-309.77zm128.33 3.0371c21.762 5.7375 42.774 24.5 67.924 21.9 17.3 3.4 32.564-5.2129 47.576-11.088 0.1875 98.662-1.2637 197.27-1.6387 295.92-21.925 0.15-43.873 0.35039-65.773 0.0254-19.612-98.038-37.638-196.71-56.312-294.99-2.9875-5.45 5.4621-7.9754 8.2246-11.775zm223.56 6.2617c8.1625-0.15 16.55 6.4 25.125 7.5-17.288 97.675-36.962 195.13-54.225 292.95-21.388 0.25-42.789 0.32344-64.164 0.0234 0.3375-98.65 1.9508-197.29 1.1133-295.97 29.188 10.825 65.663 16.175 92.15-4.5z"/>
</g>
</svg>
