<?xml version="1.0" encoding="UTF-8" standalone="no"?>
<svg id="svg5769" xmlns:rdf="http://www.w3.org/1999/02/22-rdf-syntax-ns#" xmlns="http://www.w3.org/2000/svg" height="209.51mm" width="210.91mm" version="1.1" xmlns:cc="http://creativecommons.org/ns#" xmlns:dc="http://purl.org/dc/elements/1.1/" viewBox="0 0 747.3042 742.37436">
<g id="layer1" transform="translate(2.2236 -101.18)">
<g id="g6429">
<path id="path6382" d="m382.51 114.89c-11.901 3.1567-16.252 16.656-17.25 27.621-5.8106 16.169-24.053 22.035-38.917 26.879-57.252 16.249-116.88 30.156-166.97 63.865-45.342 29.653-83.391 73.381-98.32 126.2-3.946 10.632-16.01 14.233-23.844 21.41-23.378 16.449-34.32 47.219-28.534 74.93 5.9777 31.831 33.342 60.148 66.479 62.189 21.506 1.6892 43.388-1.025 63.621-8.6094 27.652 15.315 59.637 28.038 91.738 21.455 12.788-2.2671 24.127-9.1862 33.367-18.08 5.4673-4.7893 11.091 2.1484 15.617 4.8208 23.281 15.936 53.724 22.282 80.967 13.64 10.924-2.7764 21.388-7.196 31.23-12.66 27.54 14.847 62.93 19.868 91.256 4.2695 2.6454-1.9894 6.6997-6.296 9.7949-2.5762 34.106 16.853 77.844 12.178 107.29-12.043 18.55 1.6076 36.217 11.345 55.18 8.1699 47.05-1.9683 87.342-49.647 79.293-96.476-4.3543-24.829-25.906-40.925-39.031-60.953-8.1163-14.953-11.326-32.223-21.158-46.363-21.505-36.546-53.026-67.02-89.986-87.744-19.267 2.8159-35.469 16.902-55.316 16.68-11.482-17.291-17.776-40.49-37.572-50.582-15.611-4.0786-29.443-16.288-32.953-32.295-5.1918-14.118-17.49-23.889-30.496-30.519-13.998-7.5221-29.666-12.017-45.482-13.227z" fill="#ffff92"/>
<path id="path8" d="m370.52 103.92c-8.2656 0.003-14.855 2.6496-14.23 12.756 5.575 13.312 1.6367 29.425-10.551 37.287-73.138 26.362-158.25 34.962-216.39 91-36.813 27.538-65.738 66.851-76.313 112.24-16.8 12.362-36.375 24.787-45.1 45.012-18.613 28.825-9.1516 66.289 8.2109 93.477 22.675 29.05 65.301 40.936 99.951 30.273 24.675 100.4 49.762 200.69 74.938 301.03 2.6375 6.0875 1.2746 19.138 11.912 16.113 116.25-0.025 232.5-0.0137 348.75-0.0137 5.9625-10.75 7.3129-23.25 11.025-34.812 23.063-93.388 46.899-186.6 69.637-280.07 1.6875-3.6 5.6-3.0746 9.25-2.6621 47.662 4.25 97.637-32.625 102.29-81.287 5.2625-25.862-7.8988-51.338-23.674-70.15-9.5875-3.575-16.15-12.962-18.725-22.562-14.05-52.662-50.712-96.55-96.375-125.06 0.0327-0.0546-11.834-7.1918-11.8-7.2457-3.621 4.2299-17.603 6.6697-11.54 11.928 44.612 25.975 88.427 71.68 103.35 121.92-0.1375 27 36.325 32.5 39.213 59.25 20.938 52.912-36.937 106.66-88.725 96.588-14.388 2.1125-28.138-16.275-41.688-7-26.05 27.112-69.451 26.312-100.99 9.3867-8.075-5.6625-12.499 6.9129-19.512 8.9629-25.088 9.4125-55.063 7.3117-77.15-8.5508-6.3125-5.575-11.912 2.9262-17.912 4.7637-24.375 14.312-55.438 15.112-80.738 2.75-9.7375-6.5875-20.025-12.276-30.375-17.826-7.3375 2.825-13.037 8.8125-18.225 14.562-36.7 20.175-79.925 6.0375-110.28-17.375-35.725 24.962-96.375 18.402-115.54-23.773-23.988-38.688 1.8238-91.164 43.674-102.26 11.662-73.775 74.439-126.22 138.08-157.04 45.575-19.038 94.375-28.026 141-43.863 19.875-7.8375 33.712-28.624 28.762-50.674 25.55 2.2375 51.475 10.574 70.875 27.736 9.3 11.512 7.15 29.839 20.312 38.539 46.799 22.808 46.088 27.6 27.32-8.6031-3.0727 2.7361-20.831-5.8008-22.994-9.9848-2.725-38.188-43.439-54.639-75.451-61.639-6.075-0.46875-16.016-3.1086-24.281-3.1055z"/>
<path id="path14" d="m530.64 0.0078125c-2.3-0.0522-4.69 0.14805-7.15 0.63086-33.61 0.47503-44 41.6-35.4 68.187 11.38 27.705 27.24 59.774 39.03 81.384 28.83-5.19 69.39-20.38 99.43-41.47 20.6-13.664 27.55-48.115 8.21-65.64-15.7-18.425-49.06-13.099-63.47 1.726-3.76-20.232-18.39-44.314-40.65-44.818zm-122.85 102.24c-11.99 0.1-15.86 10.94-19.61 19.49-16.47-6.61-36.77 5.74-29.19 25.1 11.2 15.21 30.9 21.42 49.07 22.65 9.1 2.19 10.09-8.09 13.02-13.74 9.55-16.64 13.43-54.13-13.29-53.5zm-157.78 73.18c-5.96 0-11.89 0.26-17.76 1.22-12.26 2.23-25.04 10.86-27.12 23.68 1.97 14.06 15.28 21.31 28.8 18.28-2.22 17.6 18.55 28.65 32.57 18.89 14.66-17.58 5.56-41.66 1.36-61.67-5.93-0.12-11.9-0.4-17.85-0.4zm300.51 14.16c-1.48 0-2.99 0.22-4.49 0.69-18.52 5.41-30.43 22.05-41.1 36.63 11.13 18.43 29.25 42.92 54.18 36.02 15.38-5.59 14.17-29.19-0.6-34.69 5.07-5.2 10.49-10.58 12.35-17.84-0.41-10.22-9.92-20.82-20.34-20.81zm-185.29 44.12c-1.69 0.05-3.51 0.53-5.52 1.63-9.73 2.06-16.43 12.89-13.35 22.56 2.25 18.2 15.13 31.94 27.42 43.84 17.23-7.09 35.82-16.38 44.5-34.04 7.55-14.56-11.84-32.98-25.58-24.2-10.6 11.5-15.64-10.07-27.47-9.79zm-259.28 60.74c-1.62-0.03-3.28 0.18-4.99 0.66-19.445 8.65-17.622 34.07-9.909 50.55 3.175 6.42 4.251 19.15 14.639 16.17 16.64-4.34 41.94-2.03 48.59-21.94 7.7-16.71-13.64-31.24-28.29-22.18-0.14-10.92-8.76-23.02-20.04-23.26zm517.57 9.88c-1.08-0.02-2.19 0.12-3.37 0.48-12.97 0.01-19.32 16.17-15.37 26.79 4.42 17.59 20.78 28.41 35.13 37.38 19.4-9.37 43.19-29.45 35.74-53.74-6.32-14.7-26.52-12.66-34.06-0.18-5.28-2.16-10.55-10.59-18.07-10.73zm-354.32 4.6c-16.41 12.93-40.46 27.27-35.3 51.85 4.48 16.06 26.66 14.81 36.04 3.82 9.72 9.4 31.46 13.85 36.27-2.8 5.23-24.3-18.37-43.81-37.01-52.87zm224.01 6.57c-1.5 0.02-3.06 0.33-4.68 1.04-7.64 0.15-12.62 14.77-19.7 7.56-9.48-9.39-30.37-5.05-31.67 9.4-0.47 23.16 21.63 37.92 40.12 47 19.07-10 36.76-31.77 32-54.66-4.19-4.7-9.56-10.39-16.07-10.34z" transform="translate(-2.2236 101.18)" fill="#a00"/>
<path id="path4304" d="m136.62 549.22 469.75 0.54529-23.312 112.32-85.999 154.8-252.27-5.7333-77.4-166.27z" fill-rule="evenodd" fill="#e6b948"/>
<path id="path6349" d="m603.15 517.78c-30.746 22.492-73.828 28.393-108.74 12.354-4.8303-3.9786-8.7263 2.6932-12.881 4.5918-24.238 8.2459-51.293 8.636-75.664 0.60352-5.27-1.2159-10.231-5.004-15.271-5.5898-26.326 12.275-56.93 18.823-85.42 10.439-13.576-3.5048-24.939-11.866-36.723-19.012-5.4037 3.6141-10.892 8.1077-16.934 11.131-32.502 16.455-72.125 10.144-102.98-7.0781-4.2246-1.405-7.2781-6.1895-11.811-5.959-6.5837 2.9477-13.49 5.2815-20.562 6.959 24.655 100.31 49.72 200.52 74.873 300.77 2.6375 6.0875 1.2746 19.138 11.912 16.113 116.25-0.025 232.5-0.0137 348.75-0.0137 5.9625-10.75 7.3129-23.25 11.025-34.812 23.063-93.388 46.899-186.6 69.637-280.07 0.76831-1.639 2.0011-2.4173 3.457-2.7461-10.999-1.7346-21.833-5.4171-32.668-7.6738zm-415.04 40.73c18.263-0.41639 26.639 29.55 6.373 35.576-24.025 10.1-36.725-28.087-12.338-34.412 2.0801-0.75351 4.0756-1.121 5.9648-1.1641zm388.75 0c18.263-0.41639 26.639 29.55 6.373 35.576-24.038 10.1-36.725-28.087-12.338-34.412 2.0801-0.75351 4.0756-1.121 5.9648-1.1641zm-155.38 0.29101c12.906 0.18731 23.335 17.122 14.814 27.961-7.05 13.212-29.636 10.238-34.236-3.6367-3.6125-9.95 3.6121-21.775 13.787-23.312 1.8969-0.72343 3.791-1.0385 5.6348-1.0117zm-77.26 0.0312c10.276 0.30823 18.996 10.043 19.387 20.242-2.9375 15.212-24.125 22.001-34.375 9.7383-10.488-9.375-2.4879-25.55 9.1621-29.125 1.9668-0.64648 3.9231-0.91255 5.8262-0.85547zm153.35 0.0801c12.79 0.22747 24.979 15.618 16.678 27.037-7.25 11.738-26.688 12.863-33.5-0.0117-7.275-9.3 1.2363-23.914 11.361-26.139 1.7938-0.64219 3.6338-0.91921 5.4609-0.88672zm-233.28 0.13086c10.93-0.31496 21.484 9.6938 19.242 21.156-1.475 13.162-19.726 19.325-30.014 11.975-12.775-7.9375-8.4984-29.938 6.1016-32.338 1.5406-0.49219 3.1085-0.74797 4.6699-0.79297zm195.12 71.523c14.406-0.0185 28.626 21.084 13.979 30.883-11.05 14.375-35.199 1.3992-33.199-15.301 3.275-6.175 8.4879-11.699 14.775-14.861 1.4625-0.48984 2.955-0.71879 4.4453-0.7207zm-76.053 0.0644c14.649-0.23925 27.356 21.859 13.094 31.432-9.1125 10-26 6.0617-30.85-6.1133-5.425-10.025 3.3758-21.801 13.176-24.488 1.5293-0.54141 3.0646-0.80533 4.5801-0.83008zm-156.04 0.0215c8.4328 0.0578 15.742 7.791 19.465 14.91 4.25 16.888-23.225 31.036-33.438 15.424-11.788-9.1875-2.4375-25.825 9.1875-29.525 1.623-0.56836 3.2235-0.8193 4.7852-0.80859zm309.55 0.0117c13.85-0.39168 25.861 19.262 14.566 30.035-8.3 11.012-26.1 8.4754-31.688-3.8496-6.1375-10.162 2.5871-22.639 12.787-25.389 1.4484-0.50156 2.9012-0.75636 4.334-0.79687zm-232.46 0.0117c13.999-0.29527 26.061 20.342 13.793 30.549-11.075 14.825-36.312 2.0363-34.262-15.076 3.4875-6.375 8.8484-12.636 16.086-14.674 1.4648-0.51328 2.9346-0.76828 4.3828-0.79883zm36.064 72.402c13.84-0.11848 28.573 18.944 15.24 29.445-7.8125 11.838-24.75 8.8-31.287-2.75-8.7875-10.462 2.6875-21.474 11.812-26.012 1.3805-0.45351 2.8027-0.67134 4.2344-0.68359zm-75.43 0.0547c7.1247 0.20399 13.714 6.0789 17.695 11.441 8.5625 18.675-21.724 36.049-32.486 18.262-10.488-9.55-2.3887-25.911 9.7988-28.861 1.6758-0.63281 3.348-0.88887 4.9922-0.84179zm155.99 0.0762c17.867-0.33831 26.043 28.3 6.8223 35.502-23.638 11.175-38.25-30.137-11.562-34.762 1.6426-0.47558 3.2261-0.71156 4.7402-0.74023zm75.955 0.14648c10.431 0.0733 20.941 10.106 20.504 20.693-4.0125 12.525-22.962 23.45-32.75 10.588-12.712-9.1-5.4375-26.951 7.8125-30.676 1.4547-0.42344 2.9435-0.61594 4.4336-0.60547zm-37.6 69.77c14.066-0.32117 27.802 18.332 15.104 29.389-8.65 13.362-28.15 7.525-32.938-6.1875-4.875-10.238 5.1738-18.675 13.486-22.463 1.4332-0.46875 2.8926-0.70505 4.3477-0.73828zm-154.56 0.0781c14.935-0.15384 25.346 21.157 12.104 31.76-11.812 13.488-34.1-0.375-32.787-16.312 1.9625-7.5375 8.8863-12.351 15.924-14.676 1.6207-0.51094 3.2147-0.75557 4.7598-0.77148zm75.801 0.18945c10.153-0.0701 20.644 8.9488 20.502 19.471-2.9625 14.962-25.287 25-34.637 9.9629-9.625-9.825-2.8746-26.101 9.8379-28.826 1.4047-0.40312 2.8464-0.59741 4.2969-0.60742z" fill="#ccc"/>
</g>
</g>
</svg>
