<?xml version="1.0" encoding="UTF-8" standalone="no"?>
<svg id="svg2" xmlns:rdf="http://www.w3.org/1999/02/22-rdf-syntax-ns#" xmlns="http://www.w3.org/2000/svg" height="212.75mm" width="210.58mm" version="1.1" xmlns:cc="http://creativecommons.org/ns#" xmlns:dc="http://purl.org/dc/elements/1.1/" viewBox="0 0 746.16562 753.83793">
<g id="layer1" transform="translate(13.082 -46.872)">
<g id="g4249">
<g>
<path id="path4228" d="m362.77 78.256c-1.6805 5.5377-0.11745 11.984-0.94029 17.61-1.8692 10.375-9.1548 19.268-17.197 25.628-12.463 9.2285-28.237 11.743-42.687 16.358-37.104 10.729-75.001 19.576-110.5 35.109-34.344 15.124-64.72 38.349-90.692 65.242-23.402 24.858-40.945 55.869-46.929 89.698-6.5922 3.3208-13.613 6.4015-19.581 10.981-15.605 10.92-27.696 27.248-32.113 45.892-3.9729 16.847 1.1742 34.29 8.0591 49.647 13.486 25.913 43.825 39.774 72.282 38.77 14.386-0.31791 27.855-6.1313 40.387-12.69 4.7946-2.772 9.5745 0.60048 13.235 3.5808 28.319 21.112 68.601 27.328 100.84 11.677 7.0899-3.975 10.825-13.79 19.667-14.406 8.9889 3.9827 16.472 10.801 25.444 15.001 10.731 5.5429 22.419 9.3131 34.238 11.636 18.903 1.8592 36.886-5.5785 53.689-13.286 3.6479-1.253 7.3272-4.1637 10.942-4.3507 15.828 9.1062 33.795 15.195 52.243 14.375 14.753 0.002 30.073-3.6332 41.336-13.627 3.88-3.2034 7.78 1.5666 11.617 2.2727 13.947 5.1333 28.596 9.0892 43.594 8.2504 17.628 1.1398 35.88-4.4176 48.996-16.449 4.2766-4.8178 10.957-7.2386 17.225-5.1535 14.433 4.1854 28.762 10.845 44.177 9.457 35.339-2.1531 69.577-27.956 77.148-63.25 2.7217-12.58 0.88628-25.59-2.984-37.726-3.852-15.834-17.976-25.675-28.892-36.58-4.211-3.1271-7.5266-7.2703-8.2252-12.6-10.277-40.392-33.05-78.267-66.516-103.58-3.8725-0.99793-5.3351 4.7086-7.8399 6.8785-3.3148 4.3298-7.0696 10.489-13.204 10.503-8.6657-3.598-15.39-11.904-25.007-13.05-11.862 1.1128-22.584 11.254-34.802 7.6702-4.0601-4.4272-6.399-10.93-10.893-15.346-3.0652-3.7846-8.424-5.3073-12.727-2.6479-7.2341 2.6768-15.943 8.0824-23.456 3.3412-3.0205-1.8941-0.60473-6.2486-0.45479-9.0918 2.9755-13.945 10.818-27.426 10.279-42.148 0.24989-4.7589-3.3899-8.2028-7.7246-9.3918-11.144-4.4431-25.327-3.0276-33.677-12.994-7.6706-8.8239-7.8539-21.535-13.948-31.19-14.75-16.104-36.333-23.953-57.25-28.233-5.6058-0.76593-11.587-2.4848-17.159-1.7904z" fill="#a2fd9b"/>
<path id="path4213" d="m594.25 474c-0.32853-0.0178-0.65768-0.0184-0.98828 0.004-10.361 2.7875-18.429 10.938-28.426 14.844-12.791 6.7795-27.261 7.0116-41.389 7.4844-8.0139 0.69436-7.2269 10.787-9.248 16.424-18.679 90.083-35.624 180.51-54.326 270.58 2.5746 5.0127 11.097 0.97201 16.008 2.25 18.227-0.56591 36.753 1.1233 54.787-1.9023 4.2325-2.9952 3.3796-9.7522 5.4805-14.207 24.824-96.199 48.827-192.62 72.674-289.06-0.81625-4.9223-7.801-4.6561-11.643-5.9746-0.96763-0.18497-1.9441-0.39193-2.9297-0.44531zm-469.99 0.59179c-5.6732 0.002-3.2667 6.8383-2.1426 10.016 25.133 99.857 49.42 199.93 75.336 299.59 4.8052 3.2268 12.192 0.54376 18.002 1.4238 22.338-0.28227 44.923 0.56392 67.107-0.42188 2.1406-4.4285-1.4668-10.495-1.5527-15.527-16.585-91.37-34.429-182.55-51.26-273.84-4.1625-2.8298-9.5921 1.1558-14.268 0.90235-22.003 2.7366-44.819 0.45622-64.842-8.9668-8.896-2.9643-15.535-10.342-24.467-12.982-0.63015-0.12502-1.2709-0.20136-1.9141-0.19141zm131.6 3.3125c-0.1644 0.0237-0.3195 0.0936-0.45508 0.24024-4.9386 4.0075-13.929 8.1515-11.32 16.078 11.471 69.586 25.776 138.69 38.424 208.06 5.07 27.238 10.109 54.477 14.814 81.762 4.6018 3.52 12.238 0.636 18.035 1.5742 16.867-0.28303 33.981 0.56591 50.693-0.42188 2.3605-6.0123 0.51336-13.919 1.2754-20.639 1.1785-88.792 3.1163-177.59 3.0469-266.39 0.35739-3.0166-0.76252-8.7766-4.9805-6.5215-18.075 6.7174-37.827 13.367-57.189 7.9648-18.113-4.1072-34.512-13.007-50.795-21.627-0.46809 0.17826-1.0556-0.1532-1.5488-0.082zm224.37 7.9434c-9.5111 2.333-17.057 10.2-27.264 10.676-19.111 1.879-38.815 1.2371-57.633-3.832-3.5531 0.23825-10.178-4.3995-11.873 0.53516-1.06 22.378 0.70689 44.848 0.0801 67.264-0.43223 74.461-1.8296 148.91-3.043 223.36 3.6473 4.3126 11.71 0.63387 17.078 1.707 15.486-0.63793 31.264 0.37322 46.582-1.7656 5.281-4.9678 4.1874-13.603 6.5078-20.027 18.86-88.201 34.961-176.99 52.969-265.34 1.6289-4.3779-2.5249-6.8387-6.293-7.2715-5.6064-1.8719-11.151-4.6297-17.111-5.3066z" fill="#ccc"/>
<path id="path4230" d="m558.48 52.074c-7.9334 0.09496-15.941 1.7656-22.891 5.7051-9.3268 4.7759-16.533 12.876-22.107 21.6-6.3972 10.219-10.588 21.727-13.148 33.461-0.19777 16.09-1.4548 32.131-4.2539 48.01-2.6736 15.927-6.6648 31.535-10.619 47.172-0.54885 1.6977 1.4262 3.1406 2.9668 2.3965 10.682-2.827 21.998-4.5862 32.975-2.4746 1.3672 0.31388 1.427 2.2158 2.2207 3.1992 2.2844 4.3873 4.3299 8.923 6.6719 13.262 1.3392 1.4623 3.6638 1.0892 5.4883 1.209 7.3439 0.009 13.382-4.7027 19.83-7.541 3.3242-1.5992 7.1448-3.0012 10.811-1.6738 8.032 2.6265 13.529 10.186 21.879 12.113 1.8911 0.47109 4.408 0.70728 5.4297-1.3672 4.9091-5.9016 9.5931-12.185 15.766-16.846 4.0753-2.7779 9.0158-4.5175 13.99-3.8379 2.5256 0.0595 4.8749 1.2439 7.3535 1.3574 2.1156-0.98954 1.1478-3.6513 1.3379-5.5078-0.4931-13.162-5.8937-25.405-9.5859-37.865-2.3442-7.2793-4.1289-14.826-3.9492-22.465-0.014-4.8118 0.76571-9.5798 0.2793-14.469-1.3587-19.737-7.552-39.603-19.998-55.213-8.345-10.498-20.462-18.645-34.035-19.961-2.1293-0.21383-4.2708-0.28947-6.4102-0.26367zm-206.51 109.85c-4.0992 0.24254-7.9769 2.1297-11.344 4.3848-7.6613 5.4814-11.258 14.705-13.746 23.443-2.5287 8.4261-4.2706 17.168-8.043 25.16-0.78919 1.9467 1.7822 3.6556 3.3379 2.3086 1.977-1.186 4.6589-1.1404 6.3281 0.57813 3.0882 2.595 5.1444 6.2876 8.3945 8.6602 1.8789 0.63853 3.9978-0.20638 5.9414-0.17969 3.1168-0.0944 6.5454-0.62945 9.418 0.875 1.5324 0.93416 2.6838 2.3765 3.3125 4.0254 1.0287 1.5992 3.0827 0.48013 3.8965-0.77149 3.001-3.5183 7.8745-4.9102 12.354-4.0762 1.4525 0.55046 3.501 0.0203 3.6094-1.7871 0.46359-9.365 1.3525-18.717 1.1777-28.117 0.0549-8.265-0.83775-16.867-4.8652-24.232-2.9075-5.4564-8.5338-9.2289-14.664-9.9434-1.6902-0.2442-3.4015-0.31382-5.1074-0.32812zm-137.59 76.934c-2.2012-0.10061-3.1167 2.0675-4.2598 3.5137-2.5171 2.1596-6.0578 0.79209-8.9941 0.70117-2.3106-0.0808-5.4969-0.92745-6.9316 1.4961-1.9928 3.813-4.6571 7.517-8.6211 9.4629-2.2725 1.2589-4.9122 1.4767-7.4414 1.4902-2.3418 0.50406-1.5774 3.4428-2.498 5.127-1.4422 3.9484-4.5184 6.9512-7.3711 9.8848-1.3599 1.8832 1.0927 3.258 2.3789 4.248 5.1658 4.1361 11.652 6.9587 15.402 12.633 1.144 2.6596 2.8257 5.0378 4.9316 7.0332 5.9462 5.8227 12.99 11.33 21.412 12.732 5.8063 1.0295 11.696-1.3248 15.945-5.2402 3.8596-3.2263 6.7528-7.8639 7.3652-12.902 0.26551-4.7493 0.41845-9.6457-1.2637-14.182-2.1563-7.2465-6.1207-13.801-10.832-19.662-1.6466-2.3701-1.8045-5.4195-2.6856-8.1094-0.78826-2.9243-1.4769-6.6086-4.6465-7.8828-0.59548-0.25013-1.2444-0.3758-1.8906-0.34375zm297.71 16.139c-0.34134 0.003-0.68294 0.013-1.0234 0.0332-4.9862 0.14897-10.224 0.35665-14.615 3.0234-7.6252 4.3302-12.441 11.976-18.254 18.25-3.1587 3.6141-6.807 6.8636-11.17 8.9434-2.0495 1.0794-3.9879 4.0237-2.041 6.0684 2.0479 2.1253 5.5715 1.9908 7.4375 4.2793-0.7537 3.1611-1.7027 6.9588 0.48243 9.8613 2.5776 3.4294 7.2115 4.1037 10.873 5.6894 2.753 0.82893 5.5963 3.027 5.3828 6.1973-0.004 1.6408-0.40603 4.4184 1.9219 4.5078 5.3629-0.56914 11.347-0.90861 16.121 2.2305 1.1319 1.2133 3.3773 1.97 4.3809 0.17578 3.5718-6.7344 4.3961-14.769 9.0137-20.982 4.9511-4.8634 7.4466-11.648 8.8144-18.322 1.4916-8.0117 1.2476-17.134-3.9043-23.863-3.1531-4.1836-8.2998-6.1311-13.42-6.0918zm-162.95 30.154c-6.1758 0.21059-11.693 4.2398-15.059 9.2656-4.983 7.5154-6.0898 17.06-4.8262 25.836 0.26557 2.8191 1.5853 5.4011 1.959 8.1777 0.36787 5.891-0.0608 11.827 0.59961 17.703 0.32368 2.0748 2.2437 3.7585 4.3887 3.3027 1.9431-0.262 3.5323-1.5637 4.9336-2.8418 2.7558 2.2059 5.7959 4.559 9.3926 5.0352 4.4406 0.64475 8.5726-1.7702 11.57-4.8379 4.1594 1.4505 9.044 0.85025 12.756-1.6406 4.2917-2.6699 8.171-5.9878 12.709-8.2617 1.635-0.75704 1.4138-3.0119 0.0508-3.916-5.8512-7.7446-8.1364-17.369-11.734-26.223-2.8074-7.4373-6.7145-15.279-13.941-19.295-3.5084-2.0615-7.5796-2.3391-11.557-2.2949-0.41715-0.0207-0.83046-0.0238-1.2422-0.01zm-252.99 68.02c-3.9243 0.0339-7.694 1.699-10.938 3.8086-3.2924 2.3111-5.9 5.5763-7.1367 9.4316-1.5042 4.4126-1.0189 9.1931-0.79492 13.764 1.2841 10.785 5.22 21.067 6.5859 31.836 0.29641 2.7777-0.41382 6.2774 1.9941 8.2949 2.2831 1.5953 4.7085-0.65055 6.5566-1.8789 1.7169-1.0406 3.4119-2.9518 5.5703-2.6758 2.2904 1.446 3.7211 4.896 6.9062 4.4043 3.8049-0.42278 6.2355-3.8284 9.0742-6.0176 1.8749-1.5638 4.3873-3.8158 6.9473-2.291 2.2808 1.0344 5.5025 2.1983 7.5781 0.18359 2.2906-2.3398 2.0525-5.936 4.0645-8.4004 1.1393-1.0833 2.9876-0.79751 3.8848-2.252 2.3128-2.1812 2.6127-5.8147 1.0274-8.5-2.7194-4.4238-7.1764-7.4579-9.7871-11.945-1.7074-4.3226-2.9826-8.8842-5.6348-12.771-4.8021-7.1784-11.967-13.496-20.762-14.816-1.7038-0.19995-3.4243-0.17643-5.1367-0.17382zm528.68 3.4062c-8.3639 0.0652-16.749 4.6053-20.625 12.152-4.1248 7.626-4.6293 16.496-5.7617 24.922-0.72051 6.3995-1.5421 12.877-3.8106 18.975-0.78641 1.9498-0.14717 4.7815 2.2051 5.1856 3.4097 0.26128 6.5646-2.0578 9.9863-1.6172 1.4503 2.1817 2.5895 4.8779 5.2129 5.9199 5.6726 2.3826 11.792-1.1637 17.58 0.36132 2.3949 0.97947 4.2087 3.7214 7.1016 3.1836 3.2516-0.40008 4.388-3.976 6.1484-6.2305 0.69607-1.4885 2.3661-1.423 3.6914-0.9707 2.4346 0.27245 5.7522-0.14529 6.832-2.6836 1.0203-3.8254-0.96473-7.6029-2.1191-11.162-2.0032-4.5679-1.5536-9.6749-2.4121-14.498-1.2865-8.8815-2.8362-18.192-8.0859-25.703-3.2484-4.6222-8.5992-7.8951-14.346-7.8203-0.53259-0.0195-1.0648-0.0255-1.5976-0.0137zm-365.63 2.5508c-6.8524 0.0727-12.996 4.3762-17.102 9.6016-6.2039 8.1536-7.6176 18.594-9.7207 28.324-1.2132 6.0039-2.5188 12.118-4.9316 17.826-0.69803 1.7941 1.4654 3.34 3.0488 2.4238 3.8746-1.8816 8.7545-0.55219 11.34 2.8301 1.3899 1.3924 1.6124 3.741 3.3047 4.7617 3.3968 0.35038 6.8876-0.16034 10.311 0.29882 6.8735 0.67352 13.965 1.9671 20.867 0.58594 3.5932-1.1439 7.204-2.9223 9.7129-5.7734 0.7355-1.6024-0.27738-3.543-0.26757-5.1855-1.6932-13.747-1.4139-28.025-6.4902-41.121-2.296-6.0331-6.7978-11.677-13.197-13.545-2.22-0.69076-4.5512-1.0306-6.875-1.0273zm186.35 2.5273c-0.27513-0.0206-0.55782 0.0526-0.83398 0.0488-2.111 0.93808-1.5093 3.6615-2.1328 5.4941-1.6646 7.5007-5.6016 13.927-8.832 20.842-2.9115 6.1616-6.2296 12.471-6.6641 19.398-0.23949 4.465 0.1398 9.0888 2.2949 13.096 2.3255 5.8853 8.118 9.9571 14.281 10.906 9.7188 1.4408 19.703-2.9122 26.379-9.8906 3.8211-3.6118 5.2161-8.9128 8.8398-12.68 3.2078-3.8441 7.5041-6.5206 11.072-9.9746 2.146-1.9409 2.9892-5.7258 0.52734-7.7832-3.0518-2.9815-7.7773-3.9918-10.084-7.7383-1.1479-2.0627 0.3416-4.3008-0.11328-6.4023-1.0828-2.0429-3.7981-1.2917-5.6816-1.7324-4.2913-0.29155-7.8304-3.4936-9.377-7.3848-0.67011-1.37-0.57176-3.7999-2.6582-3.6445-3.2163 0.89222-6.6645 0.88665-9.9707 0.52734-2.4687-0.49887-4.5597-1.94-6.7754-3.0234-0.0896-0.0342-0.17978-0.0517-0.27149-0.0586z" fill="#fbfd99"/>
</g>
<path id="path64" d="m558.3 46.879c-2.4184 0.04057-4.8453 0.26172-7.2676 0.67774-42.162 6.8625-57.725 54.113-60.15 91.275-11.175-4.4125-30.688-1.2258-33.062-16.926-6.9125-39.5-52.063-53.974-86.65-58.262-11.65-4.5125-33.724-0.72578-25.199 16.574 6.4625 16.138-6.4246 30.739-20.912 35.326-57.512 18.075-118.65 29.112-171.47 59.787-47.625 32.738-95.425 73.749-109.78 132.76-2.3625 15.412-22.463 15.45-29.088 28.412-41.938 33.25-34.087 104.69 7.8379 134.64 25.762 14.062 55.513 23 84.312 13.312 25.5 102.19 50.588 204.54 76.588 306.66 0.75 3.2 1.9234 9.5246 6.5859 9.1621 115.11-0.1 230.24-0.0371 345.36-0.0371 6.45 2.2625 10.224-4.1883 11.699-9.1758 25.6-101.45 50.714-202.97 76.201-304.46 9.65-8.0375 26.712 1.9746 37.725-6.4629 21.3-4.6375 40.2-17.964 53.713-34.889 24.65-30.125 24.913-78.449-2.0371-106.89-4.025-11.075-20.514-12.425-21.701-25.787-9.85-37.138-30.362-70.75-57.475-97.588 3.6875-7.225 8.1992-16.412 3.1992-25.225-19.06-32.31-4.78-72.75-24.07-105.01-8.46-21.702-30.98-38.243-54.36-37.851zm0.35742 6.8984c39.357-0.60118 59.688 46.92 58.551 81.455-3.7 25.137 14.038 46.599 13.25 70.949-19.525-7-28.938 9.0508-39.051 20.926-10.738-0.05-17.612-13.475-29.162-13.088-10.575 1.3875-19.175 12.237-30.412 9.4121-3.2-5.5125-5.3375-11.625-8.6875-17-12.075-2.7125-24.414-0.6875-36.139 2.5 8.325-31.088 15.312-62.663 14.975-94.988 5.05-25.2 20.501-55.162 48.551-59.387 2.7922-0.48594 5.5012-0.73922 8.125-0.7793zm-195.49 25.604c26.538 2.3875 53.913 10.327 72.863 29.539 6.425 11.45 5.8625 26.636 17.312 35.111 10.15 8.625 25.838 4.7633 36.5 12.801 5.9 19.4-11.713 36.962-9.9258 56.412 8.75 8.325 21.814-0.175 31.039-3.8125 9.525 2.3625 11.837 12.413 16.975 19.238 12.788 5.875 24.236-5.6625 36.736-7.1875 9.6 1.3125 15.538 9.925 24.113 13.375 11.15 0.6125 14.062-11.989 20.662-17.977 34.787 26 58.589 66.812 67.764 109.38 13.5 14.7 33.673 25.463 36.523 47.238 18.888 54.175-43.899 106.74-95.387 92.012-11.762-2.3-24.4-12.199-36.4-5.6738-24.988 27.912-69.325 23.9-100.59 9.8496-5.6375-4.825-10.048 2.4996-14.461 5.2871-27.438 14.875-60.788 9.1008-86.301-6.8867-22.75 9.8875-48.45 25.212-74.525 15.75-16.338-3.9375-30.887-12.188-44.225-22.125-9.825-6.75-17.476 4.8625-23.051 11.438-33.988 17.712-76.873 10.574-105.96-13.676-9.1875-5.975-17.814 5.4129-26.826 7.1504-38.362 15.375-91.613-5.6617-100.09-48.824-14.238-37.225 14.889-76.352 49.352-88.289 10.338-64.788 61.725-112.3 115.35-144.64 48.838-26.488 104.69-36.4 157.17-52.838 22.112-6.9125 41.4-27.313 35.375-52.65zm206.74 29.338c-0.92011 0.0365-1.9133 0.2875-2.9727 0.80078-8.5625 2.7625-7.2746 18.036 2.8379 15.674 11.09 2.8887 9.0291-16.827 0.13477-16.475zm-31.633 0.5625c-0.47564 0.0307-0.95586 0.12383-1.4395 0.28711-9.75 3.0875-6.3012 21.639 5.1113 14.514 9.2461-1.6758 3.4626-15.262-3.6719-14.801zm27.72 26.21c-6.1006 0.39042-10.355 14.048-17.992 6.918-2.3375-2.775-4.8371-7.5504-9.0371-6.7754-5.6 3.4125 2.7 10.188 5.125 13.988 9.9625 9.825 22.526-1.9758 26.488-11.863-1.6688-1.7414-3.1762-2.3577-4.584-2.2676zm-210.88 23.369c-30.188 3.125-29.839 37.475-40.264 58.662 2.0375 8.3 12.514-1.8383 15.264 4.5742 4.45 11.538 23.061-0.38711 26.174 12.9 7.825-2.825 12.975-10.801 22.775-7.4258-4.0625-21.575 8.6383-64.023-23.949-68.711zm-1.4297 4.8242c28.581 0.6116 20.207 43.761 19.904 61.15-6.3-1.6125-12.663 0.15039-16.463 5.5879-3.1125-8.6375-12.2-5.8004-19.475-5.5254-5.3875-4.4625-8.9996-14.664-17.725-8.3887 9.7-17.562 7.0125-47.388 30.875-52.75 1.0004-0.0711 1.9608-0.094 2.8828-0.0742zm-8.8145 17.668c-0.66489-0.0277-1.3703 0.1168-2.0938 0.48242-5.225 2.075-3.2004 10.487 2.6621 7.8496 6.7703 0.44844 4.0859-8.1381-0.56836-8.332zm10.74 2.7715c-0.33166 0.0149-0.68438 0.0473-1.0586 0.0977 1.6227 15.258 11.34-0.56017 1.0586-0.0977zm-13.246 8.748c-2.7375 9.9375 16.462 10.524 13.688 0.0742-4.75 2.5625-8.9125 1.2383-13.688-0.0742zm-127.04 40.324c-6.35 12.388-24.151 2.125-28.014 17.688-16.212-4.3-14.412 13.451-21.137 21.764 18.25 12.625 30.075 42.562 57.037 35.162 20.625-8.375 17.6-37.349 3.7871-51.137-7.15-5.6625-3.6738-20.764-11.674-23.477zm-0.96679 7.4883c5.5772-0.38736 4.4043 11.719 7.8027 15.738 10.075 11.55 19.025 33.649 4.4375 44.574-12.475 11.638-28.962-1.1617-37.6-11.387-2.9-9.2375-13.012-11.863-19.387-18.051 4.325-3.8375 8.0492-8.1754 8.6367-14.275 8.5 0.5375 14.538-5.1363 17.676-12.361 6.2375-1.425 14.075 3.9617 17.225-3.9883 0.43516-0.14297 0.83718-0.22418 1.209-0.25zm297.52 12.236c-2.976-0.0397-6.1777 0.62598-9.5527 2.1641-18.538 5.0875-27.851 25.45-43.926 35.213 15.612 2.225 9.3246 22.724 27.037 22.861 0.375 15.888 17.301 9.0504 26.514 14.338 5.475-11.075 9.4617-23.087 16.512-33.475 11.312-14.309 1.6024-40.859-16.584-41.102zm-0.85352 3.8516c22.076-0.90086 20.214 29.444 10.551 42.812-7.175 6.1875-7.4766 16.35-11.727 24.275-5.2875-5.1-14.386-4.45-19.049-3.75 3.05-16.725-22.726-6.6883-16.551-23.926 0.7125-5.65-12.762-3.6629-6.75-9.2754 16.575-6.8875 20.95-30.812 41.312-29.949 0.7625-0.0957 1.5008-0.15844 2.2129-0.1875zm-299.46 10.934c-0.98337-0.0147-2.1277 0.12696-3.4356 0.47852-7.9875 3.4625-3.0617 16.999 0.80078 5.1992 8.4875 2.2312 9.5184-5.575 2.6348-5.6777zm289.19 2.4883c-0.5605 0.0157-1.1316 0.14961-1.6895 0.42773-6.6125 2.3875-0.37461 11.313 4.5254 7.4258 4.5391-2.2969 1.0876-7.9636-2.8359-7.8535zm-282.97 3.998c-0.8483-0.0259-1.8262 0.009-2.9473 0.11719-0.75 14.297 15.672 0.27054 2.9473-0.11719zm293.7 4.5723c-0.85669-0.0104-1.8598 0.0613-3.0293 0.23242-4.5234 18.633 15.88-0.0765 3.0293-0.23242zm-17.285 0.47851c-0.18439-0.00022-0.375 0.009-0.57031 0.0293-5.1125 10.65 9.2637 17.475 14.951 8.4375-7.9922 1.0898-8.6645-8.4598-14.381-8.4668zm-284.96 1.8047c-1.1626-0.0622-2.6551 0.0637-4.5371 0.4375-3.7949 18.34 15.776 0.16389 4.5371-0.4375zm140.01 1.1367c-0.44749 0.008-0.90079 0.0252-1.3633 0.0508-15.688 5.1375-27.063 23.786-20.801 40.211 3.1875 10.062 0.52461 20.8 1.2246 31.188 9.15-1.125 16.35-8.1996 22.588 2.5879 7.2125-7.975 17.138-5.3004 25.75-6.0879 0.2-12.262 18.676-6.3 13.488-18.75-13.954-16.513-12.695-49.727-40.887-49.199zm2.0117 4.6387c24.594-0.28161 22.447 33.367 35.912 48.461-9.1 3.1375-14.787 14.25-25.537 9.3125-7.15 7.975-13.064 6.4762-20.576-0.42383-12 12-6.3613-8.6516-8.1113-17.039-5.2625-13.2-2.4016-34.75 13.023-39.787 1.8898-0.33594 3.6495-0.50466 5.2891-0.52344zm3.875 18.711c-9.7 11.725 16.288 3.525 0 0zm-11.703 2.2598c-0.30492 0.004-0.62891 0.0379-0.97266 0.10351-5.15 1.3-2.3129 8.6742 2.0996 8.6367 3.668-2.2617 3.4469-8.7973-1.127-8.7402zm13.402 8.2285c-4.375 6.425-15.249-5.0254-11.762 7.7246 6.9875 7.5 17.374-6.0996 11.762-7.7246zm-258.02 34.76c-2.7405-0.0272-5.7455 0.38106-9.0664 1.3066-30.212 13.762-6.3367 51.112-5.2617 74.412 6.525-5.1 14.611-10.526 21.486-2.6758 6.325-6.8875 12.814-13.436 23.602-10.424 1.5375-8.7 15.712-10.963 11.225-20.176-14.896-13.159-19.669-42.222-41.984-42.443zm525.31 4.002c-1.0866-0.008-2.1969 0.0629-3.3281 0.2168-29.35 6.8625-24.138 43.362-28.988 65.875 6.3375-0.1625 17.812-6.0625 18.162 4.25 5.35 4.625 15.102-5.55 21.477 0.75 10.412 7.6875 13.186-13.699 25.086-7.4492 1.875-10.438-8.4234-18.688-6.4609-29.812 1.3945-16.043-9.6476-33.713-25.947-33.83zm-526.75 0.0312c13.85-0.004 24.883 12.57 28.082 25.836 2.3 6.9 16.874 13.436 8.8867 20.299-8.025 0.675-2.725 14.314-12.25 9.4766-8.9-5.6-14.874 15.625-21.512 5-5.9125-7.2-15.451 13.398-14.801-2.6016-1.325-18.712-19.823-51.286 8.7891-57.836 0.94688-0.11562 1.8814-0.17353 2.8047-0.17383zm159.48 2.7109c-28.275 3.4375-22.412 39.15-32.688 57.625-5.8 13.962 13.575-2.2387 15.838 6.9238 3.7375 10.55 16.586 1.5508 24.111 6.1133 9.075 5.325 13.963-8.0129 23.676-4.6504-2.575-23.538 2.9-66.612-30.938-66.012zm369 0.73c19.006 0.25611 21.025 27.928 22.35 43.068 0.875 4.25 9.175 18.126-2.1875 15.176-6.675-2.1375-5.6383 11.549-12.613 6.3242-7-7.3625-19.588 4.175-24.15-6.125-1.9-7.45-15.775 5.1258-12.713-4.3242 6.8625-16.662-0.13633-46.025 21.514-52.9 2.8766-0.86953 5.4668-1.2502 7.8008-1.2188zm-163.89 2.0449c-6.475 3.775-13.151-0.43789-20.113 0.34961-3.5875 21.488-25.887 41.75-13.137 64.15 10.8 13.775 29.95 9.9859 41.775-0.0391 6.4375-11.188 15.599-20.886 25.262-28.898 2.875-11.05-16.962-5.0762-12.287-19.264-11.625 0.2625-14.388-10.286-21.5-16.299zm-202.04 0.6211c25.351 0.62475 21.08 40.828 24.678 58.115-11.3 10.75-23.775 2.6125-38.912 4.25-2.5125-7.15-9.7867-11.137-17.012-7.0996 9.075-17.875 3.5371-47.238 27.287-55.062 1.3945-0.16816 2.7122-0.23385 3.959-0.20312zm185.09 2.1035c4.4125 3.6875 11.074 5.0629 17.674 2.9004 2.0375 8 7.6262 12.2 16.389 11.162-6.225 14.025 18.637 11.763 8.8867 21.4-6.15 4.6375-12.462 9.6609-15.537 16.961-7.35 13.062-29.1 20.838-39.537 7.8125-13.8-21.175 10.9-39.674 12.125-60.236zm-343.03 10.275c-12.1 7.7875 18.862 3.1875 0 0zm-9 2.75c-1.1626-0.0622-2.6551 0.0637-4.5371 0.4375-3.7949 18.34 15.776 0.16389 4.5371-0.4375zm522.8 0.41797c-0.26561-0.0193-0.55-0.0102-0.85157 0.0312-4.375 3.3625-4.2242 14.051 4.2383 9.9258 0.64453-2.8945 0.59743-9.6676-3.3867-9.957zm11.412 0.31836c-4.275 2.7125-2.175 10.675 3.1875 9.2871 5.65-2.3375 0.1375-7.7621-3.1875-9.2871zm-376.34 2.3613c-0.25718-0.0132-0.53282 0.002-0.82813 0.0508-5.8125 3.1375-1.5617 11.552 4.4258 9.6016-0.0234-2.6719 0.26001-9.4538-3.5976-9.6523zm11.203 2.3008c-0.94142 0.0191-2.0254 0.11094-3.2676 0.28906-0.63281 15.434 17.389-0.57594 3.2676-0.28906zm-159.22 0.45117c0.7125 7.2125-13.787 2.8-8.1621 9.5625 7.6125 6.85 19.4-10.05 8.1621-9.5625zm512.01 7.0371c-1.625 8.5625 15.349 9.3004 13.674 0.15039-4.6375 2.7-8.9863 1.5371-13.674-0.15039zm-365.05 2.6758c-1.4625 8.55 14.763 8.3359 13.525 0.0234-4.5125 0.425-9.0379 0.43906-13.525-0.0234zm207.54 2.4082c-1.2706-0.11754-2.6875 0.35157-4.2188 1.6777-9.15 5.7 5.4492 3.2512 6.6367 9.3887 7.0137 7.3406 4.4432-10.432-2.418-11.066zm-10.697 6.3242c-0.4395-0.01-0.9125 0.0762-1.4219 0.2793-7.7125 4.5375 1.2129 11.587 6.8379 7.1621-0.89687-2.5812-2.3395-7.3724-5.416-7.4414zm9.625 7.3711c-0.37477-0.0109-0.77617-0.004-1.209 0.0215-2.7125 17.45 12.827 0.31634 1.209-0.0215zm136.49 67.887c5.2575-0.10408 10.416 1.7719 15.305 3.6094-26.425 100.71-50.014 202.42-76.764 302.88-21.5 4.7875-47.125 0.18672-70.125 2.2617 19.288-92.912 37.188-186.14 55.625-279.17 0.3125-12.562 16.676-5.3629 24.576-8.1504 18.838-0.6875 33.875-11.975 49.125-21.25 0.75469-0.10156 1.5067-0.15701 2.2578-0.17187zm-467.4 0.33203c6.1944 0.20419 9.9562 7.1254 15.979 8.9394 26.038 15.225 58.013 18.187 86.9 10.887 17.288 96.175 36.85 192.05 53.812 288.33-27.712-0.25-55.412 0.12422-83.1-0.17578-26.825-101.92-51.625-205.51-77.312-307.32 1.3438-0.49805 2.5736-0.69016 3.7207-0.65234zm130.15 3.6387c14.738 4.325 27.251 16.864 43.613 18.576 23.25 10.287 48.05 3.225 69.875-6.5625 0.4 97.587-2.825 194.82-3.25 292.32-22.312-0.175-44.727 0.7875-66.977-0.3125-16.625-97.875-37.386-195.31-54.211-293.14 0.6625-5.3625 8.1742-6.2512 10.949-10.889zm224.07 7.5098c7.7237 0.34594 15.387 6.75 23.555 7.0664-20.575 95.725-36.35 192.41-58.062 287.82-18.675 4.8875-42.326 0.72539-62.801 1.9004 0.7-97.362 4.0008-194.55 2.2383-292.15 30.3 7.0875 66.763 16.012 93.525-4.625 0.51563-0.0344 1.03-0.0387 1.5449-0.0156z"/>
</g>
</g>
</svg>
