<?xml version="1.0" encoding="UTF-8" standalone="no"?>
<svg id="svg5064" xmlns:rdf="http://www.w3.org/1999/02/22-rdf-syntax-ns#" xmlns="http://www.w3.org/2000/svg" height="220.03mm" width="210.91mm" version="1.1" xmlns:cc="http://creativecommons.org/ns#" xmlns:dc="http://purl.org/dc/elements/1.1/" viewBox="0 0 747.31075 779.63445">
<g id="layer1" transform="translate(53.655 -96.83)">
<g id="g5745">
<g>
<path id="path5743" d="m323.8 151.59c-1.3732 12.241-1.8292 25.964-11.225 35.414-12.67 14.761-33.614 17.155-50.986 23.437-55.479 16.216-114.52 28.652-160.96 65.287-40.332 29.646-76.419 70.945-85.246 121.6-1.2207 6.0573-10.347 5.8609-14.431 9.7426-21.154 13.419-41.043 35.941-39.206 62.578 1.5109 22.301 9.0018 46.241 28.222 59.527 27.948 21.416 68.597 19.661 97.796 1.5974 27.659 20.662 65.782 35.123 99.56 21.002 10.817-3.538 18.216-12.931 27.903-17.98 10.918 3.3583 19.658 12.157 30.319 16.532 13.762 7.5897 29.465 10.702 45.076 8.6709 18.365 0.85844 33.231-12.049 50.399-15.661 13.574 4.5135 25.761 13.58 40.594 14.167 18.173 1.8977 37.086-2.2956 51.865-13.248 8.6422-4.6152 16.963 4.755 25.582 5.8352 29.012 9.7696 63.636 4.6643 85.772-17.379 13.601-4.5509 25.461 8.6965 39.065 8.306 23.884 3.24 49.042-3.5316 66.549-20.494 20.864-16.902 33.666-45.339 25.768-71.967-3.3124-16.206-13.768-29.339-26.099-39.829-7.7695-6.5543-14.824-14.529-15.577-25.15-7.5035-28.869-24.414-54.891-43.407-77.129-29.207 2.5784-58.927-1.8624-88.024-6.0577-42.327-9.486-79.765-34.704-110.37-64.556-5.4635-5.1921-15.856-14.915-6.8494-21.876 5.5996-4.8764 16.854-1.6182 19.637-9.3662-1.4132-21.433-20.525-37.417-39.358-44.759-13.505-4.5443-28.156-9.2117-42.366-8.2486z" fill="#ffff92"/>
<path id="path5704" d="m563.1 106.11c-4.4745 1.647-7.37 6.0122-10.986 8.9746-18.679 18.368-37.604 36.514-55.59 55.564-4.2327 5.8882-8.503 11.782-13.029 17.471-3.315 4.7554-6.664 10.146-7.0625 16.021 0.72518 3.3265 5.1523 1.9023 7.7031 2.7441 5.4803 0.74918 12.56 3.2331 16.814-1.7793 2.0701-2.8568 3.7762-6.963 8.0762-6.6523 4.816-0.20365 11.826 3.0306 10.789 8.8027-0.40446 4.4262-0.92095 10.024 3.5352 12.695 5.3822 3.4511 11.994 4.0121 17.691 6.7949 3.3232 1.2668 4.4904-2.8379 4.9941-5.2656 5.2332-18.744 3.5202-38.798 9.0684-57.363 3.1598-10.685 10.905-20.506 21.627-24.42 7.0638-1.0117 12.254 5.0636 18.387 7.4902 2.118 1.0344 6.1168 2.6897 6.9102-0.71484-0.0521-14.99-10.802-27.978-23.553-34.801-4.825-2.4437-9.9521-4.9432-15.375-5.5625zm-138.93 110.24c-1.2529-0.019-2.5069-0.0118-3.7637 0.0215-8.4343 0.34731-17.173 0.0485-25.285 2.6523-3.9065 2.1341-1.4782 7.2624 0.75977 9.7441 4.1856 5.5456 10.782 8.4224 15.273 13.674 35.31 33.137 82.493 52.618 130.56 56.625 11.753 1.0781 23.568 1.0648 35.305-0.22656 5.2922-0.70275 10.86-0.54066 15.93-2.2832 2.8589-2.4216-1.0274-5.3216-3.1191-6.4844-22.429-15.29-41.804-36.374-68.096-45.482-4.9826-1.546-10.443-0.28899-15.615-0.69532-5.9791-0.14601-12.087 0.29346-17.984-0.21874-2.9106-1.0364-6.3726-2.9917-5.7949-6.6484 0.68802-3.1904-0.75171-5.9996-4.1133-6.5606-16.944-7.7996-35.262-13.833-54.055-14.117zm-96.01 9.5801c-8.0695 2.4889-12.307 11.102-17.367 17.295-4.998 8.2537-11.896 16.382-13.141 26.188 1.2286 7.2376 10.005 4.1916 14.611 3.1094 3.3391 6.3979 14.808 5.7981 15.383-2.2051 2.1572-8.4968 0.28403-18.177 3.957-26.105 4.4947-0.16801 14.033 2.1876 12.791-5.5391-2.6675-6.4219-9.1705-12.109-16.234-12.742zm-42.877 50.041c-5.997 1.0963-14.095 0.76098-17.791 6.3574-1.1777 7.0105 7.957 9.3819 12.406 12.682 14.655 8.7384 31.675 13.514 48.787 11.943 6.3949-0.89755 14.541 0.34595 19.428-4.627 2.2499-5.8408-5.659-8.5006-9.2012-11.502-6.7934-4.9653-15.001-7.7504-23.459-6.5332-11.118 1.825-19.327-8.483-30.17-8.3203zm-104.87 27.748c-14.814-0.0284-29.763 3.1916-41.99 11.947-4.3679 4.0084-12.343 5.1966-14.371 11.199 0.4549 7.6624 10.544 8.7335 16.557 8.8418 8.4613 0.15146 16.835-2.9204 22.994-8.6699 12.252-2.1478 28.349-0.16989 36.797-11.623 3.3378-3.7715 2.9093-11.247-3.3027-11.23-4.549-0.52205-9.1515-0.43164-13.723-0.41602-0.9856-0.0301-1.9733-0.0469-2.9609-0.0488zm307.03 26.293c-15.468 0.16976-31.091 4.045-43.367 13.863-6.0257 4.6002-13.15 8.3227-17.836 14.375-1.2971 6.8439 8.297 8.7848 13.447 8.5332 10.513-0.25955 19.481-6.3897 27.492-12.475 8.3835-0.75289 18.713 1.0234 24.512-6.8203 3.901-4.738 10.9-6.6703 13.527-12.383 0.2143-7.0833-10.509-4.4304-14.684-5.0801-1.0288-0.0209-2.0605-0.025-3.0918-0.0137zm-310.57 3.4648c-4.1959-0.33736-4.8447 6.4148-9.3066 4.2129-4.3637-0.34728-12.816-4.2246-13.488 3.0098-0.2251 10.554 9.4381 18.823 9.1914 29.271-1.3326 4.8437-9.5363 6.2444-6.957 12.514 4.4077 9.3221 18.828 7.2453 23.496-0.90039 2.9613-6.2722 0.66988-13.654 2.8301-20.244 1.0224-8.3016 5.6846-19.058-1.084-26.041-1.3252-1.0414-2.9507-1.8926-4.6816-1.8223zm144.16 15.953c-6.6731 0.65215-16.169 4.1045-16.441 11.938 0.4226 5.2562 6.0127 3.0839 9.0664 4.6387 4.6123 3.6004 5.9144 10.094 3.166 15.227-1.0109 6.35-3.3638 15.596 2.8516 19.963 4.2171 1.9356 11.307 0.52093 12.135-4.0254 4.3568 2.5557 12.484 7.4176 15.654 0.92773 0.2797-8.3137-4.7861-15.963-7.8535-23.486-4.5009-6.5836-7.1683-14.082-10.941-21.033-1.6647-2.6415-4.4471-4.3875-7.6367-4.1484zm162.16 8.1894c-5.3252 0.24176-7.0767 6.348-9.3125 9.9043-3.6777-2.6992-8.9039-3.3438-13.121-1.7676-4.0614 3.0654-0.95724 8.4512 1.0645 11.787 5.3014 8.0837 12.933 14.292 19.529 21.275 3.8266 3.1765 6.7674 7.8697 11.531 9.6914 7.563 1.6739 14.049-5.0652 16.619-11.539 1.7315-2.6839 1.8256-7.6171-2.1602-8.166-3.3152 0.10832-6.9396 1.2952-10.158 0.14844-5.6012-4.8699-6.2575-13.113-7.2891-19.756-0.5562-4.1468 0.0125-10.916-5.6465-11.518-0.3504-0.0487-0.70284-0.0709-1.0566-0.0605zm100.66 45.57c-4.365 0.10682-8.476 4.9086-5.877 9.0547 1.303 2.5284 5.2686 3.0953 4.9434 6.5234 0.032 6.9286-4.079 13.515-9.8379 17.203-3.635 3.0888-8.3997 7.6449-6.1504 12.898 2.3374 4.7729 9.389 7.3419 13.969 4.6504 1.8292 3.9218 4.6084 9.664 9.9453 8.1992 3.7757-0.51578 5.739-4.0529 6.0156-7.5527 3.03-14.342 4.8248-29.039 4.8848-43.67-1.0782-3.8158-5.7912-4.8759-9.1524-6.125-2.5548-0.71676-5.2037-1.1924-7.8652-1.1387-0.2914-0.0362-0.584-0.0501-0.875-0.043zm-235.78 1.1309c-5.3292-0.0102-9.0406 4.9019-13.777 6.2246-9.8775-6.6708-23.07-3.8948-32.734 1.6816-4.3676 1.1429-10.439 3.1932-11.154 8.6504 1.088 6.5001 9.914 4.7172 14.59 6.6191 13.602 3.0623 27.853 2.0964 41.604 0.6289 9.5071-2.5224 19.832-5.4125 27.164-12.215 2.8285-6.1543-5.8908-8.4124-10.16-9.6758-4.6954-1.3098-9.5566-2.1046-14.443-1.8438-0.3704-0.047-0.73259-0.0696-1.0879-0.0703zm-277.58 4.9492c-5.4464 0.37917-8.4652 5.9387-11.045 10.084-6.3704 12.687-7.2209 27.144-10.748 40.707-0.6296 4.0206 4.4281 5.73 7.377 3.7949 2.8126-1.0306 4.6808-3.4093 6.4648-5.6074 2.4019-0.52137 4.6924 1.5689 6.9609 2.1387 3.4758 1.1187 8.4021 3.9999 11.312 0.48438 0.8732-4.831-1.739-9.5304-2.5918-14.242-1.6282-5.9935-3.2253-12.417-2.1641-18.609 0.4948-2.0216 1.9535-2.6219 3.8906-2.5371 3.6189 0.044 7.9743-3.0641 6.2559-7.0527-2.9363-5.4914-9.5942-8.9681-15.713-9.1602zm132.32 14.12c-0.4435-0.0104-0.89927 0.0717-1.3848 0.28711-5.0373 2.4122-10.457 6.0241-12.209 11.594-1.3038 3.1168 0.65118 7.7008 4.5215 6.8359 3.3925-1.5698 8.1726-0.0631 8.75 3.9863 2.2193 8.1364 0.63591 16.86 3.3496 24.859 1.3496 3.6238 5.6914 5.2726 9.0781 3.3262 2.0338-0.70166 3.3272-2.7002 3.8652-4.5957 4.8223 1.1062 10.627 5.3386 14.939 0.58789 3.7243-2.6574 0.18042-6.7182-1.3008-9.5742-7.5309-13.228-14.562-27.717-27.406-36.666-0.75899-0.3481-1.464-0.62333-2.2031-0.64063zm229.33 2.1074c-6.7989-0.13964-9.7505 7.0668-12.887 11.859-5.3229 9.4366-11.734 18.617-14.463 29.23-0.7864 3.5676-0.22456 9.6626 4.6484 9.502 3.4986-0.17331 5.5926-3.9566 8.6777-4.709 3.3165 2.7193 7.9128 7.0194 12.41 4.3555 4.6206-3.5259 2.8452-10.069 3.3008-15.059 0.2585-5.236-0.51846-10.539 0.55274-15.678 0.6719-2.1192 2.401-4.0147 4.8359-3.416 2.7676 0.0656 6.5791 1.2912 7.9316-2.1602 2.2935-6.1802-3.1836-12.181-9.0801-13.264-1.9318-0.50277-3.9368-0.66467-5.9277-0.6621zm103.89 22.238c-3.3114 0.13061-4.541 4.6662-2.043 6.8691 15.676 21.958 41.138 37.624 68.43 38.527 3.5128 0.64798 6.1736-3.298 4.3262-6.3418-4.1046-10.365-13.566-19.31-24.895-20.621-2.0491-0.12842-4.5589 2.4028-5.8984-0.41016-1.4575-1.6806-3.8723-2.2339-4.3906-4.6074-6.2136-9.0431-17.776-11.845-28.062-12.951-2.2535-0.21001-4.5125-0.41759-6.7773-0.42969-0.2388-0.0324-0.46866-0.0439-0.68946-0.0351zm-458.25 18.44c-13.788 9.474-31.711 0.73966-46.104 8.4024-3.5873 2.5327-10.466 8.236-4.4512 11.584 17.971 8.1648 38.973 7.5029 57.773 2.6699 8.3544-2.807 17.291-5.6774 24.125-11.312 2.7055-5.9036-5.7521-7.0377-9.6465-7.8066-7.1715-1.2021-14.482-3.6747-21.697-3.5371zm169.54 8.2949c-6.1019 0.2202-12.468 1.2656-17.869 4.1953-2.1955 1.3058-3.012 5.9424-6.1367 5.1328-4.478-2.1154-9.5329-2.9462-14.357-1.4961-8.8861 1.9959-16.838 6.8093-24.537 11.447-3.1647 3.3271 0.38351 8.7314 4.3496 9.4238 9.2862 1.6968 18.89 1.3688 28.271 0.61133 16.864-1.7454 33.097-8.678 46.402-19.105 2.8346-1.9756 1.805-6.2881-1.2774-7.3652-4.4371-2.8509-9.7662-2.8499-14.846-2.8438zm153.1 4.1055c-0.7739 0.003-1.5411 0.031-2.293 0.0762-7.4186 0.95612-16.376-0.677-22.584 4.2578-3.702 5.7964 4.3156 9.7201 8.5117 11.936 16.693 9.9129 36.755 13.675 55.834 9.8223 6.6296-1.4508 13.978-2.6846 19.186-7.2012 0.4041-6.3884-8.4265-6.4807-12.629-9.3535-9.8263-4.563-21.497-7.7942-31.85-3.3984-3.0193-4.9611-8.7583-6.159-14.176-6.1387z" fill="#000080"/>
<path id="path5636" d="m552.03 544.04c-0.76247-0.006-1.523 0.0662-2.2774 0.24218-19.279 14.772-43.047 24.859-67.557 23.07-6.8332 0.44341-5.5346 9.7356-7.6953 14.664-11.758 53.203-19.555 107.11-30.686 160.41-7.3882 38.832-15.332 77.624-20.301 116.86 1.5137 6.7587 10.547 2.6458 15.5 3.7695 19.129-0.25204 38.455 0.50411 57.461-0.3789 4.7935-3.5269 3.745-11.533 6.0762-16.875 24.508-96.711 48.666-193.51 72.875-290.3-0.80413-5.9873-8.9096-6.665-13.588-9.1055-3.1534-0.84521-6.5046-2.3338-9.8086-2.3594zm-465.02 3.3281c-0.11174-0.0151-0.2233-0.0184-0.33203 0.006-5.842 2.7219-0.68922 9.8209-0.59961 14.393 24.031 99.724 49.555 199.08 74.154 298.67 3.7444 5.2529 11.851 1.4774 17.453 2.6211 22.237-0.25443 44.671 0.50713 66.785-0.3789 5.1083-3.0006 0.39304-10.379 0.75-15.197-14.555-93.55-34.981-186.07-51.414-279.24-3.4373-5.6268-10.114 0.39742-15.098-0.0703-17.129 1.023-34.848 1.9568-51.236-4.1426-13.832-3.8716-26.593-10.534-39.467-16.643-0.31801 0.17994-0.66087 0.0298-0.99609-0.0156zm128.82 2.8438c-5.5015 0.91014-10.187 5.6732-12.734 10.438 0.0821 9.4094 3.5703 18.738 4.7715 28.129 17.245 90.169 33.736 180.49 51.855 270.49 2.9614 5.3817 10.697 2.7492 15.734 3.6602 17.774-0.005 35.741 0.57977 53.393-0.25195 4.9281-3.4837 1.7045-11.623 2.9902-17.023 1.5107-94.021 1.3673-188.06 2.002-282.09-2.2534-7.0667-9.8286-0.12706-14.221 0.84765-14.297 6.6657-30.309 9.1329-45.918 6.6289-20.127-2.481-37.057-15.053-56.26-20.734-0.53444-0.0715-1.0742-0.10575-1.6133-0.0898zm224.41 6.0527c-9.6316 2.4377-17.593 9.3562-27.457 11.438-12.427 1.949-25.233 1.1991-37.758 0.41796-9.5655-1.4956-18.777-4.9028-28.033-7.7109-6.1534 1.558-2.5654 10.063-3.6484 14.574-0.65744 94.886-0.89513 189.77-1.3106 284.66 2.1065 6.2548 10.553 2.3088 15.521 3.4121 17.411-0.25635 35.021 0.50995 52.309-0.3789 4.7144-3.4757 3.271-11.268 5.1465-16.582 16.79-92.673 34.771-185.2 51.484-277.89-1.9256-6.5897-10.755-6.8462-16.061-9.5234-3.33-0.95758-6.6845-2.4073-10.193-2.4141z" fill="#ccc"/>
<path id="path5714" d="m510.08 201.95c-3.4956 0.0756-6.0146 2.8354-7.3906 5.8691-5.034 9.3409-10.415 18.547-14.826 28.193-0.9007 3.2071 2.9678 3.4187 5.0781 3.9434 6.3154 1.4228 12.91 4.6876 19.449 2.8574 4.6042-2.5346 4.4752-8.6378 2.8457-12.904-1.5524-8.3993 3.8812-16.811 1.4004-25.146-0.93413-2.2652-3.6324-2.9014-5.8437-2.793-0.24168-0.0195-0.47985-0.0246-0.7129-0.0195zm-199.59 68.732c-0.6226 0.10388-0.61494 0.93568-0.89844 1.373-1.1562 2.6501-2.6733 5.1437-3.6523 7.8691-0.6174 1.8218-0.8349 4.0567 0.4414 5.6582 0.4843 0.59889 1.0885 1.1362 1.7637 1.4922 1.489 0.13628 3.0476-0.32443 4.0801-1.4394 1.9788-2.1046 2.6673-5.1232 2.6309-7.9414-0.031-2.474-0.89524-5.1811-3.0859-6.5625-0.3899-0.22898-0.82379-0.41709-1.2793-0.44922zm-144.55 54.05c-1.0464 0.0735-2.1449 0.16749-3.1094 0.59765-0.3069 0.46834-0.049 1.1055-0.084 1.6367 0.2842 3.2909 0.46528 6.7237 1.9551 9.7363 0.7677 1.5198 2.2725 2.9607 4.0898 2.8281 0.5598-0.0775 1.3237 0.14365 1.7363-0.33984 0.1196-0.46278-0.0973-0.96021-0.0273-1.4414-0.1073-2.9649 0.0841-5.9565-0.17774-8.9199-0.1935-1.2764-0.6505-2.6109-1.75-3.3867-0.7442-0.57825-1.7129-0.73821-2.6328-0.71093zm303.41 28.121c-0.065 0.00084-0.12876 0.0009-0.19336 0.002-1.3574 0.0401-2.7168 0.49138-3.8555 1.1914-0.2596 1.8263 0.25233 3.7172 1.1113 5.3438 1.1065 2.3228 2.7679 4.4728 3.1406 7.0781 0.1576 0.77423-0.10202 1.6414 0.23828 2.3652 0.5916 0.31312 1.3263 0.0674 1.9648 0.0293 2.2337-0.29939 3.7743-2.3706 4.2695-4.4453 0.6857-2.8884 0.14243-6.0689-1.4512-8.5723-1.1198-1.7555-3.0723-3.1221-5.2246-2.9922zm-138.94 42.75c-0.7295 0.0176-0.53138 0.96841-0.67968 1.4414-0.4497 3.1064-1.4254 6.166-1.2656 9.3359-0.125 1.4736 0.59771 3.1734 2.0996 3.6367 1.4298 0.37944 2.935-0.06 4.2734-0.57226 0.4052-0.38379 0.25398-1.064 0.39648-1.5703 0.1988-2.3079 0.24514-4.6394 0.0566-6.9492-0.3201-1.9101-1.0953-4.0697-2.998-4.9082-0.5928-0.24835-1.2355-0.42715-1.8828-0.41406zm247.71 55.979c-0.1375-0.007-0.27153 0.003-0.39843 0.0703-0.6521 1.2835-1.5554 2.435-2.6406 3.3594-1.8965 1.7372-4.2348 3.2224-5.3144 5.6543-0.3357 0.92929-0.54432 1.9797-0.32422 2.957 0.2475 0.51765 0.85978 0.0351 1.2676 0.12305 0.5717-0.0668 1.3246 0.16206 1.3418 0.84961 0.13829 0.53576-0.15239 1.2154 0.19921 1.6504 1.499 0.47772 3.2222 0.20769 4.5371-0.65821 2.6433-1.7299 4.375-4.6452 5.0781-7.6855 0.2931-1.5845 0.48591-3.4044-0.42969-4.8301-0.6121-0.98579-1.7613-1.5004-2.9023-1.4629-0.1363 0.003-0.27647-0.0204-0.41407-0.0274zm-513.97 6.4551c-0.5569 0.0324-1.1618 0.0566-1.6543 0.32032-0.2649 1.5256-0.20346 3.1042-0.28906 4.6523-0.032 3.1538-0.09205 6.3172 0.12695 9.4648 0.029 0.79586 0.99781 0.80869 1.5664 1 1.35 0.24722 2.8682 0.17349 3.9688-0.74218 1.6224-1.319 2.2937-3.5225 2.2617-5.5566 0.1116-2.7205-0.6562-5.5781-2.5332-7.6074-0.8919-0.93797-2.1373-1.5544-3.4473-1.5312zm356.25 11.943c-1.9787-0.0312-3.8587 1.0284-4.9766 2.6387-1.7903 2.5352-2.3222 5.7546-2.2266 8.8008 0.09 1.1154 0.12882 2.3066 0.61132 3.3203 1.8993 0.58427 4.109 1.197 5.9766 0.17969 1.5109-0.85387 2.0215-2.7207 2.0898-4.3438 0.1034-3.1581-0.13074-6.3319-0.0566-9.4726 0.1389-0.47171 0.15756-1.1683-0.52734-1.0762-0.294-0.0469-0.59343-0.0539-0.89063-0.0469zm-198.67 0.5625c-1.6376 0.10749-2.7701 1.5328-3.5586 2.832-1.5117 2.5679-2.1765 5.656-1.6621 8.6055 0.3258 1.2742 0.97033 2.5627 2.0488 3.3359 2.3155 0.0201 4.6939-0.75148 6.3262-2.4434 1.3294-1.2316 1.9315-3.1375 1.5664-4.9102-0.1266-1.0029-0.77723-1.7998-1.1445-2.7031-0.3957-1.6284-1.0376-3.37-2.4277-4.4043-0.3383-0.21962-0.74713-0.32005-1.1484-0.3125z" fill="#ff0"/>
</g>
<path id="path34" d="m564.22 96.83c-8.175 1.9-15.85 5.4141-20.375 12.727-31.062 30.55-64.1 59.8-83.412 99.438-15.962-1.5375-44.062 2.1742-45.062-21.113-0.7125-15.125-13.688-23.538-23.938-32.275-24.725-13.675-52.9-22.775-81.375-19.4-9.025 3.8-3.6504 13.901-2.5879 21.113 2.7625 13.112-7.6133 23.488-17.863 29.312-52.975 16.662-107.89 27.775-158.54 51.287-58.15 34.062-115.3 82.05-129.84 151.41-42.45 19.425-69.262 72.351-46.687 116.99 11.038 35.538 49.376 52.688 84.051 54.676 11.062 0.525 21.75-6.5266 32.812-3.1016 24.725 103.28 51.975 206.19 76.787 309.54 0.3 4.675 3.6379 11.186 9.8379 8.3359 116.15-0.1375 232.32 0.225 348.47-0.1875 6.05-4.475 6.1625-12.837 7.5-19.574 25.738-99.125 49.6-198.86 75-297.95 31.512 0.625 63.763-14.338 84.9-38.5 18.738-25.362 27.912-62.402 10.412-90.602-4.75-17.088-20.712-25.998-31.75-38.461-7.1375-31.712-24.163-62.589-44.025-86.951 2.7625-4.3625 1.625-10.574-2.75-13.424-17.788-12.338-34.563-26.651-51.775-39.076-2.7-31.45 8.3762-61.662 12.201-92.438 8.0375-14 25.586-6.8129 32.299 4.0371-0.6875 6.2375 2.6512 19.064 11.201 13.139 11.562-31.862-9.175-75.889-45.5-78.951zm-2.2129 10.801c18.062 3.3375 38.449 18.525 38.074 39.1-9.5125-1.1875-17.249-14.175-27.574-7.4004-30.888 16.088-19.1 58.938-29.9 86.488-7.025-5.925-22.912-2.85-21.199-15.562 5.2875-11.938-16.075-19.488-20.438-8.6504-3.7875 9.35-15.725 1.6246-22.787 2.8496 1.375-13.3 14.375-21.588 19.725-33.312 21.588-20.8 42.687-42.399 64.1-63.512zm-238.15 44.838c32.975 1.125 77.575 15.437 80.9 54.324-7.55 2.8625-18 1.5754-22.963 8.9629-5.75 15.088 11.914 18.925 17.701 29.35 35.788 31.475 79.436 57.65 128.21 60.725 20.9-0.8125 42.652 6.2137 62.914 1.6387 21.425 25.8 40.523 55.888 45.211 89.838 11.962 13.4 30.151 22.362 35.389 41.012 26.838 56.425-39.7 116.54-94.912 99.949-11.162-1.2125-22.613-14.75-33.551-6.1875-25.075 26.488-67.526 26.65-98.488 10.625-6.7-3.975-14.449-0.9125-18.012 5.5625-22.862 10.875-51.263 12.214-73.238-1.6484-6.1625-3.35-13.562-8.65-20.312-3.375-28.488 19.488-69.499 21.373-96.986-0.78906-9.4625-0.7875-18.326-17.85-26.826-6.6875-33.262 34.362-88.361 20.377-121.27-7.0859-33.275 23.125-83.051 19.511-109.89-11.852-13.775-24-22.638-56.775-4.7754-80.812 9.2875-16.025 25.725-28.7 43.213-34.287 8.425-62.975 58.125-108.8 108.81-141.05 49.612-29.45 108.1-38.412 162.4-56.438 22.588-5.4375 41.362-27.3 36.475-51.775zm187.88 51.268c9.5033 0.0931-1.9719 19.864 2.0859 27.969 3.85 17.7-15.15 6.5875-24.588 5.375 5.4125-10.85 11.462-21.348 17.037-32.086 2.3203-0.88125 4.1072-1.2711 5.4648-1.2578zm-91.758 14.318c21.264 0.051 41.187 6.0488 60.668 15.752-4.5875 18.6 26.663 10.449 36.176 11.637 29.912 7.3625 51.325 33.812 76.662 49.387-65.238 11.525-139.15-10.6-186.84-59.412-5.05-2.325-18-14.662-8.4121-15.35 7.4188-1.3875 14.656-2.0307 21.744-2.0137zm-93.145 5.9394c-16.588 11.55-26.937 33.099-34.637 50.299-9.4375 2.3875-23.412-0.51289-29.662 9.0371 23.462 22.9 60.038 31.262 90.9 19.25-1.35-8.975-14.289-13.787-22.789-16.262-2.3875-12.862-1.7109-26.363 0.41406-39.213 4.9875-6.8 12.524 2.3133 14.549 7.4883 5.8125-13.538-5.3129-28.675-18.775-30.6zm1.291 4.7285c6.6829-0.0673 20.711 16.479 8.5352 12.096-20.738-5.425-1.7141 40.725-19.914 32.312-2.625-10.462-14.511 3.8629-16.549-4.7246 6.5625-14.4 15.212-28.438 26.699-39.438 0.37031-0.16328 0.78298-0.24161 1.2285-0.24609zm-17.803 42.146c6.9 1.275 5.0379 17.173-2.2246 15.898-5.9-3.675 0.69961-10.886 2.2246-15.898zm-25.115 8.1387c10.9-0.3253 18.31 10.873 29.289 8.8477 12.088-3.6625 24.276 6.0504 31.889 12.775-22.95 8.5-50.875 2.225-71.25-12.5-8.825-1.6-3.7012-8.5996 3.6113-7.5996 2.3027-1.0078 4.4424-1.4632 6.4609-1.5234zm-96.035 23.531c-8.7165 0.14911-18.069 2.1418-25.775 1.291-16.888 3-32.211 13.351-44.211 25.326-1.725 16.438 25.761-1.6246 31.898 12.15 3.8375 9.7625 12 18.824 10.963 29.736-2.875 7.425-10.362-1.0621-15.35-0.22461 2.9125 13.25 21.062 27.488 33.012 14.238 4.35-17.85 9.6512-37.15 4.1387-55.375 5.8-8.9625 22.412-10.238 23.438-21.938-4.9383-4.3203-11.334-5.321-18.113-5.2051zm-4.3984 4.0586c5.4655-0.003 10.713 0.41679 15.148 1.5215-3.3125 16.725-25.124 14.061-38.111 15.111-5.85 11.462-30.425 11.825-35.438 4.1621 11.25-7.3875 23.324-16.924 37.512-19.262 6.4758-0.82969 13.862-1.5296 20.889-1.5332zm-18.609 18.371c6.2325 0.10442 3.1598 9.4582 4.2207 14.15-7.125 1.8875-7.0875-9.4629-7.5-13.588 1.3094-0.40312 2.3889-0.57742 3.2793-0.5625zm330 2.6406c-7.5097 0.063-15.332 1.4551-22.244 1.7715-19.2 4.525-36.474 15.112-49.674 29.725-0.4375 15.038 20.436 6.1133 29.773 7.6133 8.525 16.525 21.162 29.562 34.938 41.688 16.475 6.5125 29.826-15.676 22.389-28.576-6.8-2.75-2.0637 8.9879-7.8887 9.7129-15.775 2.0875-9.0375-20.75-13.562-29.562-2.0875-15.212 17.288-18.6 22.65-28.975-4.8891-2.6906-10.54-3.4455-16.381-3.3965zm-4.5898 5.3594c3.555-0.005 7.1121 0.10508 10.646 0.23633-0.8875 6.0875-10.801 7.3008-13.988 13.176-6.5125 8.625-17.011 1.5996-25.086 5.9121-6.85 8.7375-26.188 16.751-34.625 7.3633 13.95-10.625 26.85-23.463 45.412-25.275 5.7969-1.0781 11.716-1.4045 17.641-1.4121zm-315.44 3.0371c12.512 2.825 0.975 25.375 1.8125 36.225 4.1375 13.038-18.913 19.213-19.213 6.2754 19.888-7.875-2.4621-25.712-1.9121-38.887 7.2875-0.925 16.375 6.3742 19.312-3.6133zm146.74 10.801c-0.9373 0.0617-1.9383 0.43399-2.9883 1.2246-13.225 1.3-20.224 12.2-21.762 24.412 6.2625 1.825 12.762-11.6 17.287-4.0371 2.7375 10.888-1.5496 22.275-3.0371 33.125-1.175 13.25-25.775 6.8-25.625 19.75 27.638 17.688 63.886 11.812 90.486-4.9004-0.275-13.962-21.038-8.6367-27.812-16.387-2.775-17.712-12.325-32.613-20.213-48.301-1.2844-2.4656-3.524-5.0719-6.3359-4.8867zm-1.9629 5.6699c6.334-0.34721 8.3613 10.037 10.049 14.666 7.3 8.45 10.802 19.488 13.914 29.926-4.7875 6.1875-14.55-11.075-16.963 0.66211-12.612 5.3625-9.7258-9.65-7.8008-17.125 5.225-7.45-3.2863-22.825-12.486-17.725-0.8-6.7625 6.8109-8.8625 11.961-10.188 0.46172-0.12344 0.9039-0.19365 1.3262-0.2168zm148.51 0.58594c8.1189 0.01 9.4469 16.884 0.39062 15.594 10.638 9.1 5.725-12.013 16.25-7.1504 0.9125 13.212 2.6129 38.588 21.838 29.613-0.7375 8.35-10.576 20.225-18.488 11.662-8.8-11.412-22.487-18.762-27.85-32.662 0.175-4.0875 5.4625-2.0129 8.25-1.4629 0.925-5.55-5.0379-9.2254-4.2754-14.463 1.4266-0.78906 2.7249-1.1322 3.8848-1.1309zm-139.29 42.807c6.1125-0.2125 5.2758 8.7484 4.6758 13.336-9.9375 3.775-4.9258-8.5484-4.6758-13.336zm258.49 7.5293c-1.6375 0.0549-3.2633 0.33594-4.832 0.88281-6.5 0.7-16.7 4.3754-15.963 12.463 5.8875-2.875 18.164-2.1008 14.201 7.8867-6.5875 6.9625-13 14.1-19.125 21.475-10.025 9.875-25.2-7.5242-33.912 0.55078 12.162 30.875 48.373 48.686 80.648 46.424 1.875-11.288-11.4-18.238-15.537-27.188 7.6625-18.3 7.0371-38.612 8.3496-58-3.9-2.7938-8.9176-4.6588-13.83-4.4941zm-3.0098 2.7949c4.4047 0.10385 10.344 2.4281 13.016 4.3125-0.0125 15.675-2.0996 31.675-5.7246 46.912-10.262 6.8625-6.5383-13.911-15.051-5.5488 8.475-0.875 2.0625 16.674-5.5625 14.137 1.9125 4.175 5.3512 5.6625 9.3262 3 10.925 1.8875 20.173 10.675 22.836 20.9-28.238 0.3875-54.824-17.2-69.262-39.162 9.3375 0.1 28.6 2.075 34.463 12.938-0.7125-5.85 6.1742-7.1 8.1992-11.812-14.262-2.0375-8.1004-11.388 1.0371-16 5.4875-6.325 12.926-20.651 1.4883-24.639-0.68906-3.8555 1.8085-5.1179 5.2344-5.0371zm-15.959 57.488c-0.05 1.8125 0.82422 2.5867 2.6367 2.3242 0.3625-2.2125-0.51172-2.9867-2.6367-2.3242zm-218.32-56.39c7.7101-0.0743 17.132 2.8508 20.951 6.7812-21.388 13.975-48.838 16.112-72.875 8.5742-11.012 1.75-2.9996-8.2129 2.1504-6.5879 9.025-5.3125 20.425-10.173 30.037-3.0234 5.85 4.4625 8.9262-5.0625 14.764-5.1875 1.507-0.36094 3.1934-0.53949 4.9727-0.55664zm-284.78 0.41211c-0.41081 0.009-0.82227 0.0273-1.2324 0.0566-13 15.775-14.3 38.811-18.725 58.049-5.9125 8.2-29.937 6.8754-20.85 21.4 25.3 8.775 55.238 8.2004 79.313-5.1621 5.8625-3.4875 14.663-14.651 0.11328-12.613-22.962 2.6125-27.289-22.711-29.514-39.486 1.5625-9.875 11.864-0.28711 17.014 0.46289-0.53-13.43-13.381-22.97-26.117-22.71zm4.2363 4.5469c7.938 0.2596 21.179 11.129 4.9453 10.223-8.425 8.875 1.0492 25.012 2.1992 36.574-6.3375 1.6875-15.375-9.6004-19.287-0.90039-0.8125 2.525-8.7383 5.2621-6.6133 0.84961 4.5875-15.3 4.05-35.036 16.5-46.461 0.66919-0.225 1.4347-0.31201 2.2559-0.28516zm132.27 10.084c-12.65 3.1125-20.988 16.163-19.088 29.051 7.55 2.7625 6.0637-13.075 15.451-9.0371 6.075 11.125 2.9734 24.912 2.0859 36.887-3.3 12.238-21.949 9.1496-25.137 19.912 28.875 16.25 67.512 4.7387 91.074-16.174-1.65-12.375-18.699-8.3633-27.174-10.613-11.338-16.575-18.475-42.263-37.213-50.025zm228.66 0.78711c-1.3386 0.0317-2.7332 0.24023-4.1816 0.65039-11.912 14.662-21.049 33.062-27.637 50.438-7.95 5.7625-25.051 1.0754-27.363 13.775 19.088 15.8 45.125 23.063 69.65 17.488 7.35-2.15 20.437-0.8625 21.762-10.812-8.125-5.1-19.024-6.2887-25.736-13.451-2.525-12.225-6.4004-26.911-0.83789-38.299 7.925-6.0875 9.1117 13.537 15.512 7.0117-0.5211-10.864-8.2281-27.107-21.168-26.801zm-228.67 3.3887c12.925 8.3375 21.338 26.438 29.275 40.562-5.375 8.1125-14.539-8.3129-17.264 3.5996-16.25 9.525 2.5387-39.15-22.736-31.525-2.125-4.5125 5.4246-11.087 10.725-12.637zm229.8 1.9102c6.602-0.21223 14.379 5.0781 11.156 10.664-27.75-8.9-0.98633 48.188-22.361 31.238-1.0375 5.825 3.4875 17.912-7.75 14.162-1.5-5.3 0.3375-15.487 7.75-14.162-6.025-9.125-14.312 12.799-14.1-3.0137 3.825-12.512 11.761-23.349 18.174-34.699 1.3711-2.8594 4.13-4.093 7.1309-4.1894zm-368.66 29.85c7.3266 0.002 8.4434 18.518-1.6348 14.521-0.237-4.7625-0.21211-9.5262 0.08789-14.264 0.54216-0.17656 1.0584-0.25796 1.5469-0.25781zm15.053 10.584c8.5125 2.65 21.713 2.7496 28.063 6.5996-22.7 14.475-54.988 19.149-79.525 7.6113 10.038-17.638 36.838-1.5359 51.463-14.211zm142.71 1.9219c1.2398 0.14121 2.4172 1.5328 3.1797 4.8516 3.525 5-1.4262 9.6016-6.5762 9.4141 5.6125 4.025 10.188 1.7609 12.25-3.9141 9.125-3.8125 24.814-6.2992 31.701 0.30078-17.462 14.475-42.65 22.288-65.75 19.4-2.7125 0.625-11.512-0.0383-10.25-4.8633 9.775-5.425 20.386-12.774 32.049-10.924-4.6125-3.8531-0.32305-14.689 3.3965-14.266zm179.43 10.621c5.3047 0.15312 9.8328 1.8555 11.695 7.8555 14.775-8.9875 29.313 0.78828 43.15 6.8633-19.35 9.6875-48.052 9.8754-68.227-3.2871-6.7-1.2125-17.65-9.8508-2.9746-9.9883 4.9688-0.2 11.051-1.5965 16.355-1.4434zm151.57 66.229c6.8896 0.17125 13.514 3.8379 19.42 7.0645-25.825 101.48-50.636 203.23-76.611 304.7-23.1 0.2375-46.2 0.22461-69.287-0.0254 10.512-76.175 29.162-151.36 40.949-227.5 4.7125-20.325 7.0492-41.262 13.574-61.125 24.862 2.175 49.876-7.5879 68.988-22.963 0.99375-0.12969 1.9826-0.17681 2.9668-0.15235zm-466.43 1.9785c30.163 17.788 68.675 30.098 104.29 19.023 16.15 97.125 39.088 193.4 52.801 290.74-26.762 0.25-53.537 0.23672-80.287 0.0117-25.225-103.2-52.563-206.26-76.801-309.77zm128.33 3.0371c21.762 5.7375 42.774 24.5 67.924 21.9 17.3 3.4 32.564-5.2129 47.576-11.088 0.1875 98.662-1.2637 197.27-1.6387 295.92-21.925 0.15-43.875 0.35039-65.775 0.0254-19.612-98.038-37.638-196.71-56.312-294.99-2.9875-5.45 5.4641-7.9754 8.2266-11.775zm223.56 6.2617c8.1625-0.15 16.55 6.4 25.125 7.5-17.288 97.675-36.964 195.13-54.227 292.95-21.388 0.25-42.787 0.32344-64.162 0.0234 0.3375-98.65 1.9508-197.29 1.1133-295.97 29.188 10.825 65.663 16.175 92.15-4.5z"/>
</g>
</g>
</svg>
