<?xml version="1.0" encoding="UTF-8" standalone="no"?>
<svg id="svg2" xmlns:rdf="http://www.w3.org/1999/02/22-rdf-syntax-ns#" xmlns="http://www.w3.org/2000/svg" height="226.84mm" width="213.46mm" version="1.1" xmlns:cc="http://creativecommons.org/ns#" xmlns:dc="http://purl.org/dc/elements/1.1/" viewBox="0 0 756.35922 803.751">
<g id="layer1" transform="translate(-8.4069 -20.265)">
<path id="path4141" d="m440.89 20.265c3.1503 8.5507 15.451 11.401 18.976 20.777 11.851 13.576 9.6758 35.328-2.55 47.779 9.1507 3.6753 16.951 9.4507 25.051 14.776 13.501 11.851 11.926 34.878 4.7254 48.904-13.875-5.1754-8.0996-31.728-24.001-38.328-22.652-20.627-55.28-27.752-85.207-29.402-11.626-1.5751-12.451 13.276-8.5507 20.852 5.3253 21.301-16.802 32.477-33.527 36.603-50.029 13.501-100.81 25.877-147.61 48.529-55.58 34.127-110.56 80.781-124.51 147.99-28.877 15.676-54.154 43.878-55.279 78.681 2.0252 18.227 4.7254 37.353 14.401 53.255 21.602 34.652 69.005 46.728 106.51 36.002 24.902 105.38 52.28 210.62 78.457 315.48 117.68 3.6003 237.54 0.75008 355.98 1.4251 9.3006-10.051 9.1507-25.652 12.526-38.403 24.077-92.632 46.053-186.91 70.43-278.8 28.728 3.3753 58.43-6.9756 79.207-26.626 28.201-24.452 40.353-70.881 18.977-103.58-5.4756-21.751-34.728-27.001-34.728-51.228-12.676-35.853-33.153-71.706-64.28-93.758 15.376-11.475 31.128 6.8256 41.479 17.402 20.477-22.652 54.754-5.7005 77.406-11.776-23.176-13.201-47.028-30.002-54.529-57.229-2.5503-3.0753-0.59993-14.476-7.2757-11.851-34.353 28.952-86.557 24.602-123.91 7.2756 19.052 7.5757 29.777-19.652 25.202-33.078-14.026 9.6758-30.303-6.9006-26.478-21.452-8.5507 7.3506-21.302 15.151-26.327 26.927 3.9756 5.4005 6.0755 11.701 8.1758 17.927-29.27-31.22-25.59-79.67-22.52-118.9-35.77 6.903-65.25-13.724-96.23-26.175zm-55.13 81.305c25.127 1.8752 49.879 10.876 69.681 26.552 10.051 15.826 10.576 43.579 34.652 44.104 17.852-1.7251 22.802 16.201 26.852 29.253 6.1503 14.026 7.1255 29.327 6.9756 44.403 12.301 3.6753 19.876-9.6008 31.577-10.276 13.351-2.1002 31.653-12.526 42.304 0.30004 5.6255 4.0504 1.4252 14.101 8.1758 16.726 6.4504-6.7506 14.925-11.026 22.651-16.126 36.153 27.452 61.43 68.256 70.431 112.88 26.852 18.976 51.004 52.278 36.753 86.556-14.776 44.254-72.006 68.78-113.48 46.279-15.15-9.7508-24.151 9.4508-36.902 14.55-27.752 13.276-60.305 6.3756-86.557-6.4496-26.251 23.626-68.705 19.951-96.532-0.22502-25.277 15.225-55.88 25.051-84.831 13.425-15.227-4.0504-27.677-19.276-42.604-20.776-32.778 36.977-91.057 25.576-125.11-3.6003-39.904 28.726-112.13 14.925-121.21-39.153-14.476-37.203 14.626-77.407 49.729-87.832 6.2254-52.73 43.878-94.658 85.132-124.81 55.354-44.628 128.94-52.879 194.34-75.53 18.902-8.7758 33.153-28.277 27.978-50.254zm185.19 41.628c13.651 0.15-10.126 23.777-5.4756 0.82507 2.2502-0.60006 4.0504-0.82507 5.4756-0.82507zm11.326 9.5258c5.3257 0.30003 6.6007 16.501-2.4752 12.151-7.8006 0.67506-2.325-10.201 1.9504-12.151 0.14883 0 0.37491-0.075 0.52481 0zm-145.29 20.702c-9.2258 0-18.527 0.15-27.753 0.15-4.7254 10.501-0.82495 23.852-9.6758 32.478-4.4253-2.0252-6.0755-7.2756-8.9256-10.951-0.45004 7.5756-6.8257 10.501-12.526 5.2504-0.0744 6.0005 3.6003 10.726 5.1754 16.201-14.176-0.52505-29.478-3.0003-39.753-12.901-5.0256 7.6507-11.626 15.601-22.052 16.726 4.2754 5.9245 17.251 4.1244 24.676 9.5248 8.2506-7.6497 18.751-2.6252 25.052 5.0254 9.751-8.3257 22.277-1.5751 29.928 6.3755 6.3757-9.3008 4.2754-24.226 18.827-27.226-2.4752-8.6258 0.67506-20.777 11.851-22.577-1.95-7.7257 3.2254-12.751 5.1754-18.077zm-45.979 30.378c3.9756-0.30003-2.1751 5.5505-0.97484 0.15 0.37491-0.15 0.67505-0.15 0.97484-0.15zm-3.7502 2.4752c3.9752-0.30004-2.1751 5.5505-0.9752 0.15 0.37527-0.075 0.67505-0.15 0.9752-0.15zm70.356 34.727c3.8253 8.9258 9.6758 16.801 8.701 27.077 12.001 2.7002 8.7758 17.252 7.6507 26.027 13.875-0.075 11.925 16.726 9.8998 25.802 11.176-0.75007 23.852-3.3753 33.153 2.5502 6.0755-7.7257 16.201-6.9756 23.102-0.67506 6.2254-3.4503 12.451-6.7506 19.577-3.0753-3.3753-9.3008-11.401-15.976-13.951-25.652-11.176 3.3753-21.527 11.476-34.053 9.9008 0.30121-5.4005 5.3253-9.6008 5.5504-15.301-5.4005 3.6003-11.101-0.30004-12.826-5.8505-3.8253-0.30004-2.55 14.701-7.8006 8.8508-10.276-9.9008-10.576-25.052-11.176-38.328-11.325 1.2001-18.226-8.4007-27.827-11.326zm-238.82 5.7755c-1.6499 9.9759-2.1 25.127-14.7 27.152 2.4001 6.8256 3.6751 16.576-3.6003 20.627-10.201 3.2253-1.0503 15.226-8.0259 21.902 8.926-1.5001 17.777-3.8253 26.926-3.1503 0.0744-11.626 1.5751-23.252 5.7002-34.203 5.6255-0.15 4.8757 11.026 10.726 10.276-0.67506-8.4757 6.1503-8.2507 11.926-6.2255-1.9504-4.6504-2.7754-11.701-8.8509-12.376 13.726-3.6753 30.528-3.4503 43.579 5.2504 3.5255-8.7758 9.376-17.101 19.427-19.052-14.851-11.776-35.853 4.1253-52.055-7.8757-9.3006 8.4757-21.752 0.30004-31.053-2.3252zm18.452 27.002c3.9756-0.30004-2.1751 5.5505-0.97485 0.15 0.37491-0.075 0.67506-0.15 0.97485-0.15zm-3.7502 5.0254c3.9752-0.30004-2.1751 5.5505-0.9752 0.15 0.37527-0.15 0.67506-0.15 0.9752-0.15zm269.95 11.251c4.0504-0.30004-2.1003 5.5505-0.90008 0.15 0.37491-0.15 0.67506-0.15 0.90008-0.15zm6.3005 2.4752c3.9752-0.30004-2.1754 5.5505-0.9752 0.15 0.37491-0.075 0.67506-0.15 0.9752-0.15zm-174.84 13.78c-0.45004 0-0.97485 0.15-1.6499 0.45004-5.8505 8.4757-18.302 5.7005-24.452 8.8508 8.8509 2.0252 12.976 10.276 18.827 16.201 10.876-5.1004 16.426 9.4508 21.451 16.426 10.351-3.2253 18.601 8.1007 22.052 16.8 8.7006-7.1256 17.101-16.8 30.378-14.325 0.22325-7.3506 3.6003-16.651 13.126-13.426 10.801 3.8253 4.8005-11.101 12.601-12.451 18.377-5.9255-12.601-6.9006-18.751-13.501-7.8009 6.3006-12.901 17.251-21.602 23.627-7.1258 0.52504-1.6503-11.026-3.7506-15.076-1.6499 8.1007-12.076 6.0005-15.301 0-2.0252 5.0254 0.82531 10.276 1.6503 15.376-12.076-3.1503-21.677-11.551-30.302-19.952-1.4249-2.5502-0.97485-9.0758-4.2754-9.0008zm37.353 23.702c3.9752-0.30004-2.1754 5.5505-0.97521 0.15 0.37492-0.075 0.67506-0.15 0.97521-0.15zm7.5004 0c3.9756-0.30004-2.1751 5.5505-0.97484 0.15 0.37491-0.075 0.67506-0.15 0.97484-0.15zm-193.14 36.75c-6.6754 0-15.901 0.97509-18.452 0.52505-4.5752 10.576-3.3002 23.177-11.101 32.403-4.7254-1.5001-4.1255-8.4007-6.9756-12.076-2.5503 5.4754-7.4256 12.826-13.276 6.4505-5.6255 2.3252 3.4501 10.351 3.9001 14.926-13.726-1.5002-29.478-1.4251-39.603-11.626-3.0752 10.726-16.876 11.626-22.427 18.902 11.551 0.0751 23.102 10.201 34.053 2.9252 8.8505-3.0002 14.326 13.426 21.827 5.4755 9.5256-6.5256 18.227 6.5256 24.827 9.8258 5.5507-9.5258 5.1754-24.902 18.752-28.277-11.251-18.377 19.952-16.726 11.851-33.978 7.5008-4.4254 3.3005-5.4005-3.3753-5.4755zm410.88 0.67506c-0.52517 0-1.0503 0.22502-1.7254 0.60005-6.9756 6.6756-17.552 1.7252-26.027 2.0252 8.7006 16.951 32.628 20.327 37.653 40.353 12.6-5.4005 15.9 12.751 21.076 19.652 7.5008-7.5756 19.127-15.451 29.553-11.776 2.4001-6.7506 7.3505-15.751 16.126-12.826 9.8261 3.0003 9.151-12.901 20.327-10.651-3.0004-9.2258-19.277-5.0254-22.502-15.826-10.051 4.8004-14.701 18.002-26.102 20.852-5.7006-0.75004-0.52516-11.176-2.8501-15.076-1.8002 8.4758-10.951 4.8754-15.227 0.37506-4.0504 3.1503 6.8257 18.977-3 13.726-7.2757-7.4256-18.901-10.951-22.126-21.827-1.7254-2.7752-1.7254-9.8259-5.1754-9.6008zm36.002 27.602c3.9752-0.30015-2.1751 5.5505-0.9752 0.14989 0.37527-0.14989 0.67506-0.14989 0.9752-0.14989zm6.2254 0c3.9756-0.30015-2.0999 5.5505-0.90008 0.14989 0.30121-0.14989 0.67506-0.14989 0.90008-0.14989zm-379 0.52502c-5.6255 9.0758-18.376 5.6255-24.452 8.9258 9.2258 0.82506 13.876 11.251 19.651 15.826 12.001-4.9504 15.677 9.3008 20.702 16.726 11.776-5.1004 17.777 9.8258 23.177 16.651 7.8009-7.2006 15.677-18.527 29.028-15.451-0.5248-12.226 11.026-14.701 20.326-14.926-0.0744-8.9258 9.8261-9.4508 12.901-14.551-8.8509-1.3501-17.401-3.9004-25.051-8.4758-10.201 3.6753-13.126 22.802-25.652 21.677 2.4001-23.177-2.7002-2.1002-13.576-11.251-9.3006-6.9006 4.8005 16.651-5.0252 11.401-15.076-2.5502-23.252-19.952-32.028-26.552zm-111.01 1.9502c3.9756-0.30014-2.1751 5.5505-0.97484 0.1499 0.37491-0.0751 0.67505-0.1499 0.97484-0.1499zm340.45 0.1499c-7.1258 7.7257-18.151 12.826-28.801 8.7007-4.0504 4.6504-5.5507 14.101-13.951 12.076-11.401-7.0506-13.126 12.076-24.527 10.126 7.1255 3.9753 15.901 9.8258 23.177 15.151 9.6007-5.4005 15.451-17.552 27.527-18.377 0.14884 5.7755 0.14884 11.551 0.37527 17.326 2.9252-7.4256 12.375-6.6006 13.5 1.4251 3-4.1254 0.22325-12.076 4.7254-14.101 13.501 5.1754 19.727 19.802 24.977 32.328 7.5004-6.9006 17.401-4.2004 26.402-2.1002-7.8757-7.2006-9.6758-22.202-22.352-22.802-9.3009-1.8002-4.4256-16.726-12.826-18.602-11.626 0.14989-11.776-16.351-18.227-21.152zm53.404 62.555c-0.82496 5.8505 5.7006-1.6502 0 0zm-398.88-60.24c3.9752-0.30014-2.1003 5.6255-0.90008 0.1499 0.30121-0.0751 0.67506-0.1499 0.90008-0.1499zm156.31 18.752c3.9752-0.30015-2.1751 5.6255-0.97521 0.14989 0.37527-0.0751 0.67506-0.14989 0.97521-0.14989zm6.2254 0c3.9756-0.30015-2.1751 5.6255-0.97484 0.14989 0.37491-0.0751 0.67505-0.14989 0.97484-0.14989zm170.04 11.251c3.9742-0.30014-2.1751 5.6255-0.9752 0.1499 0.37527-0.0751 0.67505-0.1499 0.9752-0.1499zm7.4246 0c4.0503-0.30014-2.1003 5.6255-0.90008 0.1499 0.37491-0.0751 0.67506-0.1499 0.90008-0.1499zm-138.16 102.46c13.801-0.1499 28.577 18.902 15.226 29.478-7.8006 11.776-24.751 8.7758-31.277-2.7752-8.7758-10.501 2.7002-21.452 11.776-26.027 1.4249-0.45003 2.8501-0.67505 4.2743-0.67505zm-77.931 0.0751c7.1255 0.1499 13.726 6.0755 17.701 11.401 8.5507 18.677-21.752 36.078-32.478 18.302-10.501-9.6008-2.4004-25.952 9.7506-28.877 1.7254-0.67506 3.3753-0.90008 5.0256-0.8251zm-77.105 0c13.576-0.22502 26.701 19.577 14.101 29.403-7.3505 12.451-24.902 8.4757-31.353-2.7752-8.8505-10.576 2.9252-22.727 13.126-25.802 1.3501-0.52506 2.7754-0.75008 4.1255-0.8251zm388.83 0c13.501-0.22502 26.627 19.577 14.026 29.403-7.3509 12.451-24.902 8.4757-31.353-2.7752-8.8509-10.576 2.9252-22.727 13.126-25.802 1.3501-0.52506 2.775-0.75008 4.2002-0.8251zm-155.71 0.0751c17.852-0.37502 26.027 28.277 6.8257 35.478-23.627 11.176-38.253-30.153-11.626-34.728 1.6503-0.52505 3.3005-0.75007 4.8005-0.75007zm75.605 0c13.501-0.30015 28.352 17.927 15.901 28.652-7.0504 10.276-23.777 11.926-30.153 0-10.725-9.3758-0.90008-24.527 10.126-27.902 1.3501-0.45004 2.7002-0.67506 4.1255-0.75007zm-191.19 72.37c12.526 0.22502 23.477 16.726 14.551 27.376-5.7757 13.276-26.852 11.251-33.003-0.8251-7.8757-10.2 1.8002-23.926 12.976-25.576 1.8002-0.67505 3.6751-0.97509 5.4752-0.97509zm-77.557 0.0751c12.751 0.37502 25.427 15.976 15.751 27.226-6.3006 11.326-25.727 12.976-31.803 0.67505-9.0745-9.4498-0.74983-24.601 10.651-27.076 1.725-0.60004 3.6003-0.90008 5.4005-0.82506zm231.54 0.0751c10.426-0.30015 20.476 8.9258 20.401 19.577-2.7743 15.3-24.676 23.476-34.352 9.6748-10.501-9.3748-2.7002-25.576 9.5259-28.501 1.4252-0.45004 2.9252-0.75004 4.4253-0.75004zm78.231 0.0751c7.5755 0.0751 15.451 5.1005 17.026 12.751 4.8005 12.6-8.4008 27.076-21.752 23.101-18.602-1.8752-19.877-33.302-0.37527-35.102 1.5751-0.52506 3.3753-0.75008 5.1007-0.75008zm-154.44 0c10.501-0.22502 21.677 9.3008 19.052 20.627-1.5751 13.125-17.851 19.201-28.877 13.5-13.501-7.7257-11.251-31.577 5.4005-33.377 1.4249-0.45004 2.9252-0.67506 4.4253-0.75008zm-42.303 70.955c15.075 0.0751 28.126 22.952 12.6 32.328-11.325 11.851-33.452 0.30015-31.952-15.526 2.4752-6.9006 8.0256-12.751 14.626-16.051 1.5751-0.52506 3.1503-0.75008 4.7254-0.75008zm79.506 0.1499c13.426-0.52503 25.127 18.677 15.301 29.328-8.1007 12.151-27.378 8.8508-33.453-3.3753-4.4253-10.951 3.5255-22.277 13.951-25.127 1.4252-0.52506 2.8505-0.82509 4.2006-0.82509zm77.406 0c16.801 0.45004 27.827 27.827 7.9504 34.578-23.852 14.026-39.077-27.377-13.276-33.828 1.8753-0.52505 3.6003-0.82506 5.3257-0.75007zm-233.49 0.0751c13.801-0.45004 26.027 18.452 15.751 29.853-8.4008 8.7008-23.552 10.201-30.903-0.60004-8.5507-9.7508-0.59994-25.577 10.801-28.502 1.5004-0.52506 2.9252-0.75008 4.3505-0.75008zm195.17 69.831c14.776 0 28.652 21.976 13.201 31.427-11.176 13.726-34.578 0.30014-32.553-15.825 3.3002-6.2255 8.4756-11.701 14.776-14.926 1.5751-0.45004 3.0755-0.67506 4.5755-0.67506zm-78.232 0c7.0504 0.0751 13.276 6.1505 17.326 11.551 10.051 15-15.002 33.077-27.753 22.651-14.626-7.8757-9.751-29.627 5.4005-33.302 1.725-0.67506 3.3753-0.97509 5.0256-0.90008zm-76.881 0.0751c13.951-0.30015 26.027 20.326 13.801 30.602-11.101 14.776-36.378 2.0252-34.278-15.075 3.4504-6.3755 8.8509-12.676 16.052-14.701 1.5-0.52505 2.9253-0.75007 4.4253-0.82509z"/>
</g>
</svg>
